/* XPM */
static char *result[] = {
/* columns rows colors chars-per-pixel */
"70 70 136 2 ",
"   c black",
".  c #00010A",
"X  c #A5A5A5",
"o  c #090D2A",
"O  c #FFB97A",
"+  c #2A3265",
"@  c #1A204A",
"#  c #394280",
"$  c #F7FF00",
"%  c #E63540",
"&  c #313973",
"*  c #636600",
"=  c #202754",
"-  c #292C00",
";  c #262D5F",
":  c #2D356A",
">  c #333F7A",
",  c #03051A",
"<  c #606060",
"1  c #505051",
"2  c #C8CE00",
"3  c gray52",
"4  c #2C1A09",
"5  c #825C36",
"6  c #787879",
"7  c #13193D",
"8  c white",
"9  c #000004",
"0  c #FE0003",
"q  c #A09F9F",
"w  c #313141",
"e  c #848484",
"r  c #9A6D43",
"t  c #686868",
"y  c #684629",
"u  c gray8",
"i  c #292725",
"p  c gray24",
"a  c #2D2E30",
"s  c #191A25",
"d  c #6B0000",
"f  c #E30000",
"g  c gray58",
"h  c #D39962",
"j  c #FF075A",
"k  c #191402",
"l  c #050201",
"z  c #FF0080",
"x  c #262942",
"c  c #BD8856",
"v  c #7E8200",
"b  c #AFB500",
"n  c #F9FF2F",
"m  c #89613B",
"M  c #0C1131",
"N  c #060A24",
"B  c #E3CECE",
"V  c #E8A76C",
"C  c #534036",
"Z  c #3B3237",
"A  c #B58252",
"S  c #4E0000",
"D  c #969B00",
"F  c #FAFF66",
"G  c #4E8AEE",
"H  c #FF9464",
"J  c #FFD6B0",
"K  c #2A2433",
"L  c #102C5A",
"P  c #111436",
"I  c #FF2336",
"U  c #F0AE73",
"Y  c #424343",
"T  c #727373",
"R  c #211D1C",
"E  c #202100",
"W  c #0C0D00",
"Q  c #010212",
"!  c #827D7D",
"~  c #8D8D8D",
"^  c #9B9B9B",
"/  c #0B0B0B",
"(  c #BCC200",
")  c #F9B275",
"_  c #2D0000",
"`  c #3C0101",
"'  c #7D0000",
"]  c coral",
"[  c #FF0046",
"{  c #FF1908",
"}  c #3365B2",
"|  c #353700",
" . c #5A5E00",
".. c #1C2036",
"X. c #DEE500",
"o. c #FBFF8A",
"O. c #FF9890",
"+. c #939AAE",
"@. c #62060B",
"#. c #153566",
"$. c #FF101E",
"%. c #A50202",
"&. c #082046",
"*. c #2B589E",
"=. c #FF0075",
"-. c #4B3119",
";. c #9B0000",
":. c #A5AA00",
">. c #D50000",
",. c #FF63B4",
"<. c #5C3E22",
"1. c #414400",
"2. c #A5774E",
"3. c #797C00",
"4. c #8D9100",
"5. c #754400",
"6. c #9B8169",
"7. c #FC5001",
"8. c #B07F50",
"9. c #9D3E22",
"0. c #836600",
"q. c #FAD82C",
"w. c #FEFFE3",
"e. c #EEC6AD",
"r. c #491414",
"t. c #F8FF0B",
"y. c #856B22",
"u. c #906868",
"i. c #FEFFE8",
"p. c #B50000",
"a. c #FE442C",
"s. c #3D5D6B",
"d. c #ED6E44",
"f. c #FFCEE8",
"g. c #4F4203",
"h. c #FFB5DB",
/* pixels */
"# # # # # # # # # # # # # # # # # # # # # @ . . . : # # # # # # # # # # # # # # # # # # # # # # # # # # # # # # # # # # # # # # # # # # # # ",
"# # # # # # # # # # # # # # # # # # # # @ C 5 5 5 K + # # # # # # # # # # # # # # # # # # # # # # # # # # # # # # # # # # # # # # # # # # # ",
"# # # # # # # # # # # # # # # # # # # # . 5 O O O m Z @ @ @ @ & # # # # # # # # # # # # # # # # # # # # # # # # # # # # # # # # # # # # # # ",
"# # # # # # # # # # # # # # # # # # # # . 5 O O O O m 4 4 4   = # # # # # # # # # # # # # # # # # # # # # # # # # # # # # # # # # # # # # # ",
"# # # # # # # # # # # # # # # # # # # # . 5 O O O O U V V V   = # # # # # # # # # # # # # # # # # # # # # # # # # # # # # # # # # # # # # # ",
"# # # # # # # # # # # # # # # # # # # # . 5 O O O O O O h 4 + > # # # # # # # # # # # # # # # # # # # # # # # # # # # # # # # # # # # # # # ",
"# # # # # # # # # # # # # # # # # # # # = Z y m U O O c C @ # # # # # # # # # # # # # # # # # # # # # # # # # # # # # # # # # # # # # # # # ",
"# # # # # # # # # # # # # # # # # # # # # = o K m r r <.. # # # ; @ @ @ @ @ @ = # # # # # # # # # # # # # # # # # # # # # # # # # # # # # # ",
"# # # # # # # # # # # # # # # # # # # # # # # : ,       9 + + + i - - - - - - - + + > # # # # # # # # # # # # # # # # # # # # # # # # # # # ",
"# # # # # # # # # # # # # # # # # # # # # # # # # .             D $ $ $ $ $ $ 2     + # # # # # # # # # # # # # # # # # # # # # # # # # # # ",
"# # # # # # # # # # # # # # # # # # # # # # # # # .         $ $ $ $ $ $ $ $ $ $ $ $ - 7 # # # # # # +   # # # # # # # # # # # # # # # # # # ",
"# # # # # # # # # # # # # # # # % % % # % % % # # ; ,   k b $ $ $ $ $ $ $ $ $ $ $ $ ( * M # # # # ; i 2., + # # # # # # # # # # # # # # # # ",
"# # # # # # # # # # # # # # # % % % % % % % % % # # o   - $ F F F n $ $ :.D ( $ $ $ $ v . # # # # @ 4 V y w ; # # # # # # # # # # # # # # # ",
"# # # # # # # # # # # # # # # % % % % % % 8 % % # # o l  .$ 8 8 w.o.$ 2 g.l * $ n $ $ D - + # # # = i c O y K + + + > # # # # # # # # # # # ",
"# # # # # # # # # # # # # # # % % % % % % % % % # # o * $ $ 8 8 F $ $   h y * n i.n $ $ 2   & # # # +   O O r       + # # # # # # # # # # # ",
"# # # # # # # # # # # # # # # # % % % % % % % # # # o * $ $ $ $ $ b   O O O r a 8 8 8 o.2   & # # # +   O O O O O O 4 @ # # # # # # # # # # ",
"# # # # # # # # # # # # # # # # # % % % % % # # # # o * $ $ $ $ $ b   { { ] d.>.a.q.n t.$ ( k : # = 9   O O O O O O h C 7 # # # # # # # # # ",
"# # # # # # # # # # # # # # # # # # % % % # # # # # o * $ $ $ $ :.5.;.O.j I I [ [ 7.0.b X. .x & @ w 1   y h O O O O O y o # # # # # # # # # ",
"# # # # # # # # # # # # # # # # # # # % # # # # # # o * $ $ $ $ * S 0 h.,.j [ z =.0 _ v 2   & ; x < ~ Z   5 A A A A U r Z ; # # # # # # # # ",
"# # # # # # # # # # # # # # # # # # # # # # # # # # o * $ $ $ $ * S 0 z f.,.z z =.0 _ v 2   & . < X X X             h O r . # # # # # # # # ",
"# # # # # # # # # # # # # # # # # # # # # # # # # # o   E X.$ $ * -.O 0 j z z j { H 4 v 2     3 ^ g 6 .   ; # # # # ,     , # # # # # # # # ",
"# # # # # # # # # # # # # # # # # # # # # # # # # # o     - $ $ * -.O H $.j j $.H ) 4 v 2   6 q 1 u s ; + > # # # # : + + : # # # # # # # # ",
"# # # # # # # # # # # # # # # # # # # # # # # # # # ; N     * * y.c O O ] I I ] O O 4 - * t q 1 x @ = > # # # # # # # # # # # # # # # # # # ",
"# # # # # # # # # # # # # # # # # # # # # # # # # # # ; o o     6.J J J J O.H O ) 8.C p 1 q t ..; # # # # # # # # # # # # # # # # # # # # # ",
"# # # # # # # # # # # # # # # # # # # # # # # # # # # # # #     ! B B B B B e.) c k t g q 6 , : # # # # # # # # # # # # # # # # # # # # # # ",
"# # # # # # # # # # # # # # # # # # # # # # # # # # # # # #     ` d d ' ' d 9.c     l Y 6 . & # # # # # # # # # # # # # # # # # # # # # # # ",
"# # # # # # # # # # # # # # # # # # # # # # # # # # # # # #     ` d d f f ;.S k         s + # # # # # # # # # # # # # # # # # # # # # # # # ",
"# # # # # # # # # # # # # # # # # # # # # # # # # # # # # #       S f 0 0 f %.@.6 /   o : # # # # # # # # # # # # # # # # # # # # # # # # # ",
"# # # # # # # # # # # # # # # # # # # # # # # # # # # # # #   L o _ p.0 0 >.' r.g u o ; # # # # # # # # # # # # # # # # # # # # # # # # # # ",
"# # # # # # # # # # # # # # # # # # # # # # # # # # # # > +   } #.l S f f %.` / 6 s : # # # # # # # # # # # # # # # # # # # # # # # # # # # ",
"# # # # # # # # # # # # # # # # # # # # # # # # # # # # +   . } L   . @.d u.<   . + # # # # # # # # # # # # # # # # # # # # # # # # # # # # ",
"# # # # # # # # # # # # # # # # # # # # # # # # # # # # +   G L   &.G G +.q < 9 & # # # # # # # # # # # # # # # # # # # # # # # # # # # # # ",
"# # # # # # # # # # # # # # # # # # # # # # # # # # # # +   G &.> *.o +.X 1 ..: # # # # # # # # # # # # # # # # # # # # # # # # # # # # # # ",
"# # # # # # # # # # # # # # # # # # # # # # # # # # # # +   #.Q *.}   X 1 x ; # # # # # # # # # # # # # # # # # # # # # # # # # # # # # # # ",
"# # # # # # # # # # # # # # # # # # # # # # # # # # # : a *     L s.* X u @ # # # # # # # # # # # # # # # # # # # # # # # # # # # # # # # # ",
"# # # # # # # # # # # # # # # # # # # # # # # # # # # @ E 2       | 2 3 s = # # # # # # # # # # # # # # # # # # # # # # # # # # # # # # # # ",
"# # # # # # # # # # # # # # # # # # # # # # # # # # # @   W         W   ; > # # # # # # # # # # # # # # # # # # # # # # # # # # # # # # # # ",
"# # # # # # # # # # # # # # # # # # # # # # # # # # # @ E 2     3.4.    + # # # # # N . N # # # # # # # # # # # # # # # # # # # # # # # # # ",
"# # # # # # # # # # # # # # # # # # # # # # # # # # # @ l *     | 1.    , ; # # > 7       M > # # # # # # # # # # # # # # # # # # # # # # # ",
"# # # # # # # # # # # # # # # # # # # # # # # # # # # @                   @ # # & .       9 7 @ : # # # # # # # # # # # # # # # # # # # # # ",
"# # # # # # # # # # # # # # # # # # # # # # # # # # & P   -     W k   u u x & # & .             P & # # # # # # # # # # # # # # # # # # # # ",
"# # # # # # # # # # # # # # # # # # # # # # # # # # o   - $     D b   X X p o # & .               o # # # # # # # # # # # # # # # # # # # # ",
"# # # # # # # # # # # # # # # # # # # # # # # # # .               i X       o +     e 1             . & # # # # # # # # # # # # # # # # # # ",
"# # # # # # # # # # # # # # # # # # # # # # # # # .               9 i   < i o +   < ^ ~ <       Y Y . & # # # # # # # # # # # # # # # # # # ",
"# # # # # # # # # # # # # # # # # # # # # # # # # 7 9                 p g t w P   3 X X e     a ! < . & # # # # # # # # # # # # # # # # # # ",
"# # # # # # # # # # # # # # # # # # # # # # # # # # o                 X X X 6 R   3 X X e   Q < T 1 M > # # # # # # # # # # # # # # # # # # ",
"# # # # # # # # # # # # # # # # # # # # # # # # # # o                 X X X X e   3 X X e   & .   o # # # # # # # # # # # # # # # # # # # # ",
"# # # # # # # # # # # # # # # # # # # # # # # # # # # @         @ # #   3 X X X g u e 1 . # # # # # # # # # # # # # # # # # # # # # # # # # ",
"# # # # # # # # # # # # # # # # # # # # # # # # # # # @         @ # # + s T X X q ~ q 1 . # # # # # # # # # # # # # # # # # # # # # # # # # ",
"# # # # # # # # # # # # # # # # # # # # # # # # # # # @         @ # # # = w t X X X X 1 . # # # # # # # # # # # # # # # # # # # # # # # # # ",
"# # # # # # # # # # # # # # # # # # # # # # # # # # # @         M + # # # @ w T 6 ^ ! a . # # # # # # # # # # # # # # # # # # # # # # # # # ",
"# # # # # # # # # # # # # # # # # # # # # # # # # # # = 9         , # # # # = 9   t /   N # # # # # # # # # # # # # # # # # # # # # # # # # ",
"# # # # # # # # # # # # # # # # # # # # # # # # # # # # +         , # # # # # +       7 # # # # # # # # # # # # # # # # # # # # # # # # # # ",
"# # # # # # # # # # # # # # # # # # # # # # # # # # # # +         , # # # # # > + + + & # # # # # # # # # # # # # # # # # # # # # # # # # # ",
"# # # # # # # # # # # # # # # # # # # # # # # # # # # # +         , # # # # # # # # # # # # # # # # # # # # # # # # # # # # # # # # # # # # ",
"# # # # # # # # # # # # # # # # # # # # # # # # # # # # +         9 @ # # # # # # # # # # # # # # # # # # # # # # # # # # # # # # # # # # # ",
"# # # # # # # # # # # # # # # # # # # # # # # # # # # # : .           # # # # # # # # # # # # # # # # # # # # # # # # # # # # # # # # # # # ",
"# # # # # # # # # # # # # # # # # # # # # # # # # # # # # #           # # # # # # # # # # # # # # # # # # # # # # # # # # # # # # # # # # # ",
"# # # # # # # # # # # # # # # # # # # # # # # # # # # # # #           # # # # # # # # # # # # # # # # # # # # # # # # # # # # # # # # # # # ",
"# # # # # # # # # # # # # # # # # # # # # # # # # # # # # #           # # # # # # # # # # # # # # # # # # # # # # # # # # # # # # # # # # # ",
"# # # # # # # # # # # # # # # # # # # # # # # # # # # # # #           7 & # # # # # # # # # # # # # # # # # # # # # # # # # # # # # # # # # ",
"# # # # # # # # # # # # # # # # # # # # # # # # # # # # # #             + # # # # # # # # # # # # # # # # # # # # # # # # # # # # # # # # # ",
"# # # # # # # # # # # # # # # # # # # # # # # # # # # # # #             + # # # # # # # # # # # # # # # # # # # # # # # # # # # # # # # # # ",
"# # # # # # # # # # # # # # # # # # # # # # # # # # # # # #             + # # # # # # # # # # # # # # # # # # # # # # # # # # # # # # # # # ",
"# # # # # # # # # # # # # # # # # # # # # # # # # # # = . .             + # # # # # # # # # # # # # # # # # # # # # # # # # # # # # # # # # ",
"# # # # # # # # # # # # # # # # # # # # # # # # # # @ w < <             + # # # # # # # # # # # # # # # # # # # # # # # # # # # # # # # # # ",
"# # # # # # # # # # # # # # # # # # # # # # # # # # o p X X p l         + # # # # # # # # # # # # # # # # # # # # # # # # # # # # # # # # # ",
"# # # # # # # # # # # # # # # # # # # # # # # # # # o a 3 3 3 R       . : # # # # # # # # # # # # # # # # # # # # # # # # # # # # # # # # # ",
"# # # # # # # # # # # # # # # # # # # # # # # # # # o                 & # # # # # # # # # # # # # # # # # # # # # # # # # # # # # # # # # # ",
"# # # # # # # # # # # # # # # # # # # # # # # # # # o             Q + # # # # # # # # # # # # # # # # # # # # # # # # # # # # # # # # # # # "
};
