/* XPM */
static char *_3e2284766a44f4dd60ec8b10e51f236IVpDeZzU0onoNpig[] = {
/* columns rows colors chars-per-pixel */
"50 50 140 2 ",
"   c None",
".  c #040100",
"X  c #0D0201",
"o  c #010F00",
"O  c #150000",
"+  c #1A0101",
"@  c #150A03",
"#  c #190B04",
"$  c #1D0909",
"%  c #011200",
"&  c #001D00",
"*  c #250000",
"=  c #2B0000",
"-  c #230C0C",
";  c #2A0E0E",
":  c #350000",
">  c #3B0000",
",  c #380D0D",
"<  c #2E1506",
"1  c #311607",
"2  c #371212",
"3  c #3B1414",
"4  c #012100",
"5  c #0D2200",
"6  c #002C00",
"7  c #003200",
"8  c #003D00",
"9  c #342000",
"0  c #3E2100",
"q  c #293E00",
"w  c #430100",
"e  c #4C0000",
"r  c #540000",
"t  c #5B0000",
"y  c #540C00",
"u  c #4B1200",
"i  c #401D00",
"p  c #5C1105",
"a  c #5C1F0A",
"s  c #451717",
"d  c #441919",
"f  c #4D1A1A",
"g  c #650000",
"h  c #6C0000",
"j  c #6A0B03",
"k  c #740000",
"l  c #7E0000",
"z  c #760900",
"x  c #4D220B",
"c  c #4F290C",
"v  c #50250C",
"b  c #5B2C0E",
"n  c #65260C",
"m  c #7D3A12",
"M  c #632323",
"N  c #6A2424",
"B  c #772A2A",
"V  c #7A2B2B",
"C  c #004300",
"Z  c #004F00",
"A  c #084F00",
"S  c #005E00",
"D  c #006100",
"F  c #006A00",
"G  c #176A00",
"H  c #137500",
"J  c #820000",
"K  c #8C0000",
"L  c #950000",
"P  c #9B0000",
"I  c #A40000",
"U  c #AB0000",
"Y  c #A40D0D",
"T  c #B30000",
"R  c #BB0000",
"E  c #822D2D",
"W  c #A63B3B",
"Q  c #AF3E3E",
"!  c #C30000",
"~  c #CB0000",
"^  c #D40000",
"/  c #DB0000",
"(  c #E30000",
")  c #ED0000",
"_  c #E50F0F",
"`  c #F50000",
"'  c #FF0000",
"]  c #FF0D0D",
"[  c #FF1313",
"{  c #FF1C1C",
"}  c #D22323",
"|  c #EE2C2C",
" . c #FF2B2B",
".. c #ED3333",
"X. c #FF3232",
"o. c #864014",
"O. c #8D4315",
"+. c #934516",
"@. c #9C4917",
"#. c #B64242",
"$. c #CD4A4A",
"%. c #D24C4C",
"&. c #D84E4E",
"*. c #F24747",
"=. c #FE4242",
"-. c #FF4B4B",
";. c #E45454",
":. c #EE5555",
">. c #FF5454",
",. c #F25959",
"<. c #FE5E5E",
"1. c #FF6060",
"2. c #008300",
"3. c #008A00",
"4. c #009300",
"5. c #039B00",
"6. c #06A300",
"7. c #00A900",
"8. c #01B400",
"9. c #01BC00",
"0. c #01C500",
"q. c #00CB00",
"w. c #00D500",
"e. c #00DB00",
"r. c #00E300",
"t. c #00E400",
"y. c #00E800",
"u. c #00EB00",
"i. c #00EE00",
"p. c #00EF00",
"a. c #00F100",
"s. c #00F400",
"d. c #00F600",
"f. c #00F900",
"g. c #00FA00",
"h. c #00FB00",
"j. c #00FC00",
"k. c #00FD00",
"l. c #00FE00",
"z. c green",
/* pixels */
"                                                                                                    ",
"                  % & %                                                                             ",
"                  Z q.8.4.S 6                                                                       ",
"                  C a.z.z.h.e.5.C                                                                   ",
"                  4 q.z.h.z.z.z.i.4.6                                                               ",
"                    3.z.i.0.h.z.z.z.0.8         X # .                                               ",
"                    8 r.z.w.9.h.z.z.z.w.C     . 1 c 1 .                                             ",
"                      2.z.z.e.9.i.z.z.z.7.&   X b O.+.@                                             ",
"                      & 7.z.z.y.9.t.z.a.8.S     b @.@.#                                             ",
"                      . 5 9.z.z.a.9.w.h.q.4.7 . c +.+.@     * , d f s 2 -                           ",
"                  O : r h i 6.h.z.h.q.0.a.0.F @ x +.m w l T ^ _ | *.:.;.$.W N ;                     ",
"                w U ~ L J l y G w.z.z.e.8.e.7.9 a O.n ~ ' ' ' ' ' '  .=.<.<.<.%.B $                 ",
"              r / ' ' ( P J l h x H 0.s.a.0.8.A x o.p ( ' ' ' ' ' ' ' '  .X.<.1.<.#.3               ",
"            r ( ' ' ' ' ` ~ P K l g u q H 5.2.8 c b e ( ' ' ' ' ' ' ' ' ' ]  .>.1.1.%.s             ",
"          * ~ ' ' ' ' ' ' ' ` ( ~ T U P L K z r j z ~ ' ' ' ' ' ' ' ' ' ' ' ' [ -.<.<.$.2           ",
"          h ` ' ' ' ' ' ' ' ' ' ' ' ' ` ` ' ' ' ' ' ' ' ' ' ' ' ' ' ' ' ' ' ' ' ] -.1.1.Q #         ",
"        * I ' ' ' ' ' ' ' ' ' ' ' ' ' ' ' ' ' ' ' ' ' ' ' ' ' ' ' ' ' ' ' ' ' ' ' [ -.<.<.N         ",
"        e ! ' ' ' ' ' ' ' ' ' ' ' ' ' ' ' ' ' ' ' ' ' ' ' ' ' ' ' ' ' ' ' ' ' ' ' ' { <.<.$.-       ",
"      + h ~ ' ' ' ' ' ' ' ' ' ' ' ' ' ' ' ' ' ' ' ' ' ' ' ' ' ' ' ' ' ' ' ' ' ' ' ' ' X.<.<.M       ",
"      : l ^ ' ' ' ' ' ' ' ' ' ' ' ' ' ' ' ' ' ' ' ' ' ' ' ' ' ' ' ' ' ' ' ' ' ' ' ' ' ] >.1.W       ",
"      e J ^ ' ' ' ' ' ' ' ' ' ' ' ' ' ' ' ' ' ' ' ' ' ' ' ' ' ' ' ' ' ' ' ' ' ' ' ' ' ' X.<.&.;     ",
"      r J ^ ' ' ' ' ' ' ' ' ' ' ' ' ' ' ' ' ' ' ' ' ' ' ' ' ' ' ' ' ' ' ' ' ' ' ' ' ' ' ] <.,.f     ",
"    O g J ^ ' ' ' ' ' ' ' ' ' ' ' ' ' ' ' ' ' ' ' ' ' ' ' ' ' ' ' ' ' ' ' ' ' ' ' ' ' ' ' -.<.N     ",
"    O h l ~ ' ' ' ' ' ' ' ' ' ' ' ' ' ' ' ' ' ' ' ' ' ' ' ' ' ' ' ' ' ' ' ' ' ' ' ' ' ' '  .<.V     ",
"    + h l R ' ' ' ' ' ' ' ' ' ' ' ' ' ' ' ' ' ' ' ' ' ' ' ' ' ' ' ' ' ' ' ' ' ' ' ' ' ' ' { <.E     ",
"    O h l U ' ' ' ' ' ' ' ' ' ' ' ' ' ' ' ' ' ' ' ' ' ' ' ' ' ' ' ' ' ' ' ' ' ' ' ' ' ' ' ] >.V     ",
"    O g l L ` ' ' ' ' ' ' ' ' ' ' ' ' ' ' ' ' ' ' ' ' ' ' ' ' ' ' ' ' ' ' ' ' ' ' ' ' ' ' ] -.B     ",
"      g l K ( ' ' ' ' ' ' ' ' ' ' ' ' ' ' ' ' ' ' ' ' ' ' ' ' ' ' ' ' ' ' ' ' ' ' ' ' ' ' ' =.M     ",
"      r l l ~ ' ' ' ' ' ' ' ' ' ' ' ' ' ' ' ' ' ' ' ' ' ' ' ' ' ' ' ' ' ' ' ' ' ' ' ' ' ' ' ..d     ",
"      w l l U ` ' ' ' ' ' ' ' ' ' ' ' ' ' ' ' ' ' ' ' ' ' ' ' ' ' ' ' ' ' ' ' ' ' ' ' ' ' ' } -     ",
"      = l l K ( ' ' ' ' ' ' ' ' ' ' ' ' ' ' ' ' ' ' ' ' ' ' ' ' ' ' ' ' ' ' ' ' ' ' ' ' ' ' Y       ",
"      O h J l ! ' ' ' ' ' ' ' ' ' ' ' ' ' ' ' ' ' ' ' ' ' ' ' ' ' ' ' ' ' ' ' ' ' ' ' ' ' ' h       ",
"        r J l L ` ' ' ' ' ' ' ' ' ' ' ' ' ' ' ' ' ' ' ' ' ' ' ' ' ' ' ' ' ' ' ' ' ' ' ' ' ( :       ",
"        > l l l ! ' ' ' ' ' ' ' ' ' ' ' ' ' ' ' ' ' ' ' ' ' ' ' ' ' ' ' ' ' ' ' ' ' ' ' ' I         ",
"        + k l l L ) ' ' ' ' ' ' ' ' ' ' ' ' ' ' ' ' ' ' ' ' ' ' ' ' ' ' ' ' ' ' ' ' ' ' ` t         ",
"          e J l l R ' ' ' ' ' ' ' ' ' ' ' ' ' ' ' ' ' ' ' ' ' ' ' ' ' ' ' ' ' ' ' ' ' ' ! +         ",
"          = l l l K / ' ' ' ' ' ' ' ' ' ' ' ' ' ' ' ' ' ' ' ' ' ' ' ' ' ' ' ' ' ' ' ' ' h           ",
"            t J l l L ) ' ' ' ' ' ' ' ' ' ' ' ' ' ' ' ' ' ' ' ' ' ' ' ' ' ' ' ' ' ' ' R +           ",
"            = l l l l U ` ' ' ' ' ' ' ' ' ' ' ' ' ' ' ' ' ' ' ' ' ' ' ' ' ' ' ' ' ' ` r             ",
"              r J l l J T ` ' ' ' ' ' ' ' ' ' ' ' ' ' ' ' ' ' ' ' ' ' ' ' ' ' ' ' ' L               ",
"              * h J l l J T ` ' ' ' ' ' ' ' ' ' ' ' ' ' ' ' ' ' ' ' ' ' ' ' ' ' ' ! *               ",
"                : l J l l l U ) ' ' ' ' ' ' ' ' ' ' ' ' ' ' ' ' ' ' ' ' ' ' ' ' / w                 ",
"                  w l J l l l P ^ ' ' ' ' ' ' ' ' ' ' ' ' ' ' ' ' ' ' ' ' ' ' / r                   ",
"                  X e l J J l l K T ) ' ' ' ' ' ' ' ' ' ' ' ' ' ' ' ' ' ' ' ^ r                     ",
"                    X w k J J l l l K R ( ` ` ` ` ' ' ' ' ' ' ' ' ' ' ' ` U >                       ",
"                        = t l J J J J k h h g r t h P ^ ` ' ' ' ' ' ` R h O                         ",
"                          X * > e e w = X             * r J P I L l e +                             ",
"                                                                                                    ",
"                                                                                                    ",
"                                                                                                    "
};
