/* XPM */
static char *_1a8a1d20ad949f3c67efa89b60d65bb3vaavLWIB6W0zhmO[] = {
/* columns rows colors chars-per-pixel */
"70 70 209 2 ",
"   c #3C2212",
".  c #3B241A",
"X  c #2E231B",
"o  c #2A2A2C",
"O  c #3A2A2E",
"+  c #392B25",
"@  c #3A2B32",
"#  c #322D39",
"$  c #2F3030",
"%  c #383738",
"&  c #35302D",
"*  c #432413",
"=  c #4C2A15",
"-  c #4D2D1A",
";  c #462918",
":  c #532D16",
">  c #5A2E17",
",  c #532E1A",
"<  c #5B2E18",
"1  c #56301A",
"2  c #5B3219",
"3  c #593017",
"4  c #62361B",
"5  c #6C361D",
"6  c #65381C",
"7  c #6B391D",
"8  c #733B1E",
"9  c #75381C",
"0  c #432E24",
"q  c #4A3326",
"w  c #593622",
"e  c #5C3822",
"r  c #5D3C2A",
"t  c #543726",
"y  c #443B39",
"u  c #653A22",
"i  c #6B3E22",
"p  c #623F2A",
"a  c #723F22",
"s  c #7A3E22",
"d  c #564236",
"f  c #6E4024",
"g  c #63412C",
"h  c #6D442D",
"j  c #754122",
"k  c #7B4323",
"l  c #72442B",
"z  c #7A4628",
"x  c #7D492A",
"c  c #76482E",
"v  c #66433E",
"b  c #6B453D",
"n  c #6B4834",
"m  c #744C34",
"M  c #7B4E33",
"N  c #71483E",
"B  c #7D5239",
"V  c #2E3043",
"C  c #363141",
"Z  c #3D3E67",
"A  c #403E42",
"S  c #3E416F",
"D  c #3D4373",
"F  c #3E467E",
"G  c #4D4E4E",
"H  c #494545",
"J  c #5B4949",
"K  c #58524E",
"L  c #40435C",
"P  c #474955",
"I  c #50445E",
"U  c #545454",
"Y  c #58575A",
"T  c #5C5B5B",
"R  c #5A5551",
"E  c #684847",
"W  c #724A40",
"Q  c #695448",
"!  c #655C58",
"~  c #765B53",
"^  c #6A625E",
"/  c #7A6153",
"(  c #70665F",
")  c #4B4865",
"_  c #4D5168",
"`  c #53566A",
"'  c #41467B",
"]  c #42497D",
"[  c #404776",
"{  c #585C73",
"}  c #4E527C",
"|  c #5D6178",
" . c #686462",
".. c #6C6C6C",
"X. c #646464",
"o. c #746E6A",
"O. c #736760",
"+. c #75706D",
"@. c #7B716B",
"#. c #64677B",
"$. c #64687E",
"%. c #6A6C7C",
"&. c #6E707F",
"*. c #747372",
"=. c #7C7674",
"-. c #7B7C7C",
";. c #7F787A",
":. c #824624",
">. c #854927",
",. c #8B4B27",
"<. c #844B2A",
"1. c #8C4D2A",
"2. c #884724",
"3. c #8F522E",
"4. c #93532D",
"5. c #9C592F",
"6. c #9C562C",
"7. c #884F32",
"8. c #855133",
"9. c #83543B",
"0. c #8B5637",
"q. c #935531",
"w. c #965833",
"e. c #9D5B32",
"r. c #965A37",
"t. c #924F28",
"y. c #A35E32",
"u. c #9A633F",
"i. c #A36033",
"p. c #A96335",
"a. c #AA6539",
"s. c #AE693C",
"d. c #A7673D",
"f. c #8D5D41",
"g. c #895740",
"h. c #925E43",
"j. c #8F6045",
"k. c #956243",
"l. c #9D6948",
"z. c #846757",
"x. c #A66A44",
"c. c #AC734D",
"v. c #896F60",
"b. c #86746B",
"n. c #967A69",
"m. c #967868",
"M. c #827E7C",
"N. c #847872",
"B. c #87817D",
"V. c #94857D",
"C. c #A1826D",
"Z. c #AA8E7E",
"A. c #A58876",
"S. c #4C5383",
"D. c #535883",
"F. c #656980",
"G. c #686C83",
"H. c #6F7387",
"J. c #727587",
"K. c #767A91",
"L. c #7A7D91",
"P. c #7F8087",
"I. c #7D8092",
"U. c #838282",
"Y. c #8B8886",
"T. c #988D88",
"R. c #9B928D",
"E. c #96918D",
"W. c #838699",
"Q. c #959493",
"!. c #999593",
"~. c #9B9C9C",
"^. c #9B9999",
"/. c #A3958D",
"(. c #AC9C92",
"). c #A29994",
"_. c #B19F94",
"`. c #B69682",
"'. c #A4A09E",
"]. c #B5A397",
"[. c #8B8FA2",
"{. c #8689A1",
"}. c #8E90A3",
"|. c #9C9FB1",
" X c #989BAE",
".X c #9FA0A0",
"XX c #9FA2B5",
"oX c #A1A1A2",
"OX c #ABA6A3",
"+X c #AEAAA7",
"@X c #ADACAB",
"#X c #A7A9A9",
"$X c #B3AEAB",
"%X c #BCACA4",
"&X c #BAB1AC",
"*X c #B7B0AC",
"=X c #AFB0B0",
"-X c #B2B3B4",
";X c #B9B8B8",
":X c #C0AFA6",
">X c #C1BCB9",
",X c #C5B3A8",
"<X c #C6C1BD",
"1X c #C5C6C6",
"2X c #CAC6C3",
"3X c #CDCDCD",
"4X c #CECFD0",
"5X c #CFD0D1",
"6X c #D0D0D1",
/* pixels */
"F F F F F F F F F F F F F F F F F F F F F F F F F F F F F F F F F F F F F F F F F F F F F F F F F F F F F F F F F F F F F F F F F F F F F F ",
"F F F F F F F F F F F F F F F F F F F F F F F F F F F F F F F F F F F F F F F F F F F F F F F F F F F F F F F F F F F F F F F F F F F F F F ",
"F F F F F F F F F F F F F F F F F F F F F F F F F F F F F F F F F F F F F F F F F F F F F F F F F F F F F F F F F F F F F F F F F F F F F F ",
"F F F F F F F F F F F F F F F F F F F F F F F F F F F F F F F F F F F F F F F F F F F F F F F F F F F F F F F F F F F F F F F F F F F F F F ",
"F F F F F F F F F F F F F F F F F F F F F F F F F F F F F F F F F F F F F F F F F F F F F F F F F F F F F F F F F F F F F F F F F F F F F F ",
"F F F F F F F F F F F F F F F F F F F F F F F F F F F F F F F F F F F F F F F F F F F F F F F F F F F F F F F F F F F F F F F F F F F F F F ",
"F F F F F F F F F F F F F F F F F F F F F F F F F F F F F F F F F F F F F F F F F F F F F F F F F F F F F F F F F F F F F F F F F F F F F F ",
"F F F F F F F F F F F F F F F F F F F F F F F F F F F F F F F F F F F F F F F F F F F F F F F F F F F F F F F F F F F F F F F F F F F F F F ",
"F F F F F F F F F F F F F F F F F F F F F F F F F F F F F F F F F F F F F F F F F F F F F F F F F F F F F F F F F F F F F F F F F F F F F F ",
"F F F F F F F F F F F F F F F F F F F F F F F F F F F F F F F F F F F F F F F F F F F F F F F F F F F F F F F F F F F F F F F F F F F F F F ",
"F F F F F F F F F F F F F F F F F F F F F F F F F F F F F F F F F F F F F F F F F F F F F F F F F F F F F F F F F F F F F F F F F F F F F F ",
"F F F F F F F F F F F F F F F F F F F F F F F F F F F F F F F F F F F F F F F F F ] F F F F F F F F F F F F F F F F F F F F F F F F F F F F ",
"F F F F F F F F F F F F F F F F F F F F F F F F F F F F F F F F F F F F F F F F F F F F F F F F F F F F F F F F F F F F F F F F F F F F F F ",
"F F F F F F F F F F F F F F F F F F F F F F F F F F F F F F F F F F F F F F F F F F F F F F F F F F F F F F F F F F F F F F F F F F F F F F ",
"F F F F F F F F F F F F F F F F F F F F F F F F F F F F F F F F F F F F F F F F F F F F F F F F F F F F F F F F F F F F F F F F F F F F F F ",
"F F F F F F F F F F F F F F F F F F F F F F F F F F F F F F F F F F F F F F F F F F F F F F F F F F F F F F F F F F F F F F F F F F F F F F ",
"F F F F F F F F F F F F F F F F F F F F S.K.L.L.{.}.XXXX|. X}.}.[.[.Q.W.W.L.I.L.P.&.H.&.%.| | X.{ ` _ F F F F F F F F F F F F F F F F F F F ",
"F F F F F F F F F F F F F F F F F F F F D.Q.!.Q.).$X>X2X<X;X+X+X$X+X#X^.!.!.Q.Q.Y.U.B.M.*.*.*.( T T T ] F F F F F F F F F F F F F F F F F F ",
"F F F F F F F F F F F F F F F F F F F F ) m m m m h 9.f.x.l.k.0.9.9.9.B M m h r d g g g g g - q q ; + [ F F F F F F F F F F F F F F F F F F ",
"F F F F F F F F F F F F F F F F F F F S.I a a 8 5 4 k ,.w.5.4.:.9 s k j 8 7 4 : 3 2 2 2 3 = * = = * . Z D F F F F F F F F F F F F F F F F F ",
"F F F F F F F F F F F F F F F F F F F E l j k j 8 5 1.5.y.y.5.:.5 k :.k k j 7 > 2 4 4 4 6 3 = = - *   . % ' F F F F F F F F F F F F F F F F ",
"F F F F F F F F F F F F F F F F F F F v k k k k 8 9 4.5.i.y.5.:.5 :.2.>.:.j 7 > 4 6 6 4 4 2 = = 1 = *   @ F F F F F F F F F F F F F F F F F ",
"F F F F F F F F F F F F F F F F F F ' v k k k >.s 5 1.e.i.y.e.:.5 k >.1.1.j 7 3 6 8 6 4 4 3 = : 4 1 -   @ ' F F F F F F F F F F F F F F F F ",
"F F F F F F F F F F F F F F F F F F F v j k k >.s 5 t.y.i.y.6.:.5 k >.4.,.j 7 3 6 a 6 6 2 3 = : 4 1 -   @ ' F F F F F F F F F F F F F F F F ",
"F F F F F F F F F F F F F F F F F F F v k k k >.8 5 t.5.y.y.y.:.5 :.,.1.1.s u < 7 j 6 6 2 2 = : 4 1 -   O F F F F F F F F F F F F F F F F F ",
"F F F F F F F F F F F F F F F F F F F v k k k ,.:.9 4.y.p.p.y.2.9 :.,.4.3.s 5 < 7 j 6 6 6 2 = : 6 3 ,   @ F F F F F F F F F F F F F F F F F ",
"F F F F F F F F F F F F F F F F F S.D.~ g.j.h.l.f.g.x.c.c.c.c.h.7.g.h.k.h.9.M m m B m n c g g g h r t ; % [ F F F F F F F F F F F F F F F F ",
"F F F F F F F F F F F F F F F F S.L.^.OX;X2X2X2X2X2X&X$X$X$X$X$X@X@X$X).!.!.!.Q.!.!.Y.B.B.M.*.*.+.X.T T Y U I F F F F F F F F F F F F F F F ",
"F F F F F F F F F F F F F F F F F L.Q.#X-X3X4X3X4X4X;X-X=X=X=X=X=X=X@X^.!.!.!.Q.!.Q.B.P.U.-.......X.Y U G H P F F F F F F F F F F F F F F F ",
"F F F F F F F F F F F F F F F F F %.-.Q.#X1X1X1X1X1X@X)..X~.oXoX.X.X^.B.-.-.-.J.-.-.X.X.X.T G G G % % $ $ o V F F F F F F F F F F F F F F F ",
"F F F F F F F F F F F F F F F F ' ! z.v.n.Z.Z.A.`.`.A.C.C.n.v.v.n.n.n.z.z./ / / ~ Q Q Q Q d d d d q q + + X # F F F F F F F F F F F F F F F ",
"F F F F F F F F F F F F F F F F ' b :.:.:.,.:.9 ,.y.y.p.y.6.s 2.,.3.4.t.,.k k k 9 4 j k i i 7 2 - 4 6 2 =   @ F F F F F F F F F F F F F F F ",
"F F F F F F F F F F F F F F F F ' W <.<.1.3.1.s 6.a.s.s.y.e.s >.3.q.5.4.3.x z x a 5 a z i i i 6 , 6 i 2 ,   @ F F F F F F F F F F F F F F F ",
"F F F F F F F F F F F F F F F F ' E <.<.1.q.1.s 6.a.s.s.x.y.s 1.q.e.r.3.3.x x x a i z x a i i 6 , u i e -   @ F F F F F F F F F F F F F F F ",
"F F F F F F F F F F F F F F F F ' W <.<.1.3.1.s 6.y.s.s.a.y.s 1.3.w.e.w.3.<.x x a u k x l l i u 1 u f e -   # D F F F F F F F F F F F F F F ",
"F F F F F F F F F F F F F F F F ' W <.>.7.q.1.s 6.a.x.x.y.y.s 1.q.e.r.3.3.x <.x a u z x i i i u < u i e =   O F F F F F F F F F F F F F F F ",
"F F F F F F F F F F F F F F F F ' W <.<.<.q.7.s q.x.s.s.a.y.s 1.4.w.5.q.3.<.x x a u z z f f f 6 1 u f e 1   O F F F F F F F F F F F F F F F ",
"F F F F F F F F F F F F F F F F ' W <.<.1.q.1.s 6.y.s.s.a.e.s 7.q.w.e.4.3.x x x a u z z f f f 6 1 u u e -   O F F F F F F F F F F F F F F F ",
"F F F F F F F F F F F F F F F F ' W <.<.7.q.1.s 6.a.s.s.a.e.s 1.q.r.u.4.3.<.x x j 6 z x f f f i , u a u ,   @ F F F F F F F F F F F F F F F ",
"F F F F F F F F F F F F F F F F ' W <.<.>.t.1.s 4.p.s.s.a.y.s >.3.4.q.4.3.x k x f 6 j j f f i u , u i 1 -   @ F F F F F F F F F F F F F F F ",
"F F F F F F F F F F F F F F F F ' W :.>.<.q.1.s 4.a.s.s.i.e.s >.3.q.q.4.3.x z z f 4 j k i i 6 2 : 4 i 2 - * & F F F F F F F F F F F F F F F ",
"F F F F F F F F F F F F F F F F ' J.Y./._.%X%X%X&X,X].]._.(./.(.(.(.(.T.V.V.V.V.V.B.N.N.N.+.( ( ^ ! R R K H C F F F F F F F F F F F F F F F ",
"F F F F F F F F F F F F F F F F ' I.).@X>X4X4X4X5X5X;X-X-X-X-X-X-X-X*X~.^.^.~.~.^.^.Y.Y.P.P.*.*.*.X.T T Y G L D F F F F F F F F F F F F F F ",
"F F F F F F F F F F F F F F F F ' H.U.!.#X1X1X1X1X1X@X'.oXoXoXoXoX.X.XU.B.B.J.U.P.-.......X.U U U d % % % o V F F F F F F F F F F F F F F F ",
"F F F F F F F F F F F F F F F F S.{ %.Y.^.&X&X&X&X$X)././.R.R.R.E.T.T.N.@.@.o.o.+.+.^ R T R H d H % & $ o o V F F F F F F F F F F F F F F F ",
"F F F F F F F F F F F F F F F F F F ' E 7.9.0.r.7.<.r.x.x.d.d.q.z 8.0.q.0.x a u f z f f f 6 - 2 g , ,   @ Z F F F F F F F F F F F F F F F F ",
"F F F F F F F F F F F F F F F F F F F b k k :.>.s 9 t.y.p.p.y.2.9 :.,.4.4.k 7 4 7 j 7 6 6 2 = 2 6 2 -   O F F F F F F F F F F F F F F F F F ",
"F F F F F F F F F F F F F F F F F F ' v k k k ,.8 9 4.y.i.y.5.:.5 k 2.4.1.j 7 < 7 a 6 4 2 2 = 3 6 2 -   O F F F F F F F F F F F F F F F F F ",
"F F F F F F F F F F F F F F F F F F F b s s k >.k 5 t.y.i.y.5.:.5 k >.1.1.j 5 < 6 j 6 2 2 3 = : 2 1 =   O D F F F F F F F F F F F F F F F F ",
"F F F F F F F F F F F F F F F F F F F E s s k >.s 5 ,.y.i.y.5.:.5 k 1.3.1.j 7 < 6 j 6 6 4 3 = 3 6 2 -   O F F F F F F F F F F F F F F F F F ",
"F F F F F F F F F F F F F F F F F F F W s s z k 9 5 3.y.i.i.5.:.5 :.>.>.:.j 7 < 4 7 6 4 6 2 * : 2 = *   & F F F F F F F F F F F F F F F F F ",
"F F F F F F F F F F F F F F F F F F F A c s a j 8 5 ,.4.e.y.5.:.9 s :.k j a 4 > 2 2 4 4 2 2 = = - *   + % F F F F F F F F F F F F F F F F F ",
"F F F F F F F F F F F F F F F F F F F F ) i 7 a 4 > a :.q.6.3.:.9 s k j a 7 4 : 3 2 2 2 2 : * ; ;   . S D F F F F F F F F F F F F F F F F F ",
"F F F F F F F F F F F F F F F F F F F F ) l l h p u M 0.u.k.r.7.x M M c l h f t 2 e e e w 1 ; - - ; + S F F F F F F F F F F F F F F F F F F ",
"F F F F F F F F F F F F F F F F F F F Z } =.*.=.Y.E.OX*X$XOXR.R.R.R.T.M.;.=.=.=.o.X. .^ R U G G y y A D F F F F F F F F F F F F F F F F F F ",
"F F F F F F F F F F F F F F F F F F F S.] F.F.F.H.K.{.[.{.W.K.K.K.K.K.G.F.$.$.$.| { { { _ _ _ ) L L L F F F F F F F F F F F F F F F F F F F ",
"F F F F F F F F F F F F F F F F F F F F F F F F F F F F F F F F F F F F F F F F F F F F F F F F F F F F F F F F F F F F F F F F F F F F F F ",
"F F F F F F F F F F F F F F F F F F F F F F F F F F F F F F F F F F F F F F F F F F F F F F F F F F F F F F F F F F F F F F F F F F F F F F ",
"F F F F F F F F F F F F F F F F F F F F F F F F F F F F F F F F F F F F F F F F F F F F F F F F F F F F F F F F F F F F F F F F F F F F F F ",
"F F F F F F F F F F F F F F F F F F F F F F F F F F F F F F F F F F F F F F F F F F F F F F F F F F F F F F F F F F F F F F F F F F F F F F ",
"F F F F F F F F F F F F F F F F F F F F F F F F F F F F F F F F F F F F F F F F F F F F F F F F F F F F F F F F F F F F F F F F F F F F F F ",
"F F F F F F F F F F F F F F F F F F F F F F F F F F F F F F F F F F F F F F F F F F F F F F F F F F F F F F F F F F F F F F F F F F F F F F ",
"F F F F F F F F F F F F F F F F F F S.F F F F F F F F F F F F F F F F F F F F F F F F F F F F F F F F F F F F F F F F F F F F F F F F F F F ",
"F F F F F F F F F F F F F F F F F F F F F F F F F F F F F F F F F F F F F F F F F F F F F F F F F F F F F F F F F F F F F F F F F F F F F F ",
"F F F F F F F F F F F F F F F F F F F F F F F F F F F F F F F F F F F F F F F F F F F F F F F F F F F F F F F F F F F F F F F F F F F F F F ",
"F F F F F F F F F F F F F F F F F F F F F F F F F F F F F F F F F F F F F F F F F F F F F F F F F F F F F F F F F F F F F F F F F F F F F F ",
"F F F F F F F F F F F F F F F F F F F F F F F F F F F F F F F F F F F F F F F F F F F F F F F F F F F F F F F F F F F F F F F F F F F F F F ",
"F F F F F F F F F F F F F F F F F F F F F F F F F F F F F F F F F F F F F F F F F F F F F F F F F F F F F F F F F F F F F F F F F F F F F F ",
"F F F F F F F F F F F F F F F F F F F F F F F F F F F F F F F F F F F F F F F F F F F F F F F F F F F F F F F F F F F F F F F F F F F F F F ",
"F F F F F F F F F F F F F F F F F F F F F F F F F F F F F F F F F F F F F F F F F F F F F F F F F F F F F F F F F F F F F F F F F F F F F F "
};
