/* XPM */
static char *b0ac36086a304c41d0e73c2960230da7dGeZKZbs8lVEDZId[] = {
/* columns rows colors chars-per-pixel */
"70 70 234 2 ",
"   c #1A1519",
".  c #39190B",
"X  c #231616",
"o  c #32231E",
"O  c #2F201C",
"+  c #1E1F2A",
"@  c #221E31",
"#  c #382B2A",
"$  c #2A2937",
"%  c #352B36",
"&  c #3B3439",
"*  c #292A2D",
"=  c #451F10",
"-  c #4B210E",
";  c #4C2614",
":  c #5A2A13",
">  c #5D3018",
",  c #652E13",
"<  c #6A3619",
"1  c #773717",
"2  c #422C26",
"3  c #45322B",
"4  c #4C342B",
"5  c #473736",
"6  c #523B37",
"7  c #58382B",
"8  c #673C28",
"9  c #723E24",
"0  c #49443C",
"q  c #594339",
"w  c #7C4425",
"e  c #654638",
"r  c #754937",
"t  c #6B422E",
"y  c #172546",
"u  c #272642",
"i  c #2F314D",
"p  c #353447",
"a  c #2B2F53",
"s  c #2E3255",
"d  c #2F345F",
"f  c #353859",
"g  c #322E41",
"h  c #1A2E70",
"j  c #3A3D63",
"k  c #363B68",
"l  c #20317E",
"z  c #473E49",
"x  c #543C45",
"c  c #443F50",
"v  c #394550",
"b  c #3B416C",
"n  c #3B4165",
"m  c #3C4375",
"M  c #3E467E",
"N  c #4D4745",
"B  c #564746",
"V  c #5E534D",
"C  c #575746",
"Z  c #474659",
"A  c #595556",
"S  c #534754",
"D  c #664D43",
"F  c #684C40",
"G  c #6A5348",
"H  c #715243",
"J  c #745A4C",
"K  c #655855",
"L  c #745C51",
"P  c #67645B",
"I  c #7A665A",
"U  c #454A6C",
"Y  c #464A63",
"T  c #565666",
"R  c #40477C",
"E  c #444B7C",
"W  c #464B76",
"Q  c #4D5276",
"!  c #545776",
"~  c #635C65",
"^  c #6B6664",
"/  c #756B67",
"(  c #797469",
")  c #666676",
"_  c #726E72",
"`  c #737274",
"'  c #7A7777",
"]  c #50774D",
"[  c #8A3D17",
"{  c #8A431A",
"}  c #85411A",
"|  c #96461B",
" . c #A84D1D",
".. c #AD531F",
"X. c #995123",
"o. c #965B37",
"O. c #8B4F2D",
"+. c #A45322",
"@. c #AE5927",
"#. c #B45823",
"$. c #A85C33",
"%. c #B06635",
"&. c #A76E2E",
"*. c #C45D24",
"=. c #C56429",
"-. c #D76928",
";. c #CD7234",
":. c #EA752C",
">. c #F6762C",
",. c #F5792E",
"<. c #F7772A",
"1. c #F37C31",
"2. c #F07228",
"3. c #855B47",
"4. c #825F58",
"5. c #876656",
"6. c #946A54",
"7. c #98725C",
"8. c #91674D",
"9. c #A4745A",
"0. c #AB7549",
"q. c #887769",
"w. c #957765",
"e. c #857C73",
"r. c #837D7B",
"t. c #826F68",
"y. c #A67B66",
"u. c #C47E58",
"i. c #6D875C",
"p. c #B59F29",
"a. c #F98232",
"s. c #EA8239",
"d. c #898579",
"f. c #95867A",
"g. c #95876D",
"h. c #B6846C",
"j. c #A78B79",
"k. c #A8957E",
"l. c #B4907D",
"z. c #B38872",
"x. c #9FBB7C",
"c. c #A3A06C",
"v. c #C78452",
"b. c #D28853",
"n. c #F58A43",
"m. c #F8964D",
"M. c #F9A058",
"N. c #C28C68",
"B. c #C8977C",
"V. c #D9987B",
"C. c #CA9271",
"Z. c #C0A07C",
"A. c #F5AB72",
"S. c #D6A35C",
"D. c #A2CF77",
"F. c #0C2981",
"G. c #1F449E",
"H. c #36528D",
"J. c #2B55B1",
"K. c #3461B1",
"L. c #424A81",
"P. c #4B5384",
"I. c #575C8B",
"U. c #5B628C",
"Y. c #696F8D",
"T. c #4C78B8",
"R. c #2960DA",
"E. c #887D8B",
"W. c #7F839B",
"Q. c #5A88BA",
"!. c #5E94CF",
"~. c #658ECE",
"^. c #78A6D7",
"/. c #8B8884",
"(. c #978B83",
"). c #9C938B",
"_. c #9D9184",
"`. c #828595",
"'. c #949396",
"]. c #A69787",
"[. c #A59D91",
"{. c #B59783",
"}. c #BBA68C",
"|. c #A9A297",
" X c #B7A898",
".X c #B4B082",
"XX c #BAADA2",
"oX c #B4AFAC",
"OX c #CC9E86",
"+X c #E19E81",
"@X c #C6A98E",
"#X c #DCA286",
"$X c #C5AA96",
"%X c #D6AB93",
"&X c #CCB49C",
"*X c #D9B59A",
"=X c #CCB68B",
"-X c #E6A689",
";X c #E8B599",
":X c #F2B592",
">X c #CAB8A7",
",X c #D1BFAB",
"<X c #C7BBB0",
"1X c #EFBEA3",
"2X c #B8C98A",
"3X c #CDCC9A",
"4X c #FAC990",
"5X c #D6C1AE",
"6X c #DDCCBB",
"7X c #DAC8B5",
"8X c #C5C1BA",
"9X c #E8C1A9",
"0X c #F3C3A8",
"qX c #E4CCB8",
"wX c #F8CEB4",
"eX c #EED2BC",
"rX c #E9D2BB",
"tX c #F3D4BC",
"yX c #FBD5BC",
"uX c #FAD4BA",
"iX c #FBD8AA",
"pX c #ECEFAC",
"aX c #CFEFA1",
"sX c #D8CEC3",
"dX c #E9D9C6",
"fX c #FED7C0",
"gX c #FDDBC3",
"hX c #FCDFC9",
"jX c #F3DAC5",
"kX c #FDE2CB",
"lX c #FAE3CA",
"zX c #FDEAD3",
"xX c #F9E5D2",
"cX c #E0E2C8",
/* pixels */
"M M M M M M M M M M M M M M M M M M M M M M M M M M M M M M M M M M H.M M M M M M M M M M M M M M M M M M M M M M M M M M M M M M M M M M M ",
"M M M M M M M M M M M M M M M M M M M M M M M M M M M M M M M M M b T T K t.d.P S U m M M M M M M M M M M M M M M M M M M M M M M M M M M M ",
"M M M M M M M M M M M M M M M M M M M M M M M M M M M M M M M n A g.b.v.V.%.1.s.A.}.~ k M M M M M M M M M M M M M M M M M M M M M M M M M M ",
"M M M M M M M M M M M M M M M M M M M M M M M M M M M M M E Z @Xa.<.<.,.<.,.<.,.<.2.n.].T M M M M M M M M M M M M M M M M M M M M M M M M M ",
"M M M M M M M M M M M M M M M M M M M M M M M M M M M M E A ;X<.>.>.,.>.<.,.<.,.>.>.,.@.B.c M H.M M M M M M M M M M M M M M M M M M M M M M ",
"M M M M M M M M M M M M M M M M M M M M M M M M M M M M Z 5X<.<.>.:.*.<.<.<.>.>.>.,.,.1.+.$XT k M M M M M M M M M M M M M M M M M M M M M M ",
"M M M M M M M M M M M M M M M M M M M M M M M M M M M f $Xa.,.,.1.| -.<.>.>.>.>.>.-.*.>.>.1.].k M M M M M M M M M M M M M M M M M M M M M M ",
"M M M M M M M M M M M M M M M M M M M M M M M M M M m ` 4XA.n.:.-.1 1.>.>.,.>.>.,.:.1 M.>.,.A.K E M M M M M M M M M M M M M M M M M M M M M ",
"M M M M M M M M M M M M M M M M M M M M M M M M M M S 3X4XiXm.7.o.;.,.-.,. .:.<.<.%.O.8.C.A.b.=Xn M M M M M M M M M M M M M M M M M M M M M ",
"M M M M M M M M M M M M M M M M M M M M M M M M M R ` A.m.s.v.[.7.4X;.X.+.#.m.2.n.0.$.9.d.4XS.0.A M M M M M M M M M M M M M M M M M M M M M ",
"M M M M M M M M M M M M M M M M M M M M M M M M M M f.s.a.2.r 0.h.A.} X.| v.4XV.v.q o.@Xo.s.a.w %.M M M M M M M M M M M M M M M M M M M M M ",
"M M M M M M M M M M M M M M M M M M M M M M M M M M g.%.-.:.1 @.:.&.w 1 X.v.m.7.X.6.{ dX{ { a.: #.f M M M M M M M M M M M M M M M M M M M M ",
"M R R k M M M M M M M M M M M M M M M M M M M M M M d.#.-.*.< +.a.w | { X.s.;.w o.z.o.zXw > a.1 #.& M M M M M M M M M M M M M M M M M M M M ",
"H.R L.L.M M M M M M M M M M M M M M M M M M M M M M /.%. .[ < +.a., , { #.=.r X.XX3.w.kXq t :., #.; m M M M M M M M M M M M M M M M M M M M ",
"M M H.M M M M M M M M M M M M M M M M M M M M M M M T b.[ [ 9 +.-.. , , #.J 8.k.zX4  XjX6 3.-.- | $ $ M M M M M M M M M M M M M M M M M M M ",
"M M M M M M M M M M M M M M M M M M M M M M M M M M Z v., [ ; +.-.. 7 < r ].K lX7X#  X@X3 y. .- 1 Q k M M M M M M M M M M M M M M M M M M M ",
"M M M M M M M M M M M M M M M M M M M M M M M M M M W O.} , . | #.4 G 3 6.J 7XgX(.(.j.K 3 y.[ 1 3 M M M M M M M M M M M M M M M M M M M M M ",
"M M M M M M M M M M M M M M M M M M M M M M M M M M M g O.~ B 1  .r G   A 6 tXtX(.<X* N 5 5.= | k M M M M M M M M M M M M M M M M M M M M M ",
"M M M M M M M M M M M M M M M M M M b / N m M M M M R R 2 w.8 > ..4 oXo # V jXgXjXjX_ X ].3 3 5 M M M M M M M M M M M M M M M M M M M M M M ",
"M M M M M M M M M M M M M M M M M M L iXb.q.~ x s M M M $ &X6.7 [ t 6X( 0 8XyXgX}.dXXXL OXA B m M M M M M M M M M M M M M M M M M M M M M M ",
"M M M M M M M M M M M M M M M M M M G iXV.=Xx.;.9 k L.M x K j.r 1 8 <X,X,XeXyXgX].jXtXtX5.r.U M M M M M M M M M M M M M M M M M M M M M M M ",
"M M M M M M M M M M M M M M M M M M z u.a.S.p.=.; E H.M w 4 V 5 < [ |.gXgXyXgXtX].&XgXuX3 j M M M M M M M M M M M M M M M M M M M M M M M M ",
"M M M M M M M M M M M M M M M M M M v i.* v C i.V k M d u k A 8 .  .d.gXtX5X7X6X6XgXhXq.U R M M M M M M M M M M M M M M M M M M M M M M M M ",
"M M M M M M M M M M M M M M M M M M S pXx.aX2XD.P k M H.L.L.7  .. [ 0 sXlX>X[._.XXtXt.Y M M M M M M M M M M M M M M M M M M M M M M M M M M ",
"M M M M M M M M M M M M M M M M M M p cX3XaX2Xx.0 n m H.M M $.{ : , 4 6 ].qX,X&X X# S U L.H.M M M M M M M M M M M M M M M M M M M M M M M M ",
"M M M M M M M M M M M M M M M M M M A |.c.2X2Xi.# U M M M M f & 3 - J h.H F L c # [.6Xd.j R M M M M M M M M M M M M M M M M M M M M M M M M ",
"M M M M M M M M M M M M M M M M R R m   X # e 3.6 M M M M M b ' Y.X y.+XC.9.5.U.j.hXfXhXB H.R M M M M M M M M M M M M M M M M M M M M M M M ",
"M M M M M M M M M M M M M M M M M H.p 8X|.V Z.B i M M M M M T `.h 6 +XC.y.@XU.'.kXfXfXgX@Xj R M M M M M M M M M M M M M M M M M M M M M M M ",
"M M M M M M M M M M M M M M M M M M ) N d.( 6 |.e.U M M M E G U &XjXwXhXhXeXk ,XfX,XgXgXtXc M M M M M M M M M M M M M M M M M M M M M M M M ",
"M M M M M M M M M M M M M M M M M M Y sX&Xe.l.H oX/ M M M i l XXgXgXrXyXfX>Xk zX;XJ kXfXzX5 M M M M M M M M M M M M M M M M M M M M M M M M ",
"M M M M M M M M M M M M M M M M M M Q XXgXqX].H P _ M M k H.`.lXfX7X XgXhX' `.1X+XJ sXfXhXK M M M M M M M M M M M M M M M M M M M M M M M M ",
"M M M M M M M M M M M M M M M M M M oXS kX6X_.e e./.M M s ~.Y.rXhX[.hXkXE.Q.I.y.+X7 [.yXhXq.M M M M M M M M M M M M M M M M M M M M M M M M ",
"M M M M M M M M M M M M M M M M M M M ~ %Xe D 6 ].K d R j ~.R.E.fXq.sX) ~.~.Q.2 3.r.(.zXhXy.R R R M M M M M M M M M M M M M M M M M M M M M ",
"M M M M M M M M M M M M M M M M M M M M z o L @XlXzX' U 6 T.T.P.x # K.^.R.!.K.y l E L.dXkXy.I.k L.M M M M M M M M M M M M M M M M M M M M M ",
"M M M M M M M M M M M M M M M M M M M M L.k @ 6 uXfXlX( }.r.y % 5.5.Y J.!.K.n r Y.R P.N lXl.W R M M M M M M M M M M M M M M M M M M M M M M ",
"M M M M M M M M M M M M M M M M M M M H.L.L.M U J gXfXlXB.uXH ,XhXhX%XK B I V.H I.L.` jXgX@Xk H.M M M M M M M M M M M M M M M M M M M M M M ",
"M M M M M M M M M M M M M M M M M M M M M M M M T h.gXgX;X-X% XXyXyXfXhX;XV.V.8.` ` dXfXyXx M M M M M M M M M M M M M M M M M M M M M M M M ",
"M M M M M M M M M M M M M M M M M M M M M M M M R g h.:X-XF W ' kXgXgXfXwXV.-X9.5 ].gXhXh.d M M M M M M M M M M M M M M M M M M M M M M M M ",
"M M M M M M M M M M M M M M M M M M M M M M M M M M i 6 & k L.^ lXqX XfXwX+X+X% + zXfX;XN M M M M M M M M M M M M M M M M M M M M M M M M M ",
"M M M M M M M M M M M M M M M M M M M M M M M M M M R H.M M M j >XgX&XjXhX%XK o e.gXuXe R M M M M M M M M M M M M M M M M M M M M M M M M M ",
"M M M M M M M M M M M M M M M M M M M M M M M M M M M M M M L.k q.xXkXkX7XH @ @ 7XyX7.# R M M M M M M M M M M M M M M M M M M M M M M M M M ",
"M M M M M M M M M M M M M M M M M M M M M M M M M M M M M M L.k y Z U.T 9 G.F./ kXy./ h.U M M M M M M M M M M M M M M M M M M M M M M M M M ",
"M M M M M M M M M M M M M M M M M M M M M M M M M M M M M M M L.f g I.x K.R.n xXwX5 zXB.c M M M M M M M M M M M M M M M M M M M M M M M M M ",
"M M M M M M M M M M M M M M M M M M M M M M M M M M M M M M M R F _ 5 J.R.G.].yXfXH dXB.T M M M M M M M M M M M M M M M M M M M M M M M M M ",
"M M M M M M M M M M M M M M M M M M M M M M M M M M M M M M M R ' lXtXL h n jXgXuXH rXy.k H.M M M M M M H.m M M M M M M M M M M M M M M M M ",
"M M M M M M M M M M M M M M M M M M M M M M M M M M M M M M M M ` lXgXj.q.q.lXlX*X6.q.4.k R M M M M M M M M M M M M M M M M M M M M M M M M ",
"M M M M M M M M M M M M M M M M M M M M M M M M M M M M M M M P./.hXyXeX6 _.f./ XX3 F $ L.m M M M M M M M M M M M M M M M M M M M M M M M M ",
"M M M M M M M M M M M M M M M M M M M M M M M M M M M M M M M P._ fXfXwXI f.B ).V t.G k L.H.M M M M M M M M M M M M M M M M M M M M M M M M ",
"M M M M M M M M M M M M M M M M M M M M M M M M M M M M M M M M S eXgX9XD ' ).f.K G x M M M M M M M M M M M M M M M M M M M M M M M M M M M ",
"M M M M M M M M M M M M M M M M M M M M M M M M M M M M M M M M Z qXhX1XL dX,X^ dX5.k M M M M M M M M M M M M M M M M M M M M M M M M M M M ",
"M M M M M M M M M M M M M M M M M M M M M M M M M M M M M M M M a >XgX%X/ kXfXkX&Xg M M M M M M M M M M M M M M M M M M M M M M M M M M M M ",
"M M M M M M M M M M M M M M M M M M M M M M M M M M M M M M M M d  XfX@Xf.gXfXtXL k M M M M M M M M M M M M M M M M M M M M M M M M M M M M ",
"M M M M M M M M M M M M M M M M R R M M M M M M M M M M M M M M W ).gX{.].gXgXB.% M M M M M M M M M M M M M M M M M M M M M M M M M M M M M ",
"M M M M M M M M M M M M M M M M R H.M M M M M M M M M M M M M M R Y 6X X).hXfXOX9.z k M M L.M M M M M M M M M M M M M M M M M M M M M M M M ",
"M M M M M M M M M M M M M M M M M M M M M M M M M M M M M M M M M M K dX( ,XhXfX1XB.B P.l k L.L.M M M M M M M M M M M M M M M M M M M M M M ",
"M M M M M M M M M M M M M M M M M M M M M M M M M M M M M M M M M E Y 6XxXt.|.hXgXfX#X% L.L.L.L.M M M M M M M M M M M M M M M M M M M M M M ",
"M M M M M M M M M M M M M M M M M M M M M M M M M M M M M M M M M M Q [.gXlXf.e.jXfXuXy.Y R k L.M M M M M M M M M M M M M M M M M M M M M M ",
"M M M M M M M M M M M M M M M M M M M M M M M M M M M M M M M M M M M ^ kXgX0X4 r.rXfXwXH j L.L.M M M M M M M M M M M M M M M M M M M M M M ",
"M M M M M M M M M M M M M M M M M M M M M M M M M M M M M M M M M M M f $XgX0XD U._ 6XfX;X3.p L.M M M M M M M M M M M M M M M M M M M M M M ",
"M M M M M M M M M M M M M M M M M M M M M M M M M M M M M M M M M M M m ` kX1XG H.L./ lXhXwXh.i M M M M M M M M M M M M M M M M M M M M M M ",
"M M M M M M M M M M M M M M M M M M M M M M M M M M M M M M M M M M M M f qXyXz.I.E Y.qXfXfX-Xu M M M M M M M M M M M M M M M M M M M M M M ",
"M M M M M M M M M M M M M M M M M M M M M M M M M M M M M M M M M M M M f ].gXB.! L.E.XXfXfXC.i M M M M M M M M M M M M M M M M M M M M M M ",
"M M M M M M M M M M M M M M M M M M M M M M M M M M M M M M M M M M M M Z qXgX0X8.Y.'.&XfXfX6.P.M M M M M M M M M M M M M M M M M M M M M M ",
"M M M M M M M M M M M M M M M M M M M M M M M M M M M M M M M M M M R n ).gXyXuXC.Y.E.jXfXfXy.Y M M M M M M M M M M M M M M M M M M M M M M ",
"M M M M M M M M M M M M M M M M M M M M M M M M M M M M M M M M L.I.Q /.hXfXgX0X6.'.q.kXgXfX9.Q H.m M M M M M M M M M M M M M M M M M M M M ",
"M M M M M M M M M M M M M M M M M M M M M M M M M M M M M M M M L._  XhXfXfX;XF Z q.5XyX1XqXg L.M M M M M M M M M M M M M M M M M M M M M M ",
"M M M M M M M M M M M M M M M M M M M M M M M M M M M M M M M M L.E.{.&X5XtX4.W j / k.>Xz._.! M M M M M M M M M M M M M M M M M M M M M M M ",
"M M M M M M M M M M M M M M M M M M M M M M M M M M M M M M M M R R g x L G f L.R W s a s b M M M M M M M M M M M M M M M M M M M M M M M M ",
"M M M M M M M M M M M M M M M M M M M M M M M M M M M M M M M M M M M M k M M M R R M M M M M M M M M M M M M M M M M M M M M M M M M M M M ",
"M M M M M M M M M M M M M M M M M M M M M M M M M M M M M M M M M M M M M M M M m H.M M M M M M M M M M M M M M M M M M M M M M M M M M M M "
};
