/* XPM */
static char *dbdd92ebd9704454f14360bdbb53bcafslncZs9Lt1ISXRFb[] = {
/* columns rows colors chars-per-pixel */
"50 54 174 2 ",
"   c #1D160A",
".  c #1F190D",
"X  c #1F1B10",
"o  c #201709",
"O  c #241B0D",
"+  c #291E0E",
"@  c #241D12",
"#  c #291F10",
"$  c #2B200F",
"%  c #242017",
"&  c #2D2212",
"*  c #25231A",
"=  c #29251B",
"-  c #2C291F",
";  c #312614",
":  c #362915",
">  c #3B2D16",
",  c #332A1B",
"<  c #3C2E18",
"1  c #3F3017",
"2  c #3F3019",
"3  c #2C2B22",
"4  c #322E23",
"5  c #333026",
"6  c #3A3325",
"7  c #35332A",
"8  c #3B362A",
"9  c #3B392F",
"0  c #3D3B32",
"q  c #402F15",
"w  c #403017",
"e  c #44341B",
"r  c #48371D",
"t  c #4A391E",
"y  c #433725",
"u  c #433927",
"i  c #4B3A20",
"p  c #433B2B",
"a  c #493E2B",
"s  c #423E34",
"d  c #454136",
"f  c #494235",
"g  c #464339",
"h  c #4A463B",
"j  c #4D493E",
"k  c #544832",
"l  c #534B3C",
"z  c #4E4B41",
"x  c #534E42",
"c  c #555145",
"v  c #5A5446",
"b  c #56534A",
"n  c #5A564A",
"m  c #5D594D",
"M  c #5D5B52",
"N  c #625C4D",
"B  c #635E52",
"V  c #666153",
"C  c #6A6455",
"Z  c #6F6857",
"A  c #6B6659",
"S  c #6F695A",
"D  c #736C5C",
"F  c #7B735F",
"G  c #6E6B63",
"H  c #746F63",
"J  c #777061",
"K  c #7B7464",
"L  c #7F7867",
"P  c #737169",
"I  c #7B766B",
"U  c #7E796D",
"Y  c #787770",
"T  c #7F7B72",
"R  c #817966",
"E  c #837C6B",
"W  c #887F6B",
"Q  c #827E73",
"!  c #87806E",
"~  c #89816F",
"^  c #858075",
"/  c #8B8472",
"(  c #85837D",
")  c #8A867B",
"_  c #8F897D",
"`  c #918976",
"'  c #948D7A",
"]  c #97907D",
"[  c #9A927E",
"{  c #928D82",
"}  c #9F9785",
"|  c #91908B",
" . c #9C968A",
".. c #9E988A",
"X. c #9F9D97",
"o. c #A09885",
"O. c #A39C8C",
"+. c #A6A195",
"@. c #AAA394",
"#. c #A4A29B",
"$. c #A9A49A",
"%. c #AFAA9F",
"&. c #B1AB9D",
"*. c #A5A5A1",
"=. c #A9A7A3",
"-. c #AFACA4",
";. c #AEADA9",
":. c #B3AEA4",
">. c #B1AFA9",
",. c #B7B2A5",
"<. c #B4B1AB",
"1. c #B9B5AB",
"2. c #B6B6B2",
"3. c #BDBBB5",
"4. c #C0BBAF",
"5. c #C2BDB3",
"6. c #C7C3BC",
"7. c #C9C5BD",
"8. c #CCC8BF",
"9. c #C5C4C1",
"0. c #C9C7C4",
"q. c #CCCAC5",
"w. c #CDCBC9",
"e. c #CECDCA",
"r. c #D0CEC9",
"t. c #D5D3CD",
"y. c #D5D4D2",
"u. c #DAD7D1",
"i. c #DBD9D6",
"p. c #DBDAD7",
"a. c #DCDBDA",
"s. c #E1DFDA",
"d. c #E2E0DB",
"f. c #E5E3DF",
"g. c #E5E3DF",
"h. c #E7E5E2",
"j. c #E6E5E3",
"k. c #E8E7E3",
"l. c #E8E7E5",
"z. c #EAE9E5",
"x. c #EDECEC",
"c. c #F0EFEE",
"v. c #F1F0EF",
"b. c #F3F3F3",
"n. c #F3F3F2",
"m. c #F1F1F0",
"M. c #F4F4F3",
"N. c #F4F4F4",
"B. c #F5F4F4",
"V. c gray96",
"C. c #F5F5F4",
"Z. c #F6F5F5",
"A. c #F6F6F5",
"S. c #F6F6F6",
"D. c gray97",
"F. c #F7F7F7",
"G. c #F6F5F6",
"H. c #F5F5F5",
"J. c #F7F8F7",
"K. c #F9F8F7",
"L. c #F7F7F8",
"P. c #F7F8F8",
"I. c #F8F8F8",
"U. c #F9F9F9",
"Y. c #F9F9FA",
"T. c #FAFBFB",
"R. c #FBFBFC",
"E. c #FBFCFC",
"W. c #FCFDFE",
"Q. c #FDFDFE",
"!. c white",
"~. c #FEFFFF",
"^. c #FDFDFE",
"/. c #FBFBFC",
/* pixels */
"S.S.S.S.S.S.S.S.S.S.S.S.S.S.A.A.S.S.S.L.S.S.S.S.T.T.^./.A.S.S.S.S.S.S.S.S.S.S.S.S.S.S.S.S.S.S.S.S.S.",
"S.S.S.S.S.S.S.S.S.S.S.S.S.S.A.S.T.^.S.x.b.E.T.B.z.a.u.d.J.T.n.S.S.N.N.S.S.S.S.S.S.S.S.S.S.S.S.S.S.S.",
"S.S.S.S.S.S.S.S.S.S.S.S.S.S.S.^.g.4.@.o.O.s.1.O.' ~ ' ` ..n.^.A.T.^.^.T.S.S.S.S.S.S.S.S.S.S.S.S.S.S.",
"S.S.S.S.S.S.S.S.S.S.S.S.J.R.T.1.` E / ' H W ' E ! / ] / D ^ 7.@.O.,.7.z.R.S.S.S.S.S.S.S.S.S.S.S.S.S.",
"S.S.S.S.S.S.S.S.S.S.S.T.k.d.:.J W W W E b K / W W W W R J x J W R L / ' 5.J.S.S.S.S.S.S.S.S.S.S.S.S.",
"S.S.S.S.S.S.S.S.S.S.T.5.[ ' W D D J K A 0 m J I E W I J V c K W W W / W C i./.B.S.S.S.S.S.S.S.S.S.S.",
"S.S.S.S.S.S.S.B.b.R.5.~ [ ` / L x m B g 3 4 0 d h c m M b g H J E I L L c e.^./.S.S.S.S.S.S.S.S.S.S.",
"S.S.S.S.S.S.P.^.^.^.+.R ! R E J 0 - = X . .     o   . . - - g m Z F H Z m ..&.q.S.S.S.S.S.S.S.S.S.S.",
"S.S.S.S.S.J.v.5.,.6.' J E J J m =   o O o O @ & @ O O O o O . * 0 m V h S ' ` ~ 7.^.b.S.S.S.S.S.S.S.",
"S.S.S.S.C.^.%.F ! R A g n b j -   O O O O O # @ O & O O @ O o     * 7 7 D Q ~ E ` b.P.S.S.S.S.S.S.S.",
"S.S.S.B.^.d./ ! E K V 3 . @ o     & & & & O @ & ; & ; & $ O O . o . . - b D E / L 1.^.S.S.S.S.S.S.S.",
"S.S.S.J.x.../ E D B d @   O O O . & ; ; ; & # & : > > ; & $ O . & #   . * j V R W J p.T.b.S.S.S.S.S.",
"S.S.b.^.r.D / E B 0 @ . @ & + O o ; > ; & ; & $ > > : : ; & $   & ; & O   X 0 C B ^ z.^.T.N.S.S.S.S.",
"S.S.S.S.T.G z C c * o O & & ; ; * ; > : $ & & & > 2 2 2 ; $ & O & w ; & @ .   5 S ) ^ { l.T.S.S.S.S.",
"S.S.S.S.e.I 8 3 3 @ O & ; : : $ & : > > : : & ; 2 r e r : & ; $ = w : : : O . @ D / L N T S.G.G.S.S.",
"S.S.T.4.! R D c 5 o & > ; > : ; & : w 1 > : , ; e r r r > : ; O & e r > > & O   4 / ' / C <.^.N.S.S.",
"S.S.S.o./ ' W D d O ; e : > : : & : e r 1 : : & r r y r > : : & # r i > > ; @ O   B / ` D G N.G.S.S.",
"S.S.T...L E E K d o ; r e e 2 : & < e r > 2 > & e i 2 r 1 : : & # r i < w : & & o x ` ~ A n j.Y.S.S.",
"S.n./.+.L E A V 9 o : r e r w : & , r e > e : & e w e r 1 : : & # r r e e : ; &   x / L A z s.R.S.S.",
"S.N.^.%.K ^ E K s . : t r r e ; & ; r r w e : & e e i r 2 : 1 & & r r e e : ; ;   l / J C s p.R.b.S.",
"S.b.^.<.x V S n 4   : t r r e ; O : r r 2 r : & e t t r 1 > 2 & & r w < e > : & o p K B s M m.L.S.S.",
"S.T.h.' S c z 0 * . > t r r w ; O > e w 2 e : & e r t r : > > ; & t < < r < : ; o 4 R H c Y m.L.S.S.",
"B.^.1.W o./ D n 4 O < t e e w ; @ > e r r 2 ; & 1 r t 2 : : > ; $ r e r e w : ; o v ' / E x >.^.b.S.",
"S.^.$.J ~ I S m 5 O w i e 1 e : $ : r r r 2 & $ w r r 2 2 2 1 ; & t e t e < < ; O B / R E v =.R.b.S.",
"S./.+.L / W J V 3 @ w r e e e ; O : r e e : & + e r e r e : 1 ; ; e e t e q < : O C [ ' / N <.^.b.S.",
"B.^.t.W ' ] ` m * & r r e e w ; # < r r e > ; + w t r e 1 1 1 & ; t r i e w < : & S ' ! R V ;.^.b.S.",
"S.S.T.Q c V D 9 X & r r r r w ; # < i r w w : O e t t r r e 2 & : e r t w < < > & C / W K N X.^.b.S.",
"S.J.n.I z 9 3 * X & 2 r e r w ; & 2 i e 2 w ; + r t r r r e 2 ; ; t t e w e < : @ C / E J l Y ^.b.S.",
"S.B.^...b z j 0 * & 2 r e y w ; & w r i e 1 & O r r r e r r 2 ; : e t e r r : > + N / K B 0 j x.S.S.",
"S.S.^.p.K C D B 9 ; r i e r w & & w i r e 2 & + 2 r i r r r 1 ; : t t e e r : < $ l E V j d ( S.S.S.",
"S.S.P.3.E L D m s ; e e > e < & & w r r e 2 & O e r e i r w 2 & ; e t r t r : q & 3 V V N j >.^.b.S.",
"S.J.x.W E / D b s : t e > > ; O ; w i r r e & O r t 2 r r : > & ; r i e r r > : : @ A / I C x y.^.B.",
"S.T.k./ W E S n 0 < r r e > ; O ; e e r r e & O e t e e 2 : > & & e r e r r 2 < & @ S / E / v | ^.N.",
"B.J.x.' E ! K m 7 < i e e 2 ; & ; e e r r e & $ e t e e : : > & $ e e e e r r : & @ C ~ E ! C G T.S.",
"B.T.j.W E E J c 3 e i e e 1 : & ; e r w r e & $ e t e e 1 > : @ ; r e w < r e > ; @ B ^ ! E S M x.T.",
"S.T.c.) I E D m 3 w i r e 2 ; O ; r r e t e & & r t e e r > : O & t e > : r r < : @ n / ' / V j c.G.",
"S.n.^.1.~ E J m = r i 2 e 1 : O : r r r r w @ ; e r 1 2 r : ; O & t r e q e r w ;   d K J V c ;.T.S.",
"S.B./.e.Z Z B 0 @ r i r r e : $ : r r r r < O : w e 1 2 r < > O & t r r < r r < $ . j / / K K 0.T.N.",
"S.S.v. .C C C h , r r r r w : $ : r i e w < o < w > : e e : < $ & t e t > r r w & . c [ [ ! V z x.T.",
"B.^.6.F ~ / L m , e r r e < & O < r i r r : @ : 2 1 w e 2 : < & & r e t w r e w $ . m / U J n b x.S.",
"A./.&.R E K J b ; r i r r 1 ; O < r r r r e & , < < r r r : > & & e 2 r w w > 2 $ . m ! / E m P T.S.",
"A./.&.~ W K I x & r r r t e : $ < r r i i e ; ; > < w i r > q & & e 2 i r r w 2 $ . c / ` / S G T.S.",
"S./.t.Q H V x 4 & w t r e > ; & 2 i r y r w ; & > < w r r w < ; & w < r w r 2 > ; o d K E / B ;.^.N.",
"n./.u.K V c 7 @ % > r r e : & ; w e w i r 2 ; ; > > > r i w > ; & 2 < r e 2 > < : O 9 S c x s P b.P.",
"A.A.O.` / D M 3 ; e e r e > & & w r > r r < , ; ; > > w t q : & & > < w w ; 1 : ; # d K ` / E s <.^.",
"T.z./ E K E H 7 ; e t e : : & ; r r > r e : ; & & 2 : 2 t q ; # o ; < e e ; : : ; @ 0 K ` / W c *.^.",
"T.k.W W / / S 7 : r t t w ; & & r r : r 2 , : & & > & < e > & + O & : 2 < & & & & O 5 J ! K K c 2.^.",
"T.k.Q / ` L B 7 : w w : $ + + & w q ; > ; : & & & + O & q ; +   o o & ; 1 & $ $ O O * S E ! E z w.^.",
"T.g.W / W H m 3 & N l y 6 p f f l k u u y u f n Z N k u a p u s l l 6 , 6 , 6 6 f Z f m J L c V m.Y.",
"T.k.E N B m z 7 c A Z D D D F D D Z C V B N C Z Z C D D D D D D D D C N v v v m V C N 9 d b H q.G.V.",
"S.A.k.9.<.5.0.q.$.+.$.,.7.r.r.r.t.q.+.T I ^ E H H U U I I H H U T U K _ $.>.<.+.( Q ) 3.3.e.a.y.x.Y.",
"S.S.T.^.^.^.T.R.^.^.^.^.^./.B.J.z.a.y.j.x./.A.n.A.n.c.A.j.e.e.y.l.J.C.T.^.^.P.j.a.z.^.x.b./.x.J.G.G.",
"S.S.S.N.S.N.S.N.N.N.S.N.N.b.x.N.x.x.x.S.L.S.S.S.L.m.x.S.c.x.x.x.x.S.S.S.S.b.S.S.A.S.S.B.S.S.J.S.V.P.",
"S.S.S.G.G.G.G.G.S.S.S.S.S.P.P.G.A.T.A.S.S.A.S.S.A.A.L.S.L.L.T.L.J.S.S.S.S.S.S.S.S.S.S.S.S.S.S.S.G.V."
};
