/* XPM */
static char *e6f8ae62c29045d4dd402081b14c2aecAIcoCkr40kbb9Cjs[] = {
/* columns rows colors chars-per-pixel */
"70 70 122 2 ",
"   c #010101",
".  c #0B0B0B",
"X  c #131313",
"o  c #1C1C1C",
"O  c #232323",
"+  c #2B2B2B",
"@  c #343434",
"#  c #3C3C3C",
"$  c #3E467E",
"%  c #434343",
"&  c #4C4C4C",
"*  c #535353",
"=  c #5C5C5C",
"-  c #636363",
";  c #6B6B6B",
":  c #747474",
">  c #7B7B7B",
",  c #454D82",
"<  c #4B5285",
"1  c #545A89",
"2  c #595F8C",
"3  c #5E648E",
"4  c #646A91",
"5  c #686D93",
"6  c #6C7195",
"7  c #747999",
"8  c #7B7F9B",
"9  c #7D819B",
"0  c #848484",
"q  c #8B8B8B",
"w  c #81849D",
"e  c #85889E",
"r  c #898C9F",
"t  c #949494",
"y  c #9C9C9C",
"u  c #8B8EA0",
"i  c #8F91A1",
"p  c #9697A2",
"a  c #999AA3",
"s  c #9E9FA3",
"d  c #9C9DA3",
"f  c #A0A0A0",
"g  c gray63",
"h  c #A0A1A3",
"j  c #A2A2A2",
"k  c gray64",
"l  c #A4A4A4",
"z  c #A5A5A5",
"x  c gray65",
"c  c #A7A7A7",
"v  c #A2A2A3",
"b  c gray66",
"n  c #A9A9A9",
"m  c #AAAAAA",
"M  c gray67",
"N  c #ACACAC",
"B  c gray68",
"V  c #AFAFAF",
"C  c gray69",
"Z  c #B1B1B1",
"A  c #B2B2B2",
"S  c gray71",
"D  c gray72",
"F  c #B9B9B9",
"G  c gray73",
"H  c #BCBCBC",
"J  c gray74",
"K  c gray",
"L  c gray75",
"P  c #C0C0C0",
"I  c gray76",
"U  c #C3C3C3",
"Y  c gray77",
"T  c #C5C5C5",
"R  c #C6C6C6",
"E  c gray77",
"W  c #C8C8C8",
"Q  c gray79",
"!  c #CACACA",
"~  c #CBCBCB",
"^  c gray80",
"/  c #CDCDCD",
"(  c gray81",
")  c #D0D0D0",
"_  c LightGray",
"`  c gray83",
"'  c #D5D5D5",
"]  c gray84",
"[  c #D7D7D7",
"{  c #D8D8D8",
"}  c gray85",
"|  c gainsboro",
" . c #DFDFDF",
".. c gray85",
"X. c gray88",
"o. c #E1E1E1",
"O. c #E2E2E2",
"+. c gray89",
"@. c #E4E4E4",
"#. c gray90",
"$. c #E6E6E6",
"%. c gray91",
"&. c #E9E9E9",
"*. c #EAEAEA",
"=. c gray92",
"-. c #ECECEC",
";. c gray93",
":. c #EEEEEE",
">. c #EFEFEF",
",. c gray92",
"<. c gray94",
"1. c #F1F1F1",
"2. c gray95",
"3. c #F3F3F3",
"4. c #F4F4F4",
"5. c gray96",
"6. c #F6F6F6",
"7. c gray97",
"8. c #F7F7F7",
"9. c #F9F9F9",
"0. c #FDFDFD",
"q. c #FEFEFE",
/* pixels */
"$ $ $ $ $ $ $ $ $ $ $ $ $ $ $ $ $ $ $ $ $ $ $ $ $ $ $ $ $ $ $ $ $ $ $ $ $ $ $ $ $ $ $ $ $ $ $ $ $ $ $ $ $ $ $ $ $ $ $ $ $ $ $ $ $ $ $ $ $ $ ",
"$ $ $ $ $ $ $ $ $ $ $ $ $ $ $ $ $ $ $ $ $ $ $ $ $ $ $ $ $ $ $ $ $ $ $ $ $ $ $ $ $ $ $ $ $ $ $ $ $ $ $ $ $ $ $ $ $ $ $ $ $ $ $ $ $ $ $ $ $ $ ",
"$ $ $ $ $ $ $ $ $ $ $ $ $ $ $ $ $ $ $ $ $ $ $ $ $ $ $ $ $ $ $ , $ $ $ $ $ $ $ $ $ $ $ $ $ $ $ $ $ $ $ $ $ $ $ $ $ $ $ $ $ $ $ $ $ $ $ $ $ $ ",
"$ $ $ $ $ $ $ $ $ $ $ $ $ $ $ $ $ $ $ $ $ $ $ $ $ $ $ $ $ 4 q = * * 0 < $ $ $ $ $ $ $ $ $ $ $ $ $ $ $ $ $ $ $ $ $ $ $ $ $ $ $ $ $ $ $ $ $ $ ",
"$ $ $ $ $ $ $ $ $ $ $ $ $ $ $ $ $ $ $ $ $ $ $ $ $ $ $ ; + * 0 q 0 ; @   + 7 $ $ $ $ $ $ $ $ $ $ $ $ $ $ $ $ $ r X @ $ $ $ $ $ $ $ $ $ $ $ $ ",
"$ $ * o $ $ $ $ $ $ $ $ $ $ $ $ $ $ $ $ $ $ $ $ $ $ # { 6.6.6.6.9.7.9.7.;   = $ $ $ $ $ $ $ $ $ $ $ $ $ $ $ 0 .   . $ $ $ $ $ $ $ $ $ $ $ $ ",
"$ $     X , $ $ $ $ $ $ $ $ $ $ $ $ $ $ $ $ $ $ $ % 6.9.6.6.9.9.9.7.7.7.7.7.X % $ $ $ $ $ $ $ $ $ $ $ $ $ ; : ;   g $ $ $ $ $ $ $ $ $ $ $ $ ",
"$ <       X a $ $ $ $ $ $ $ $ $ $ $ $ $ $ $ $ $ 0 C 6.6.9.6.6.6.7.7.7.7.7.7.7.. > $ $ $ $ $ $ $ $ $ $ $ & 6.6.# p $ $ $ $ $ $ $ $ $ $ $ $ $ ",
"$ r     X :.# q $ $ $ $ $ $ $ $ $ $ $ $ $ $ $ $ * 6.6.6.6.6.6.9.7.7.7.7.7.7.7.y . $ $ $ $ $ $ $ $ $ , @ 6.6.# $ $ $ 7 X   y $ $ $ $ $ $ $ $ ",
"$ 9     & q.q + : $ $ $ $ $ $ $ $ $ $ $ $ $ $ - 6.6.9.9.9.9.6.6.7.7.7.7.7.7.7.7.O : $ $ $ $ $ $ $ $ O 6.6.@ $ $ $ t       > $ $ $ $ $ $ $ $ ",
"$ $     q :.& 6.- & $ $ $ $ $ $ $ $ 3 t > > : & 6.6.6.6.6.6.9.6.7.7.7.7.7.7.7.7.q o $ $ $ $ $ $ 9 + 6.9.@ $ $ $ > : .   + $ $ $ $ $ $ $ $ $ ",
"$ $ .   C { : 9.6.: # $ $ $ $ $ = . @ 0 O.7.6.6.6.9.9.6.6.9.6.6.7.7.7.7.7.7.7.7.9.  $ $ $ $ $ y @ 7.6.# $ $ $ - q ]   @ $ $ $ $ $ $ $ $ $ $ ",
"$ $ @   q N ( 6.7.7.0 O $ $ i . % 6.6.6.6.9.9.6.6.6.9.6.6.6.9.9.7.7.7.7.7.7.7.7.7.  y $ $ $ > % 9.7.% , $ $ & l 9.= % $ $ $ O   o $ $ $ $ $ ",
"$ $ >   + = 6.6.7.7.7.f X y . > 6.9.6.9.6.6.6.6.9.6.9.6.9.6.6.6.7.7.7.7.7.7.7.7.6.  M 0 $ * - 6.t = $ $ $ % O.3.t * $ $ < X     o $ $ $ $ $ ",
"$ $ $       @.7.7.7.7.7.g   0 9.6.6.9.6.9.6.6.9.6.9.6.6.9.6.6.6.7.7.7.7.7.7.7.7.7.. *.:.o : 3.0 ; $ $ $ @ 7.9.> ; $ $ f .     . 1 $ $ $ $ $ ",
"$ $ $ @     N 7.7.7.7.9.t # 7.7.9.6.6.6.9.6.6.9.6.6.6.9.6.6.9.9.7.7.7.7.7.7.7.7.y & *.+ q 7.> > $ $ $ @ 6.6.- q $ $ 0       X , $ $ $ 5 $ $ ",
"$ $ $ w     ; 9.9.6.6.6.O 6.6.9.6.6.9.6.6.6.9.6.9.6.6.6.9.6.6.6.6.3.7.7.7.7.7.7.# m O y 7.6.X * $ , @ 9.6.* f $ $ =       O $ $ $ g .   1 $ ",
"$ $ $ $ #   O 6.6.6.9.6.@ 6.6.9.6.9.6.6.9.6.9.6.6.6.9.6.9.6.6.6.y . . { 7.7.7.7.o X S 7.7.9.%   + # 7.7.% 8 $ $ % X     # , $ $ >     . $ $ ",
"$ $ $ $ $     N 6.9.6.G : 6.6.6.6.6.9.9.6.9.6.6.6.9.6.9.6.6.6.q X { m . g 7.6.% & 0 7.7.7.7.7.- 0 7.7.@ 4 $ $ @ ! @   = $ $ $ *     . i $ $ ",
"$ $ $ $ $ 0   X 6.9.6.t g 9.9.6.9.6.6.6.6.6.6.9.6.9.6.6.6.9.; O 7.7.6.6.o 0 = :.: O.7.7.7.7.7.7.7.7.@ ) q.1 @ +.I   q $ $ $ @     . 3 $ $ $ ",
"$ $ $ $ $ $ #   o m q o t : - 6.6.6.6.9.9.9.6.6.6.9.6.6.6.* # 9.7.7.7.7.7.@ ; :.` % 6.6.7.7.7.7.7.t & O.: % 3.s . X $ $ $ O     X < $ $ $ $ ",
"$ $ $ $ $ $ $ .             : 6.9.9.6.6.6.6.6.9.6.9.6.9.% = 6.6.7.7.7.7.7.7.= : 9.0 = 6.7.7.7.7.7.7.X = - 7.3.X t O $ 7 .     o $ $ $ $ $ $ ",
"$ $ $ $ $ $ 0     %         g 9.6.6.9.6.6.6.6.9.6.6.6.+ > 6.9.6.7.7.7.7.7.7.6.q - 3.t : 6.7.7.7.7.7.7.7.9.6.# #.` X y .     @ $ $ $ $ $ $ $ ",
"$ $ $ $ $ ;     = :       @ *.> t 9.6.6.9.9.6.6.6.6.O g 6.6.6.6.7.7.7.7.6.6.6.> % & t : g 7.7.7.7.7.7.7.7.@ *.<.N         @ $ $ $ $ $ $ $ $ ",
"$ $ $ $ y     O 9.g .     % . . O.g t 9.6.9.6.6.9.o ! 6.6.6.9.9.7.7.6.6.7.7.= q 7.7.o *  .6.7.7.7.7.7.7._ * q.( o .     & $ $ $ $ $ $ $ $ $ ",
"$ $ $ $ .     O 6.6.R - . C # : # > 9.6.6.9.6.R O 6.6.6.9.6.6.6.7.7.6.6.7.% L 6.7.7.9.O O.7.6.6.7.7.7.7.6.% ; O L o   - , $ $ $ $ $ $ $ $ $ ",
"$ $ $ t       & 6.6.6.9.y y # O 6.9.6.6.6.6.t @ 6.6.6.9.9.6.6.6.7.7.7.6.# :.6.6.7.7.7.7.X 7.7.6.7.7.7.7.6.6.  t >   & $ $ $ $ $ $ $ $ $ $ $ ",
"$ $ $ #         - 9.6.6.*     0 6.6.6.9.9.: & 6.9.9.6.6.6.6.9.9.7.7.3.# 6.7.6.6.7.7.7.7.y . = @ 7.7.7.7.7.O.  -   + $ $ $ $ $ $ $ $ $ $ $ $ ",
"$ $ $ X         : - = G       t 9.6.9.6.= . 3.6.6.6.9.6.6.9.6.6.6.C & I y 6.6.7.7.7.7.7.9.O > W o 9.7.7.9.>     > $ $ $ $ $ $ $ $ $ $ $ $ $ ",
"$ $ $ .               *.+   o 9.9.6.9.% t 6.# m % 9.6.6.6.6.6.6.t - q - V % #.7.7.7.7.7.7.y . *.s   @ : ;   . w $ $ $ $ $ $ $ $ $ $ $ $ $ $ ",
"$ $ $ .               *.O   6.6.6.6.+ ; 6.9.= o 6.6.6.6.9.9.6.: 0 6.# :.:.:.* 6.7.7.S [ 7.7.  5 $ *         y $ $ $ $ $ $ $ $ $ $ $ $ $ $ $ ",
"$ $ $ O               q   O 9.6.6.O   q 6.q q t q ; t 6.6.6.& N 6.6.% *.> y > 6.6.> t 7.7.7.@ ; $ $ &       $ $ $ $ $ $ $ $ $ $ $ $ $ $ $ $ ",
"$ $ $ *               O *.( #.6.q   X 6.6.9.9.9.X - 7.7.4.@ W 7.7.7.# *.l t 6.{ O . 6.6.6.6.; # $ $ $ . % $ $ $ $ $ $ $ $ $ $ $ $ $ $ $ $ $ ",
"$ $ $ u                 ; O ` 9.=     . > 6.6.* I % 7.7.X > 6.7.7.7.9.# - = o       6.6.9.6.q O $ $ $ @ s $ $ $ $ $ $ $ $ $ $ $ $ $ $ $ $ $ ",
"$ $ $ $ o                 o : +         . = 9.6.7.+.X . X 7.7.7.7.7.7.7.;           + 9.6.6.y o $ $ $ # 8 $ $ $ $ $ $ $ $ $ $ $ $ $ $ $ $ $ ",
"$ $ $ $ u                                   O O.- .     - 7.7.7.7.7.7.7..             * 6.9.y O $ $ $ = , $ $ $ $ $ $ $ $ $ $ $ $ $ $ $ $ $ ",
"$ $ $ $ $ q                         . X             o   n 7.7.7.9.6.6.%                 6.6.: % $ $ $ y 3 $ $ $ $ $ $ $ $ $ $ $ $ $ $ $ $ $ ",
"$ $ $ $ $ $ l X                   O 6.G           = k   ! 7.7.7.6.6.9.X                 :.6.# > $ $ $ $ 7 $ $ $ $ $ $ $ $ $ $ $ $ $ $ $ $ $ ",
"$ $ $ $ $ $ $ $ 0 O               :.9.6.*         #.!    .7.7.7.6.9.6.o                 %.7.. 5 $ $ $ $ $ $ $ $ $ $ $ $ $ $ $ $ $ $ $ $ $ $ ",
"$ $ $ $ $ $ $ $ $ $ $ #   o -   X 6.9.6.6.      o q.3.  { 7.7.7.6.6.6.:               X %.N X $ $ $ $ $ $ $ $ $ $ $ $ $ $ $ $ $ $ $ $ $ $ $ ",
"$ $ $ $ $ $ $ $ $ $ $ $   : 4   # 6.9.6.6.@     @ >.4.O y 7.7.7.9.9.6.6.X             0 q.+ > $ $ $ $ $ $ $ $ $ $ $ $ $ $ $ $ $ $ $ $ $ $ $ ",
"$ $ $ $ $ $ $ $ $ $ $ $ < $ $   # 6.6.6.9.{     % 4.4.& 0 7.7.7.6.6.6.9.6.O       . . ) l   y $ $ $ $ $ $ $ $ $ $ $ $ $ $ $ $ $ $ $ $ $ $ $ ",
"$ $ $ $ $ $ $ $ $ $ $ $ $ $ $   # 6.9.9.6.9.@   O q.7.0 ; 7.7.7.q . X 6.9.6.*.y ( 9.& R X     : $ $ $ $ $ $ $ $ $ $ $ $ $ $ $ $ $ $ $ $ $ $ ",
"$ $ $ $ $ $ $ $ $ $ $ $ $ $ $ . = 6.6.6.9.g       _ 4.P # 7.7.7..     % 6.6.6.6.6.6.q o     * $ $ $ $ $ $ $ $ $ $ $ $ $ $ $ $ $ $ $ $ $ $ $ ",
"$ $ $ $ $ $ $ $ $ $ $ $ $ $ $ X O 6.6.9.t > @ % # % <.+.o 9.9.6..     * 9.6.6.9.6.L .     ; & , $ $ $ $ $ $ $ $ $ $ $ $ $ $ $ $ $ $ $ $ $ $ ",
"$ $ $ $ $ $ $ $ $ $ $ $ $ $ $ o   9.6.> t 6.% t  .. * D   6.6.6.X & = 9.6.9.6.9.q         9.6.: e $ $ $ $ $ $ $ $ $ $ $ $ $ $ $ $ $ $ $ $ $ ",
"$ $ $ $ $ $ $ $ $ $ $ $ $ $ $ X   t - ` 6.6.@ C - # t -   ; 6.6.o 9.9.6.6.9.( @ + +     . 6.6.6.0 y $ $ $ $ $ $ $ $ $ $ $ $ $ $ $ $ $ $ $ $ ",
"$ $ $ $ $ $ $ $ $ $ $ $ $ $ , .   . :.6.6.6.. = $ * T | % & : = X > > ; ; -     6.0 + q   t 6.6.6.q 0 $ $ $ $ $ $ $ $ $ $ $ $ $ $ $ $ $ $ $ ",
"$ $ $ $ $ $ $ $ $ $ $ $ $ $ $   X 6.7.7.7.q @ $ $ = S y 7 : 6.6.9.> #.6.9.6.  + 7.; @ 4.4.. g 7.7.7.q ; $ $ $ $ $ $ $ $ $ $ $ $ $ $ $ $ $ $ ",
"$ $ $ $ $ $ $ $ $ $ $ $ $ $ 0 o 7.7.7.7.O.+ $ $ $ = : X & - 6.6.6.y 9.9.6.6.  o % > % t >.t   L 7.7.6.y * $ $ $ $ $ $ $ $ $ $ $ $ $ $ $ $ $ ",
"$ $ $ $ $ $ $ $ $ $ $ $ $ > . y 7.7.7.G o $ $ $ $ & 3.L & + = = & X @ % * *     - 9.7.7.: *   . ,.7.7.7.k # $ $ $ $ $ $ $ $ $ $ $ $ $ $ $ $ ",
"$ $ $ $ $ $ $ $ $ $ $ $ & o ! > 7.7.t   7 $ $ $ $ # ) #.= ; 7.7.6.q 9.6.6.6.      . * 7.6.4.t o . #.7.7.6.W @ $ $ $ $ $ $ $ $ $ $ $ $ $ $ $ ",
"$ $ $ $ $ $ $ $ $ $ $ = * t O.* 6.: O @ $ $ $ $ $ # ; * % ; 3.7.9.q 9.9.9.7..   o = * % & 7.7.*   X R 7.7.7.{ O $ $ $ $ $ $ $ $ $ $ $ $ $ $ ",
"$ $ $ $ $ $ $ $ $ $ 0 % 7.! ` % - + $ g $ $ $ $ , # 3.O.  : : : = O + - ; > &   C L q $ $ & @ O   p * l 7.7.7.6.O 2 $ $ $ $ $ $ $ $ $ $ $ $ ",
"$ $ $ $ $ $ $ $ $ > @ 3.3.0 > . X $ $ $ $ $ $ $ $ - P >.o 7.7.7.6.. % 6.6.7.U   t > 8 $ $ $ $ > O $ $ = q 9.7.7.6.o 4 $ $ $ $ $ $ $ $ $ $ $ ",
"$ $ $ $ $ $ $ $ $ y @ *.* # .   a $ $ $ $ $ $ $ $ $ # >.X 7.7.7.`   . 9.6.6.R   & + $ $ $ $ $ $ : $ $ $ - ; 7.7.9.o $ $ $ $ $ $ $ $ $ $ $ $ ",
"$ $ $ $ $ $ $ $ $ $ > X       o $ $ $ $ $ $ $ $ $ $ : > o t 7.7.o     & 9.6.*     e $ $ $ $ $ $ < $ $ $ $ : * 4.o 1 $ $ $ $ $ $ $ $ $ $ $ $ ",
"$ $ $ $ $ $ $ $ $ $ $ O       - $ $ $ $ $ $ $ $ $ $ $ t . . & .         o %     % $ $ $ $ $ $ $ $ $ $ $ $ $ 0 . 5 $ $ $ $ $ $ $ $ $ $ $ $ $ ",
"$ $ $ $ $ $ $ $ $ $ $ i   - O g $ $ $ $ $ $ $ $ $ $ $ $ : O .         . o # .   f $ $ $ $ $ $ $ $ $ $ $ $ $ $ $ $ $ $ $ $ $ $ $ $ $ $ $ $ $ ",
"$ $ $ $ $ $ $ $ $ $ $ $ o l % 5 $ $ $ $ $ $ $ $ $ $ $ $ e = :   $ $ $ $ $ $ > @ r $ $ $ $ $ $ $ $ $ $ $ $ $ $ $ $ $ $ $ $ $ $ $ $ $ $ $ $ $ ",
"$ $ $ $ $ $ $ $ $ $ $ $ * $ s 9 $ $ $ $ $ $ $ $ $ $ $ $ $ > $ o $ $ $ $ $ $ y q r $ $ $ $ $ $ $ $ $ $ $ $ $ $ $ $ $ $ $ $ $ $ $ $ $ $ $ $ $ ",
"$ $ $ $ $ $ $ $ $ $ $ $ - $ $ $ $ $ $ $ $ $ $ $ $ $ $ $ $ $ $ * $ $ $ $ $ $ $ 6 $ $ $ $ $ $ $ $ $ $ $ $ $ $ $ $ $ $ $ $ $ $ $ $ $ $ $ $ $ $ ",
"$ $ $ $ $ $ $ $ $ $ $ $ - $ $ $ $ $ $ $ $ $ $ $ $ $ $ $ $ $ , * $ $ $ $ $ $ $ $ $ $ $ $ $ $ $ $ $ $ $ $ $ $ $ $ $ $ $ $ $ $ $ $ $ $ $ $ $ $ ",
"$ $ $ $ $ $ $ $ $ $ $ $ ; $ $ $ $ $ $ $ $ $ $ $ $ $ $ $ $ $ $ t $ $ $ $ $ $ $ $ $ $ $ $ $ $ $ $ $ $ $ $ $ $ $ $ $ $ $ $ $ $ $ $ $ $ $ $ $ $ ",
"$ $ $ $ $ $ $ $ $ $ $ $ > $ $ $ $ $ $ $ $ $ $ $ $ $ $ $ $ $ $ $ $ $ $ $ $ $ $ $ $ $ $ $ $ $ $ $ $ $ $ $ $ $ $ $ $ $ $ $ $ $ $ $ $ $ $ $ $ $ ",
"$ $ $ $ $ $ $ $ $ $ $ $ < $ $ $ $ $ $ $ $ $ $ $ $ $ $ $ $ $ $ $ $ $ $ $ $ $ $ $ $ $ $ $ $ $ $ $ $ $ $ $ $ $ $ $ $ $ $ $ $ $ $ $ $ $ $ $ $ $ ",
"$ $ $ $ $ $ $ $ $ $ $ $ $ $ $ $ $ $ $ $ $ $ $ $ $ $ $ $ $ $ $ $ $ $ $ $ $ $ $ $ $ $ $ $ $ $ $ $ $ $ $ $ $ $ $ $ $ $ $ $ $ $ $ $ $ $ $ $ $ $ ",
"$ $ $ $ $ $ $ $ $ $ $ $ $ $ $ $ $ $ $ $ $ $ $ $ $ $ $ $ $ $ $ $ $ $ $ $ $ $ $ $ $ $ $ $ $ $ $ $ $ $ $ $ $ $ $ $ $ $ $ $ $ $ $ $ $ $ $ $ $ $ ",
"$ $ $ $ $ $ $ $ $ $ $ $ $ $ $ $ $ $ $ $ $ $ $ $ $ $ $ $ $ $ $ $ $ $ $ $ $ $ $ $ $ $ $ $ $ $ $ $ $ $ $ $ $ $ $ $ $ $ $ $ $ $ $ $ $ $ $ $ $ $ ",
"$ $ $ $ $ $ $ $ $ $ $ $ $ $ $ $ $ $ $ $ $ $ $ $ $ $ $ $ $ $ $ $ $ $ $ $ $ $ $ $ $ $ $ $ $ $ $ $ $ $ $ $ $ $ $ $ $ $ $ $ $ $ $ $ $ $ $ $ $ $ "
};
