/* XPM */
static char *c7393ba892114da396413828599ccdf71lTpaXnKVe7DH2gk[] = {
/* columns rows colors chars-per-pixel */
"70 70 173 2 ",
"   c #000000",
".  c #06070B",
"X  c #0D0D0D",
"o  c #0A0700",
"O  c #170805",
"+  c #1B1C00",
"@  c #141400",
"#  c #0A0C15",
"$  c #0C0E19",
"%  c #0D121F",
"&  c #101010",
"*  c #19191A",
"=  c #340000",
"-  c #3F0000",
";  c #291D13",
":  c #1F2117",
">  c #2A2B00",
",  c #232400",
"<  c #323300",
"1  c #3C3D00",
"2  c #332518",
"3  c #313414",
"4  c #121424",
"5  c #16192D",
"6  c #161826",
"7  c #191C32",
"8  c #111E33",
"9  c #1E223D",
"0  c #232323",
"q  c #24252E",
"w  c gray18",
"e  c #332A2C",
"r  c #322D39",
"t  c #333333",
"y  c #3A383B",
"u  c #2B2E35",
"i  c #4D0000",
"p  c #530000",
"a  c #540F0A",
"s  c #521717",
"d  c #6A0000",
"f  c #780000",
"g  c #6A1016",
"h  c #4D3724",
"j  c #4B3C3E",
"k  c #4B2121",
"l  c #504E06",
"z  c #734800",
"x  c #5D6007",
"c  c #636600",
"v  c #626514",
"b  c #777A00",
"n  c #5A4332",
"m  c #664930",
"M  c #775638",
"N  c #1E345A",
"B  c #182A49",
"V  c #212543",
"C  c #252A4C",
"Z  c #2B2F49",
"A  c #2E3143",
"S  c #363846",
"D  c #373545",
"F  c #2A2F54",
"G  c #2C325A",
"H  c #30365E",
"J  c #2F3560",
"K  c #223B66",
"L  c #323865",
"P  c #343B6B",
"I  c #313763",
"U  c #383F71",
"Y  c #394175",
"T  c #3E467E",
"R  c #28477A",
"E  c #424242",
"W  c #4C4C4C",
"Q  c #545454",
"!  c #5D5D5D",
"~  c #504C4C",
"^  c #5F5F63",
"/  c #415D6B",
"(  c #626262",
")  c DimGray",
"_  c #757575",
"`  c #777778",
"'  c #7C7C7C",
"]  c #800000",
"[  c #990000",
"{  c #9F1414",
"}  c #B30000",
"|  c #A70000",
" . c #DF0000",
".. c #D30505",
"X. c #EA0000",
"o. c #FD0000",
"O. c #FF001A",
"+. c #FF120C",
"@. c #FF2518",
"#. c #FF2317",
"$. c #FF1D28",
"%. c #FF2C3C",
"&. c #816600",
"*. c #825D3D",
"=. c #9B422B",
"-. c #836B2B",
";. c #FC520F",
":. c #FE4833",
">. c #FF004C",
",. c #FF0A45",
"<. c #FF0057",
"1. c #FF045F",
"2. c #FF1F5B",
"3. c #FF0073",
"4. c #FF007B",
"5. c #996E48",
"6. c #946A46",
"7. c #8C6645",
"8. c #A97951",
"9. c #8F766E",
"0. c #FF7D52",
"q. c #EB6E48",
"w. c #7C8000",
"e. c #8B8F00",
"r. c #949900",
"t. c #9EA300",
"y. c #ADB300",
"u. c #AEB401",
"i. c #BCC200",
"p. c #C6CC00",
"a. c #DCE300",
"s. c #F7FF00",
"d. c #F7FF0A",
"f. c #F3FA0D",
"g. c #FAD633",
"h. c #F9FF33",
"j. c #F8FF2E",
"k. c #B38054",
"l. c #B88456",
"z. c #BA8659",
"x. c #C28B5B",
"c. c #CC9360",
"v. c #D49964",
"b. c #FF9561",
"n. c #FF876D",
"m. c #E6A56C",
"M. c #F0AC71",
"N. c #FFB778",
"B. c #F8B073",
"V. c #F9FF48",
"C. c #FAFF66",
"Z. c #335A9C",
"A. c #3A65B0",
"S. c #FF0080",
"D. c #FF64B2",
"F. c #5188EC",
"G. c #838383",
"H. c #8B8B8B",
"J. c #9B9B9B",
"K. c #929292",
"L. c #A19D9D",
"P. c #8F90A3",
"I. c #93A0B5",
"U. c #A3A3A3",
"Y. c #FF968E",
"T. c #FBFF88",
"R. c #FFD4AE",
"E. c #EDC4AB",
"W. c #FFB3D9",
"Q. c #E1CCCC",
"!. c #FFCCE6",
"~. c #FEFFE4",
"^. c white",
/* pixels */
"T T T T T T T T T T T T T T T T T T T T T T T T T T T T T T T T T T T T T T T T T T T T P $ $ $ C T T T T T T T T T T T T T T T T T T T T T ",
"T T T T T T T T T T T T T T T T T T T T T T T T T T T T T T T T T T T T T T T T T T T L D *.M *.j C T T T T T T T T T T T T T T T T T T T T ",
"T T T T T T T T T T T T T T T T T T T T T T T T T T T T T T T T T T T T T T U C C C C D *.N.N.N.*.$ T T T T T T T T T T T T T T T T T T T T ",
"T T T T T T T T T T T T T T T T T T T T T T T T T T T T T T T T T T T T T T G   2 2 2 *.N.N.N.N.*.$ T T T T T T T T T T T T T T T T T T T T ",
"T T T T T T T T T T T T T T T T T T T T T T T T T T T T T T T T T T T T T T F   m.m.m.M.N.N.N.N.*.$ T T T T T T T T T T T T T T T T T T T T ",
"T T T T T T T T T T T T T T T T T T T T T T T T T T T T T T T T T T T T T T Y L 2 v.N.N.N.N.N.N.*.$ T T T T T T T T T T T T T T T T T T T T ",
"T T T T T T T T T T T T T T T T T T T T T T T T T T T T T T T T T T T T T T Z.U C j x.N.N.M.*.m j F T T T T T T T T T T T T T T T T T T T T ",
"T T T T T T T T T T T T T T T T T T T T T T T T T T T T T T F C C C C C C J T / / # n 5.5.7.r 7 F T T T T T T T T T T T T T T T T T T T T T ",
"T T T T T T T T T T T T T T T T T T T T T T T T T T Z.Y L L 3 < > < < < < w L L L #       4 P T T T T T T T T T T T T T T T T T T T T T T T ",
"T T T T T T T T T T T T T T T T T T T T T T T T T / U I     p.s.s.s.s.s.s.r.            $ T T T T T T T T T T T T T T T T T T T T T T T T T ",
"T T T T T T T T T T T T T T T T T T . L T T T T T T V < s.s.s.s.s.s.s.s.s.s.s.s.        $ T T T T T T T T T T T T T T T T T T T T T T T T T ",
"T T T T T T T T T T T T T T T T I 4 8.e G T T T T 7 v i.s.s.s.s.s.s.s.s.s.s.s.s.y.,   4 J T T T T T T T T T T T T T T T T T T T T T T T T T ",
"T T T T T T T T T T U Z.T T T J y m m.2 C T T T T $ &.d.s.s.s.i.r.t.s.s.V.C.C.C.s.<   7 T T T T T T T T T T T T T T T T T T T T T T T T T T ",
"T T T T T T T T T T / Y L L L r M N.z.w F T T T L 2 r.s.d.j.d.c O h p.s.T.~.^.^.s.x @ 7 T T T T T T T T T T T T T T T T T T T T T T T T T T ",
"T T T T T T T T T T T L       5.N.N.. L T T T U . p.s.s.h.~.h.c M c.  s.s.C.^.^.s.s.c 7 T T T T T T T T T T T T T T T T T T T T T T T T T T ",
"T T T T T T T T T T C 2 N.N.N.N.N.Y.. L T T / U . p.T.^.^.^.t 5.N.N.N.  y.s.s.s.s.s.c 7 T T T T T T T T T T T T T T T T T T T T T T T T T T ",
"T T T T T T T T T 9 j v.N.N.N.N.N.N.  # F T P : u.s.f.h.g.:...q.0.@.@.  y.s.s.s.s.s.c 7 T T T T T T T T T T T T T T T T T T T T T T T T T T ",
"T T T T T T T T T 5 m N.N.N.N.N.c.m X Q S C Y A x a.u.b ;.>.<.%.%.2.Y.[ z t.s.s.s.s.c 7 T T T T T T T T T T T T T T T T T T T T T T T T T T ",
"T T T T T T T T J j 6.M.8.8.z.l.*.  y H.! A J U . p.w.= O.3.S.>.2.D.W.o.i c s.s.s.s.x 7 T T T T T T T T T T T T T T T T T T T T T T T T T T ",
"T T T T T T T T $ 5.N.c.            U.U.U.( $ U . p.w.= O.3.S.S.D.!.S.o.i c s.s.s.s.x 7 T T T T T T T T T T T T T T T T T T T T T T T T T T ",
"T T T T T T T T 4 . . 4 T T T T G . 4 9.K.J.G.& . p.w.2 b.#.1.4.S.1.+.N.h c s.s.a.>   7 T T T T T T T T T T T T T T T T T T T T T T T T T T ",
"T T T T T T T T P L L P T T T T U L J q 0 Q J.` & i.w.2 B.b.$.<.1.$.b.N.h c s.s.< O   7 T T T T T T T T T T T T T T T T T T T T T T T T T T ",
"T T T T T T T T T T T T T T T T T T Y F C Z Q L.) v < 2 N.N.0.%.%.0.N.N.z.-.c c     5 J T T T T T T T T T T T T T T T T T T T T T T T T T T ",
"T T T T T T T T T T T T T T T T T T / U Z.J u ) J.Q n ~ 8.B.N.n.Y.R.R.R.R.9.    7 7 L / T T T T T T T T T T T T T T T T T T T T T T T T T T ",
"T T T T T T T T T T T T T T T T T T T T T T P 5 ` J.K.) ; z.B.E.Q.Q.Q.Q.Q.9.    T T T T T T T T T T T T T T T T T T T T T T T T T T T T T T ",
"T T T T T T T T T T T T T T T T T T T T T T T U $ ` W       l.=.d f f d d =     T T T T T T T T T T T T T T T T T T T T T T T T T T T T T T ",
"T T T T T T T T T T T T T T T T T T T T T T T T P q &       ; a [ X. .d d i     T T T T T T T T T T T T T T T T T T T T T T T T T T T T T T ",
"T T T T T T T T T T T T T T T T T T T T T T T T T P 7   * ` s | X.o.o. .i o     T T T T T T T T T T T T T T T T T T T T T T T T T T T T T T ",
"T T T T T T T T T T T T T T T T T T T T T T T T T T G 7 0 K.k f ..o.o.} = 8 N   / T T T T T T T T T T T T T T T T T T T T T T T T T T T T T ",
"T T T T T T T T T T T T T T T T T T T T T T T T T T T P q ` * s {  . .i O K A.  P Y T T T T T T T T T T T T T T T T T T T T T T T T T T T T ",
"T T T T T T T T T T T T T T T T T T T T T T T T T T T T P $   ( 9.g g # . N A.$   L T T T T T T T T T T T T T T T T T T T T T T T T T T T T ",
"T T T T T T T T T T T T T T T T T T T T T T T T T T T T Y U $ ( J.P.F.F.B   N F.  P T T T T T T T T T T T T T T T T T T T T T T T T T T T T ",
"T T T T T T T T T T T T T T T T T T T T T T T T T T T T T T P V ~ U.I.8 Z.R B F.  L T T T T T T T T T T T T T T T T T T T T T T T T T T T T ",
"T T T T T T T T T T T T T T T T T T T T T T T T T T T T T T T J Z Q U.  A.Z.% R   L T T T T T T T T T T T T T T T T T T T T T T T T T T T T ",
"T T T T T T T T T T T T T T T T T T T T T T T T T T T T T T T T C 0 U.c / N     c r P T T T T T T T T T T T T T T / Y T T T T T T T T T T T ",
"T T T T T T T T T T T T T T T T T T T T T T T T T T T T T T T T F q G.p.1       p.> C T T T T T T T T T T T T T T Z.T T T T T T T T T T T T ",
"T T T T T T T T T T T T T T T T T T T T T T T T T T T T T T T T Y H # + o       +   C T T T T T T T T T T T T T T T T T T T T T T T T T T T ",
"T T T T T T T T T T T T T T T T T T T T T T T T T 5 $ 5 T T T T / L     e.b     p.> C T T T T T T T T T T T T T T T T T T T T T T T T T T T ",
"T T T T T T T T T T T T T T T T T T T T U Y T U 9 . o . 9 Y / U L 5     l 1     c @ C T T T T T T T T T T T T T T T T T T T T T T T T T T T ",
"T T T T T T T T T T T T T T T T T T T T Z.P F V o       $ U T Z.C                   C T T T T T T T T T T T T T T T T T T T T T T T T T T T ",
"T T T T T T T T T T T T T T T T T T T T U 9             $ U T P C 0 0   , ,     < o 9 P T T T T T T T T T T T T T T T T T T T T T T T T T T ",
"T T T T T T T T T T T T T T T T T T T T 7 o             $ U T 7 E U.U.  y.r.    s.<   7 T T T T T T T T T T T T T T T T T T T T T T T T T T ",
"T T T T T T T T T T T T T T T T T T U $             Q G.    I 7       U.t               $ T T T T T T T T T T T T T T T T T T T T T T T T T ",
"T T T T T T T T T T T T T T T T T T U & E E       ! H.J.! X L 7 w !   t #               $ T T T T T T T T T T T T T T T T T T T T T T T T T ",
"T T T T T T T T T T T T T T T T T T Y $ ) ' t     G.U.U.G.& 7 D ) H.E                 # V T T T T T T T T T T T T T T T T T T T T T T T T T ",
"T T T T T T T T T T T T T T T T T / Y 7 W _ ^ 4   G.U.U.G.& q _ U.U.U.                7 T T T T T T T T T T T T T T T T T T T T T T T T T T ",
"T T T T T T T T T T T T T T T T T T T T 7   $ U . G.U.U.G.& G.U.U.U.U.    .           7 T T T T T T T T T T T T T T T T T T T T T T T T T T ",
"T T T T T T T T T T T T T T T T T T T T T T T T T $ Q G.0 K.U.U.U.G.  T / C         C T T T T T T T T T T T T T T T T T T T T T T T T T T T ",
"T T T T T T T T T T T T T T T T T T T T T T T T T $ Q J.H.L.U.U._ q H T T C         C T T T T T T T T T T T T T T T T T T T T T T T T T T T ",
"T T T T T T T T T T T T T T T T T T T T T T T T T $ Q U.U.U.U.) D F T T T C       o C T T T T T T T T T T T T T T T T T T T T T T T T T T T ",
"T T T T T T T T T T T T T T T T T T T T T T T T T $ y ' J._ _ D V / T T I 7         C T T T T T T T T T T T T T T T T T T T T T T T T T T T ",
"T T T T T T T T T T T T T T T T T T T T T T T T T 5 . * ) # # F T T U Z.6         # F T T T T T T T T T T T T T T T T T T T T T T T T T T T ",
"T T T T T T T T T T T T T T T T T T T T T T T T T T V . . . P / T T T T 6         L T T T T T T T T T T T T T T T T T T T T T T T T T T T T ",
"T T T T T T T T T T T T T T T T T T T T T T T T T T Y L L L Y T T T T T 4         L T T T T T T T T T T T T T T T T T T T T T T T T T T T T ",
"T T T T T T T T T T T T T T T T T T T T T T T T T T T T T T T T T T T T 4         L T T T T T T T T T T T T T T T T T T T T T T T T T T T T ",
"T T T T T T T T T T T T T T T T T T T T T T T T T T T T T T T T T T T C $         L T T T T T T T T T T T T T T T T T T T T T T T T T T T T ",
"T T T T T T T T T T T T T T T T T T T T T T T T T T T T T T T T T T T           $ P T T T T T T T T T T T T T T T T T T T T T T T T T T T T ",
"T T T T T T T T T T T T T T T T T T T T T T T T T T T T T T T T T T T           T T T T T T T T T T T T T T T T T T T T T T T T T T T T T T ",
"T T T T T T T T T T T T T T T T T T T T T T T T T T T T T T T T T T T           T T T T T T T T T T T T T T T T T T T T T T T T T T T T T T ",
"T T T T T T T T T T T T T T T T T T T T T T T T T T T T T T T T T T T .         T T T T T T T T T T T T T T T T T T T T T T T T T T T T T T ",
"T T T T T T T T T T T T T T T T T T T T T T T T T T T T T T T T T Y 9           T T T T T T T T T T T T T T T T T T T T T T T T T T T T T T ",
"T T T T T T T T T T T T T T T T T T T T T T T T T T T T T T T T T L             T T T T T T T T T T T T T T T T T T T T T T T T T T T T T T ",
"T T T T T T T T T T T T T T T T T T T T T T T T T T T T T T T T T I             T T T T T T T T T T T T T T T T T T T T T T T T T T T T T T ",
"T T T T T T T T T T T T T T T T T T T T T T T T T T T T T T T T T L             T T T T T T T T T T T T T T T T T T T T T T T T T T T T T T ",
"T T T T T T T T T T T T T T T T T T T T T T T T T T T T T T T T T L o           $ $ F / T T T T T T T T T T T T T T T T T T T T T T T T T T ",
"T T T T T T T T T T T T T T T T T T T T T T T T T T T T T T T T T L             ( ( Z F T T T T T T T T T T T T T T T T T T T T T T T T T T ",
"T T T T T T T T T T T T T T T T T T T T T T T T T T T T T T T T U H         * E U.U.j 7 T T T T T T T T T T T T T T T T T T T T T T T T T T ",
"T T T T T T T T T T T T T T T T T T T T T T T T T T T T T T T T Z.P $       0 G.G.G.r 7 T T T T T T T T T T T T T T T T T T T T T T T T T T ",
"T T T T T T T T T T T T T T T T T T T T T T T T T T T T T T T T T T U .     . $ & & . 7 T T T T T T T T T T T T T T T T T T T T T T T T T T ",
"T T T T T T T T T T T T T T T T T T T T T T T T T T T T T T T T T / T L %     .       7 T T T T T T T T T T T T T T T T T T T T T T T T T T "
};
