/* XPM */
static char *_0dde601a2c14414d310754f94b77657K4Iy4gM7s0fuYBNf[] = {
/* columns rows colors chars-per-pixel */
"70 70 250 2 ",
"   c #0F1C15",
".  c gray8",
"X  c #171818",
"o  c gray11",
"O  c #241B1A",
"+  c #12211A",
"@  c #18271F",
"#  c #27221E",
"$  c #322513",
"%  c #1B1C23",
"&  c #1B1D29",
"*  c #291E29",
"=  c #3C1B24",
"-  c #1F2721",
";  c #1F2725",
":  c #142B21",
">  c #1B2825",
",  c #173426",
"<  c #1E3126",
"1  c #1A3A29",
"2  c #1C2B37",
"3  c #212420",
"4  c gray14",
"5  c #2A2325",
"6  c #262925",
"7  c #21212B",
"8  c #2C2B2B",
"9  c #372626",
"0  c #34232B",
"q  c #3D2228",
"w  c #302E2E",
"e  c #30362C",
"r  c #222233",
"t  c #2A2A36",
"y  c #23253C",
"u  c #27283C",
"i  c #372A36",
"p  c #343132",
"a  c #3A3737",
"s  c #43151E",
"d  c #593809",
"f  c #4B1721",
"g  c #431A24",
"h  c #471A27",
"j  c #481C25",
"k  c #561827",
"l  c #581C28",
"z  c #4B1A31",
"x  c #561A35",
"c  c #6B0E25",
"v  c #720B25",
"b  c #700D25",
"n  c #661026",
"m  c #671126",
"M  c #641427",
"N  c #671727",
"B  c #631629",
"V  c #651528",
"C  c #6C1228",
"Z  c #69122C",
"A  c #62182F",
"S  c #681431",
"D  c #651835",
"F  c #631B3B",
"G  c #462327",
"H  c #462429",
"J  c #45252A",
"K  c #54272F",
"L  c #542B2D",
"P  c #543E28",
"I  c #483639",
"U  c #543332",
"Y  c #583131",
"T  c #64222D",
"R  c #643338",
"E  c #1D422E",
"W  c #35502F",
"Q  c #224D34",
"!  c #224638",
"~  c #245236",
"^  c #2B5737",
"/  c #265539",
"(  c #295B3B",
")  c #37612D",
"_  c #2C623F",
"`  c #5D411B",
"'  c #4A5719",
"]  c #6B4709",
"[  c #744C07",
"{  c #6D4917",
"}  c #514931",
"|  c #6E4E2C",
" . c #7B5925",
".. c #654A36",
"X. c #556F30",
"o. c #252946",
"O. c #292B46",
"+. c #292C4A",
"@. c #302B48",
"#. c #243246",
"$. c #2C304E",
"%. c #383748",
"&. c #292E53",
"*. c #2B3554",
"=. c #2D3659",
"-. c #363955",
";. c #31355B",
":. c #313762",
">. c #343A65",
",. c #3B3D67",
"<. c #363D6C",
"1. c #393E6E",
"2. c #383F70",
"3. c #621D40",
"4. c #5B2043",
"5. c #5A3C42",
"6. c #433C58",
"7. c #523450",
"8. c #732740",
"9. c #7A2D48",
"0. c #73314A",
"q. c #6D3451",
"w. c #4B3768",
"e. c #4C3D69",
"r. c #2B5346",
"t. c #2D4553",
"y. c #334B53",
"u. c #2D6541",
"i. c #2F6842",
"p. c #316B44",
"a. c #347147",
"s. c #37764A",
"d. c #38456A",
"f. c #3B4374",
"g. c #3E467E",
"h. c #454141",
"j. c #4A4646",
"k. c #4C4848",
"l. c #594D4D",
"z. c #435844",
"x. c #494658",
"c. c #5C4B5C",
"v. c #644849",
"b. c #6A5942",
"n. c #785244",
"m. c #634B56",
"M. c #604C58",
"N. c #6A5454",
"B. c #725658",
"V. c #546E45",
"C. c #72694B",
"Z. c #42436B",
"A. c #4A466A",
"S. c #4C4C6D",
"D. c #535069",
"F. c #565268",
"G. c #424573",
"H. c #43437A",
"J. c #414678",
"K. c #464979",
"L. c #5B5777",
"P. c #735667",
"I. c #695874",
"U. c #705A71",
"Y. c #6B6C7B",
"T. c #AE002C",
"R. c #A9092F",
"E. c #835C0B",
"W. c #956A0D",
"Q. c #9C7411",
"!. c #88593D",
"~. c #8A6927",
"^. c #853C59",
"/. c #865C46",
"(. c #8C5D44",
"). c #815A4D",
"_. c #845D54",
"`. c #8D6A48",
"'. c #946249",
"]. c #9B664E",
"[. c #9A6A4E",
"{. c #876759",
"}. c #966753",
"|. c #A46C52",
" X c #A37253",
".X c #AC7156",
"XX c #AA7A59",
"oX c #B7785C",
"OX c #B27D5C",
"+X c #924465",
"@X c #887170",
"#X c #967677",
"$X c #A07A61",
"%X c #AA7C6D",
"&X c #5B8729",
"*X c #64972D",
"=X c #66992E",
"-X c #6DA231",
";X c #73AA32",
":X c #7BB536",
">X c #BD9D22",
",X c #918752",
"<X c #AD8152",
"1X c #B5825D",
"2X c #9D986E",
"3X c #AD8B6B",
"4X c #B58363",
"5X c #BC8563",
"6X c #BB8968",
"7X c #BA9169",
"8X c #BE9779",
"9X c #C7965F",
"0X c #C48564",
"qX c #C78B68",
"wX c #CA8E6B",
"eX c #CC926D",
"rX c #D1956E",
"tX c #C79773",
"yX c #D49C74",
"uX c #D69F7A",
"iX c #CAA17B",
"pX c #D6A379",
"aX c #DBA47C",
"sX c #E1AA7D",
"dX c #555C8F",
"fX c #5F6387",
"gX c #6F7188",
"hX c #757890",
"jX c #747A9C",
"kX c #787EA9",
"lX c #8A8F9C",
"zX c #A19C9F",
"xX c #8E93A7",
"cX c #B1ACA9",
"vX c #D09F80",
"bX c #C2A185",
"nX c #DDAB84",
"mX c #E2AD82",
"MX c #E7B487",
"NX c #EBBA8D",
"BX c #EABC94",
"VX c #F3C595",
"CX c #F3C79B",
"ZX c #F7CB9D",
"AX c #F8CD9E",
"SX c #F9CFA2",
"DX c #FCD3A5",
"FX c #FDD6A8",
"GX c #FFD9AC",
"HX c #A7B0C5",
/* pixels */
"g.g.g.g.g.g.g.g.g.g.g.g.g.g.g.g.g.g.g.g.g.g.g.g.g.g.g.g.g.g.g.g.g.g.g.g.g.dX2.g.g.g.g.g.g.g.g.g.g.g.g.g.g.g.g.g.g.g.g.g.g.g.g.g.g.g.g.g.g.g.",
"g.g.g.g.g.g.g.g.g.g.g.g.g.g.g.g.g.g.g.g.g.g.g.g.g.g.g.g.g.g.g.g.,.%.h.h.h.y.;.g.g.g.g.g.g.g.g.g.g.g.g.g.g.g.g.g.g.g.g.g.g.g.g.g.g.g.g.g.g.g.",
"g.g.g.g.g.g.g.g.g.g.g.g.g.g.g.g.g.g.g.g.g.g.g.g.g.g.g.g.g.g.J.2.a j.k.k.k.k.i g.g.g.g.g.g.g.g.g.g.g.g.g.g.g.g.g.g.g.g.g.g.g.g.g.g.g.g.g.g.g.",
"g.g.g.g.g.g.g.g.g.g.g.g.g.g.g.g.g.g.g.g.g.g.g.g.g.g.g.g.g.g.g.:.h.k.h.a p a u g.g.g.g.g.g.g.g.g.g.g.g.g.g.g.g.g.g.g.g.g.g.g.g.g.g.g.g.g.g.g.",
"g.g.g.g.g.g.g.g.g.g.g.g.g.g.g.g.g.g.g.g.g.g.g.g.g.g.g.g.g.g.2.o.h.k.j.z.j.h.t =.2.g.g.g.g.g.g.g.g.g.g.g.g.g.g.g.g.g.g.g.g.g.g.g.g.g.g.g.g.g.",
"g.g.g.g.g.g.g.g.g.g.g.g.g.g.g.g.g.g.g.g.g.g.g.g.g.g.g.g.g.g.dX;.} ..l.`.X.b.# +.2.dXg.g.g.g.g.g.g.g.g.g.g.g.g.g.g.g.g.g.g.g.g.g.g.g.g.g.g.g.",
"g.g.g.g.g.g.g.g.g.g.g.g.g.g.g.g.g.g.g.g.g.g.g.g.g.g.g.g.g.g.g.A.6XmXiXVX2XiX} 6 %.2.g.g.g.g.g.g.g.g.g.g.g.g.g.g.g.g.g.g.g.g.g.g.g.g.g.g.g.g.",
"g.g.g.g.g.g.g.g.g.g.g.g.g.g.g.g.g.g.g.g.g.g.f...x.J.g.g.g.g.g.G.{.BXpXNX,X`.z.>.&.+.g.g.g.g.g.g.g.g.g.g.g.g.g.g.g.g.g.g.g.g.g.g.g.g.g.g.g.g.",
"g.g.g.g.g.g.g.g.g.g.g.g.g.g.g.g.g.g.g.g.g.I.%XE.[ x.g.g.g.f.dXJ.B.iXpX0X|.(.jXfXL.L.gXhXhXhXhXhXgXjXhXhXhXkXkXdXg.g.g.g.g.g.g.g.g.g.g.g.g.g.",
"g.g.g.g.g.g.g.g.g.g.g.g.g.g.g.g.f.d.2.f.6XuXuX5XW.C.jXgXL.D.I.Y.F./.(.(.5XwXl.u u +.&.&.&.&.&.&.&.&.&.&.&.&.&.2.g.g.g.g.g.g.g.g.g.g.g.g.g.g.",
"g.g.g.g.g.g.g.g.g.g.g.g.g.g.N.b.L.F.x.D.n.XX4X7X .E.u u u O.&.&.%.n.oX'.wXMXnX#XK.g.g.g.g.g.g.g.g.g.g.g.dX2.g.g.g.g.g.g.g.g.g.g.g.g.g.g.g.g.",
"g.g.g.g.g.g.g.g.g.g.g.g.g.g.~.~.2 o.o.y n.(.'.5X| d g.g.g.g.U.#X5X'..XOX5XrXGXZX@XG.g.g.g.g.g.g.g.g.g.g.g.g.g.g.g.g.g.g.g.g.g.g.g.g.g.g.g.g.",
"g.g.g.g.g.g.g.g.g.g.g.g.g.g.d.d.<.g.g.G.}.].oXqX..e.g.g.2.U.mXnX.X.X'. X'. XmXaXOX8X3XI.g.g.g.g.g.g.g.g.g.g.g.g.g.g.g.g.g.g.g.g.g.g.g.g.g.g.",
"g.g.g.g.g.g.g.g.g.g.g.g.g.g.g.K.g.g.g.g.c.}.wX4XA.g.g.g.dX6XZXGXBXMXDXGXGXFXsXVXDXDXFXtXG.g.g.g.g.g.g.g.g.g.g.g.g.g.g.g.g.g.g.g.g.g.g.g.g.g.",
"g.g.g.g.g.g.g.g.g.g.g.g.g.g.g.g.g.g.g.g.g.M.nXVXP.g.g.g.U.OXFXSXNXGXGXGXGXCX0XmXDXGXGXBXm.2.g.g.g.g.g.g.g.g.g.g.g.g.g.g.g.g.g.g.g.g.g.g.g.g.",
"g.g.g.g.g.g.g.g.g.g.g.g.g.g.g.g.g.g.g.g.g.J. XCXnXK.g.K.{.4XBXnXVXGXGXGXSXrX|..XeXNXSXMXm.dXg.g.g.g.g.g.g.g.g.g.g.g.g.g.g.g.g.g.g.g.g.g.g.g.",
"g.g.g.g.g.g.g.g.g.g.g.g.g.g.g.g.g.g.g.g.g.g.{.NXSX#XK.%X8XnXtXOXCXGXGXFXuX.X].!.|.uXmXuX@Xg.g.g.g.g.g.g.g.g.g.g.g.g.g.g.g.g.g.g.g.g.g.g.g.g.",
"g.g.g.g.g.g.g.g.g.g.g.g.g.g.g.g.g.g.g.g.g.g.M.qXFXDX6XBXtX/.(.]. X6XtX4X(.].rXoXoXSXVXBXuXL.g.g.g.g.g.g.g.g.g.g.g.g.g.g.g.g.g.g.g.g.g.g.g.g.",
"g.g.g.g.g.g.g.g.g.g.g.g.g.g.g.g.g.g.g.g.g.g.Z.[.VXGXMXwX|.'.pX3XiX8XtX8X5X[.sXqX|.MXDXSXvXL.g.g.g.g.g.g.g.g.g.g.g.g.g.g.g.g.g.g.g.g.g.g.g.g.",
"g.g.g.g.g.g.g.g.g.g.g.g.g.g.g.g.g.g.g.g.g.g.g.B.rXDXSXmX|.'.XX[. X1X9XuXsX1XyX0X'.wXGXSXBXU.g.g.g.g.g.g.g.g.g.g.g.g.g.g.g.g.g.g.g.g.g.g.g.g.",
"g.g.g.g.g.g.g.g.g.g.g.g.g.g.g.g.g.g.g.g.g.g.g.A.OXmXMX4X.X/.tXtXXXpXQ.<XBXsXrXoX_.}.AXZXBX#Xg.g.g.g.g.g.g.g.g.g.g.g.g.g.g.g.g.g.g.g.g.g.g.g.",
"g.g.g.g.g.g.g.g.g.g.g.g.g.g.g.g.g.g.g.g.g.g.g.g.c.|.'.n.c.A.4XnX/.!.@XbXVXeXoX_.J.M.wXaXMX8Xg.g.g.g.g.g.g.g.g.g.g.g.g.g.g.g.g.g.g.g.g.g.g.g.",
"g.g.g.g.g.g.g.g.g.g.g.g.g.g.g.g.g.g.g.g.g.g.g.g.g.c.B.G.g.f.XXyXXX3XlXcXmXoX_.G.K.Z.'.'.MXuXL.g.g.g.g.g.g.g.g.g.g.g.g.g.g.g.g.g.g.g.g.g.g.g.",
"g.g.g.g.g.g.g.g.g.g.g.g.g.g.g.g.g.g.g.g.g.g.g.g.g.g.g.g.f.X.,X7X4X X2XcXaX].J.J.d.| v.|.CXtXU.g.g.g.g.g.g.g.g.g.g.g.g.g.g.g.g.g.g.g.g.g.g.g.",
"g.g.g.g.g.g.g.g.g.g.g.g.g.g.g.g.g.g.g.g.g.g.g.g.g.g.g.g.V.&X=X&X,X,X2XzXqXR.g.g.j. .} oXNXNXU.g.g.g.g.g.g.g.g.g.g.g.g.g.g.g.g.g.g.g.g.g.g.g.",
"g.g.g.g.g.g.g.g.g.g.g.g.g.g.g.g.g.g.g.g.g.g.g.g.g.g.g.f.&X*X-X;X=X:XV.xXT.T.H.g.Z.U J |.sXVXU.g.g.g.g.g.g.g.g.g.g.g.g.g.g.g.g.g.g.g.g.g.g.g.",
"g.g.g.g.g.g.g.g.g.g.g.g.g.g.g.g.g.g.g.g.g.g.g.g.g.g.f.y.&X*X*X:X-X;X-XkXT.T.H.g.g.&.0 /.rXVXU.g.g.g.g.g.g.g.g.g.g.g.g.g.g.g.g.g.g.g.g.g.g.g.",
"g.g.g.g.g.g.g.g.g.g.g.g.g.g.g.g.g.g.g.g.g.g.g.g.g.K.#.W =X-X&X*X;X=X-X2X$X>XC.g.g.f.* R uXZXU.J.g.g.g.g.g.g.g.g.g.g.g.g.g.g.g.g.g.g.g.g.g.g.",
"g.g.g.g.g.g.g.g.g.g.g.g.g.g.g.g.g.g.g.g.g.g.g.g.g.g.! ) *X=X:X*X;X&XQ.@XC.Q. .g.g.g.+.J wXCXI.2.g.g.g.g.g.g.g.g.g.g.g.g.g.g.g.g.g.g.g.g.g.g.",
"g.g.g.g.g.g.g.g.g.g.g.g.g.g.g.g.g.g.g.g.g.g.g.g.g.t._ E ) ) -XX.-X' [ { ] [ } g.g.g.<.J 0XBXU.dXg.g.g.g.g.g.g.g.g.g.g.g.g.g.g.g.g.g.g.g.g.g.",
"g.g.g.g.g.g.g.g.g.g.g.g.g.g.g.g.g.g.g.g.g.g.g.g.g.r.i.~ u.a.Q Q ^ ) ] ] { | g.g.2.g.G.).oXmXP.e.g.g.g.g.g.g.g.g.g.g.g.g.g.g.g.g.g.g.g.g.g.g.",
"g.g.g.g.g.g.g.g.g.g.g.g.g.g.g.g.g.g.g.g.g.g.g.g.t.p.~ Q _ s.a.a.i._ W W hXHX7.e.dXJ.B..X{ !.{ P 2.g.g.g.g.g.g.g.g.g.g.g.g.g.g.g.g.g.g.g.g.g.",
"g.g.g.g.g.g.g.g.g.g.g.g.g.g.g.g.g.g.g.g.g.g.g.t.~ ( , ~ ( s.s.s./ p.a p P.P.^.q.g.g.n.!.] ] ] P d.g.g.g.g.g.g.g.g.g.g.g.g.g.g.g.g.g.g.g.g.g.",
"g.g.g.g.g.g.g.g.g.g.g.g.g.g.g.g.g.g.g.g.g.g.f.r.p.( Q Q ( p.s.~ _ ( 0.^.^.+X+X^.2.g.g.v.d [ ` * g.J.g.g.g.g.g.g.g.g.g.g.g.g.g.g.g.g.g.g.g.g.",
"g.g.g.g.g.g.g.g.g.g.g.g.g.g.g.g.g.g.g.g.g.g.d./ p.^ / / a._ Q ~ s.z.+X^.0.^.+X^.e.g.g.d.d [ I q :.g.g.g.g.g.g.g.g.g.g.g.g.g.g.g.g.g.g.g.g.g.",
"g.g.g.g.g.g.g.g.g.g.g.g.g.g.g.g.g.g.g.g.g.g.y.s.p.p.N c _ s.u.s.i.I 9.9.9.8.C v g.g.g.g.x.6.-.I r f.g.g.g.g.g.g.g.g.g.g.g.g.g.g.g.g.g.g.g.g.",
"g.g.g.g.g.g.g.g.g.g.g.g.g.g.g.g.g.g.g.g.g.g.r.s.s.L b v e i.s.s.E J v v v v M v g.g.g.g.g.g.d.%.= *.g.g.g.g.g.g.g.g.g.g.g.g.g.g.g.g.g.g.g.g.",
"g.g.g.g.g.g.g.g.g.g.g.g.g.g.g.g.g.g.g.g.g.g.r.s.T n v v j > E , 9 v v v v v v v g.g.g.g.g.g.g.d.I * g.g.g.g.g.g.g.g.g.g.g.g.g.g.g.g.g.g.g.g.",
"g.g.g.g.g.g.g.g.g.g.g.g.g.g.g.g.g.g.g.g.g.t.s.Y v v v v h 4 > , 9 v v v v v v V g.g.g.g.g.g.g.f.%.q >.J.g.g.g.g.g.g.g.g.g.g.g.g.g.g.g.g.g.g.",
"g.g.g.g.g.g.g.g.g.g.g.g.g.g.g.g.g.g.g.g.g.f.t.Z v v v s 3 -   , 9 v v v v v v v D g.g.g.g.g.g.g.2.I * 2.g.g.g.g.g.g.g.g.g.g.g.g.g.g.g.g.g.g.",
"g.g.g.g.g.g.g.g.g.g.g.g.g.g.g.g.g.g.g.g.g.g.g.S v v v s 6 o X , 9 v v v v v v v D g.g.g.g.g.g.g.H.&.J o.g.g.g.g.g.g.g.g.g.g.g.g.g.g.g.g.g.g.",
"g.g.g.g.g.g.g.g.g.g.g.g.g.g.g.g.g.g.g.g.g.g.w.v v v v s 3 * : , , l v v v v v v v F g.g.g.g.g.g.g.f.c.J <.g.g.g.g.g.g.g.g.g.g.g.g.g.g.g.g.g.",
"g.g.g.g.g.g.g.g.g.g.g.g.g.g.g.g.g.g.g.g.g.g.4.v v v v f 4 6 > : , l v v v v v v v D g.g.g.g.g.g.g.g.S.c.y 2.g.g.g.g.g.g.g.g.g.g.g.g.g.g.g.g.",
"g.g.g.g.g.g.g.g.g.g.g.g.g.g.g.g.g.g.g.g.g.g.S v v v v h 4 6 > : , 9 v v v v v v v b 3.g.g.g.g.g.g.g.J.D.h ;.g.g.g.g.g.g.g.g.g.g.g.g.g.g.g.g.",
"g.g.g.g.g.g.g.g.g.g.g.g.g.g.g.g.g.g.g.g.g.g.S v v v v : 4 6 : : , 9 v v v v v v v v F g.g.g.g.g.g.g.g.G.m.* J.g.g.g.g.g.g.g.g.g.g.g.g.g.g.g.",
"g.g.g.g.g.g.g.g.g.g.g.g.g.g.g.g.g.g.g.g.g.g.x v v v v 3 6 4 : : , , l v v v v v v v v F g.g.g.g.g.g.g.g.S.5.o.J.g.g.g.g.g.g.g.g.g.g.g.g.g.g.",
"g.g.g.g.g.g.g.g.g.g.g.g.g.g.g.g.g.g.g.g.g.g.z v v v v # 8 4 X + , , G v v v v v v v v A g.g.g.g.g.g.g.g.2.D.* >.g.g.g.g.g.g.g.g.g.g.g.g.g.g.",
"g.g.g.g.g.g.g.g.g.g.g.g.g.g.g.g.g.g.g.g.g.f.5 v v v v k 4 * o + , , , b v v v v v v v v D g.g.g.g.g.g.g.dXK.5.0 f.g.g.g.g.g.g.g.g.g.g.g.g.g.",
"g.g.g.g.g.g.g.g.g.g.g.g.g.g.g.g.g.g.g.g.g.*., < v v j > 4 * o + , , , l v v v v v v v v b D g.g.g.g.g.g.g.g.F.U *.g.g.g.g.g.g.g.g.g.g.g.g.g.",
"g.g.g.g.g.g.g.g.g.g.g.g.g.g.g.g.g.g.g.g.f.2 , , : < , o 8 6 #   : , , , b v v v v v v v v V g.g.g.g.g.g.g.g.K.F.= ;.g.g.g.g.g.g.g.g.g.g.g.g.",
"g.g.g.g.g.g.g.g.g.g.g.g.g.g.g.g.g.g.g.g.*., , 1 : , : 6 8 4 @   , , , , l v v v v v b b m v g.g.g.g.g.g.g.g.g.S.v.r dXg.g.g.g.g.g.g.g.g.g.g.",
"g.g.g.g.g.g.g.g.g.g.g.g.g.g.g.g.g.g.g.g.f.=.#.2 : : > 6 w 3 .   , , , , , b v v v v - 3 *.1.g.g.g.g.g.g.g.g.g.g.S.U o.f.g.g.g.g.g.g.g.g.g.g.",
"g.g.g.g.g.g.g.g.g.g.g.g.g.g.g.g.g.g.g.g.g.g.g.g.<.#.o p p 4 O o , , , , , J v c H 4 X #.g.g.g.g.g.g.g.g.g.g.g.g.G.F.* <.g.g.g.g.g.g.g.g.g.g.",
"g.g.g.g.g.g.g.g.g.g.g.g.g.g.g.g.g.g.g.g.g.g.g.g.g.g.o 6 p o 8 X &.*.*.*.&.2 % p a 4 # 7 g.g.g.g.g.g.g.g.g.g.g.g.G.Z.m.= <.g.g.g.g.g.g.g.g.g.",
"g.g.g.g.g.g.g.g.g.g.g.g.g.g.g.g.g.g.g.g.g.g.g.g.g.:.4 8 6 4 * > o.g.H.g.g.<.o 6 p 6 6 o O.f.g.g.g.g.g.g.g.g.g.g.g.g.e.I @.f.g.g.g.g.g.g.g.g.",
"g.g.g.g.g.g.g.g.g.g.g.g.g.g.g.g.g.g.g.g.g.g.g.g.g.;.8 8 p 8 . 4 $.g.g.g.g.g.O o 8 8 p o 4 u g.g.g.g.g.g.g.g.g.g.g.g.dXS.K +.g.g.g.g.g.g.g.g.",
"g.g.g.g.g.g.g.g.g.g.g.g.g.g.g.g.g.g.g.g.g.g.g.g.dXf.7 6 8 X % +.f.g.g.g.g.g.d $ o 8 p X 6 o g.g.g.g.g.g.g.g.g.g.g.g.g.g.Z.6.g.g.g.g.g.g.g.g.",
"g.g.g.g.g.g.g.g.g.g.g.g.g.g.g.g.g.g.g.g.g.g.g.g.f.J.>.. o 8 & g.g.g.g.g.g.g.} $ 6 p 4 * o +.g.g.g.g.g.g.g.g.g.g.g.g.g.g.J.g.g.g.g.g.g.g.g.g.",
"g.g.g.g.g.g.g.g.g.g.g.g.g.g.g.g.g.g.g.g.g.g.g.g.g.g.:.. 5 4 7 g.g.g.g.g.g.g.g.;.4 4 o 4 5 y g.g.g.g.g.g.g.g.g.g.g.g.g.g.g.g.g.g.g.g.g.g.g.g.",
"g.g.g.g.g.g.g.g.g.g.g.g.g.g.g.g.g.g.g.g.g.g.g.g.g.g.f.> i a & g.g.g.g.g.g.g.g.g.<.& o 4 > y g.g.g.g.g.g.g.g.g.g.g.g.g.g.g.g.g.g.g.g.g.g.g.g.",
"g.g.g.g.g.g.g.g.g.g.g.g.g.g.g.g.g.g.g.g.g.g.g.g.g.g.g.y 4 8 > g.g.g.g.g.g.g.g.g.g.+.* 8 8 r g.g.g.g.g.g.g.g.g.g.g.2.g.g.g.g.g.g.g.g.g.g.g.g.",
"g.g.g.g.g.g.g.g.g.g.g.g.g.g.g.g.g.g.g.g.g.g.g.g.g.g.g.y o 4 r g.g.g.g.g.g.g.g.g.g.g.o 4 7 X g.g.g.g.g.g.g.g.g.g.g.dXg.g.g.g.g.g.g.g.g.g.g.g.",
"g.g.g.g.g.g.g.g.g.g.g.g.g.g.g.g.g.g.g.g.g.g.g.g.g.g.:.% # 4 7 f.g.g.g.g.g.g.g.g.g.g.*.4 % o :.g.g.g.g.g.g.g.g.g.g.g.g.g.g.g.g.g.g.g.g.g.g.g.",
"g.g.g.g.g.g.g.g.g.g.g.g.g.g.g.g.g.g.g.g.g.g.g.g.>.o.& & * 8 > +.g.g.g.g.g.g.g.g.g.g.f.r 4 8 &.g.g.g.g.g.g.g.g.g.g.g.g.g.g.g.g.g.g.g.g.g.g.g.",
"g.g.g.g.g.g.g.g.g.g.g.g.g.g.g.g.g.g.g.g.g.g.f.O.> 4 a a 4 6 4 +.g.g.g.g.g.g.g.g.g.g.g.=.X O 2 g.g.g.g.g.g.g.g.g.g.g.g.g.g.g.g.g.g.g.g.g.g.g.",
"g.g.g.g.g.g.g.g.g.g.g.g.g.g.g.g.g.g.g.g.g.g.o.% o * o X & . . &.g.g.g.g.g.g.g.g.g.g.g.<.* 6 * f.g.g.g.g.g.g.g.g.g.g.g.g.g.g.g.g.g.g.g.g.g.g.",
"g.g.g.g.g.g.g.g.g.g.g.g.g.g.g.g.g.g.g.g.g.g.=.& t t y =.<.&.+.<.g.g.g.g.g.g.g.g.g.g.g.=.4 4 * &.g.g.g.g.g.g.g.g.g.g.g.g.g.g.g.g.g.g.g.g.g.g.",
"g.g.g.g.g.g.g.g.g.g.g.g.g.g.g.g.g.g.g.g.g.g.g.g.g.g.g.g.g.g.g.g.g.g.g.g.g.g.g.g.g.g.f.& 6 a @ & g.g.g.g.g.g.g.g.g.g.g.g.g.g.g.g.g.g.g.g.g.g.",
"g.g.g.g.g.g.g.g.g.g.g.g.g.g.g.g.g.g.g.g.g.g.g.g.g.g.g.g.g.g.g.g.g.g.g.g.g.g.g.g.g.g.2.& o 4 o y g.g.g.g.g.g.g.g.g.g.g.g.g.g.g.g.g.g.g.g.g.g.",
"g.g.g.g.g.g.g.g.g.g.g.g.g.g.g.g.g.g.g.g.g.g.g.g.g.g.g.g.g.g.g.g.g.g.g.g.g.g.g.g.g.g.g.g.g.g.g.g.g.g.g.g.g.g.g.g.g.g.g.g.g.g.g.g.g.g.g.g.g.g."
};
