/* XPM */
static char *_41b9ddc1a814f0cbc2e77198dfedff6Zg4YXOYBKKXrCfhY[] = {
/* columns rows colors chars-per-pixel */
"70 70 172 2 ",
"   c #000000",
".  c #06070B",
"X  c #0D0D0D",
"o  c #0A0700",
"O  c #170805",
"+  c #1B1C00",
"@  c #141400",
"#  c #0A0C15",
"$  c #0C0E19",
"%  c #0D121F",
"&  c #101010",
"*  c #19191A",
"=  c #340000",
"-  c #3F0000",
";  c #291D13",
":  c #1F2117",
">  c #2A2B00",
",  c #232400",
"<  c #323300",
"1  c #3C3D00",
"2  c #332518",
"3  c #313414",
"4  c #121424",
"5  c #16192D",
"6  c #161826",
"7  c #191C32",
"8  c #111E33",
"9  c #1E223D",
"0  c #232323",
"q  c #24252E",
"w  c gray18",
"e  c #332A2C",
"r  c #322D39",
"t  c #333333",
"y  c #3A383B",
"u  c #2B2E35",
"i  c #4D0000",
"p  c #530000",
"a  c #540F0A",
"s  c #521717",
"d  c #6A0000",
"f  c #780000",
"g  c #6A1016",
"h  c #4D3724",
"j  c #4B3C3E",
"k  c #4B2121",
"l  c #504E06",
"z  c #734800",
"x  c #5D6007",
"c  c #636600",
"v  c #626514",
"b  c #777A00",
"n  c #5A4332",
"m  c #664930",
"M  c #775638",
"N  c #1E345A",
"B  c #182A49",
"V  c #212543",
"C  c #252A4C",
"Z  c #2B2F49",
"A  c #2E3143",
"S  c #363846",
"D  c #373545",
"F  c #2A2F54",
"G  c #2C325A",
"H  c #30365E",
"J  c #2F3560",
"K  c #223B66",
"L  c #323865",
"P  c #343B6B",
"I  c #313763",
"U  c #383F71",
"Y  c #394175",
"T  c #3E467E",
"R  c #28477A",
"E  c #424242",
"W  c #4C4C4C",
"Q  c #545454",
"!  c #5D5D5D",
"~  c #504C4C",
"^  c #505E67",
"/  c #626262",
"(  c DimGray",
")  c #757575",
"_  c #777778",
"`  c #7C7C7C",
"'  c #800000",
"]  c #990000",
"[  c #9F1414",
"{  c #B30000",
"}  c #A70000",
"|  c #DF0000",
" . c #D30505",
".. c #EA0000",
"X. c #FD0000",
"o. c #FF001A",
"O. c #FF120C",
"+. c #FF2518",
"@. c #FF2317",
"#. c #FF1D28",
"$. c #FF2C3C",
"%. c #816600",
"&. c #825D3D",
"*. c #9B422B",
"=. c #836B2B",
"-. c #FC520F",
";. c #FE4833",
":. c #FF004C",
">. c #FF0A45",
",. c #FF0057",
"<. c #FF045F",
"1. c #FF1F5B",
"2. c #E43B44",
"3. c #FF0077",
"4. c #996E48",
"5. c #946A46",
"6. c #8C6645",
"7. c #A97951",
"8. c #8F766E",
"9. c #FF7D52",
"0. c #EB6E48",
"q. c #7C8000",
"w. c #8B8F00",
"e. c #949900",
"r. c #9EA300",
"t. c #ADB300",
"y. c #AEB401",
"u. c #BCC200",
"i. c #C6CC00",
"p. c #DCE300",
"a. c #F7FF00",
"s. c #F7FF0A",
"d. c #F3FA0D",
"f. c #FAD633",
"g. c #F9FF33",
"h. c #F8FF2E",
"j. c #B38054",
"k. c #B88456",
"l. c #BA8659",
"z. c #C28B5B",
"x. c #CC9360",
"c. c #D49964",
"v. c #FF9561",
"b. c #FF876D",
"n. c #E6A56C",
"m. c #F0AC71",
"M. c #FFB778",
"N. c #F8B073",
"B. c #F9FF48",
"V. c #FAFF66",
"C. c #335A9C",
"Z. c #3A65B0",
"A. c #FF0080",
"S. c #FF64B2",
"D. c #5188EC",
"F. c #838383",
"G. c #8B8B8B",
"H. c #9B9B9B",
"J. c #929292",
"K. c #A19D9D",
"L. c #8F90A3",
"P. c #93A0B5",
"I. c #A3A3A3",
"U. c #FF968E",
"Y. c #FBFF88",
"T. c #FFD4AE",
"R. c #EDC4AB",
"E. c #FFB3D9",
"W. c #E1CCCC",
"Q. c #FFCCE6",
"!. c #FEFFE4",
"~. c white",
/* pixels */
"T T T T T T T T T T T T T T T T T T T T T C # $ $ P T T Y T T T T T T T T T T T T T T T T T T T T T T T T T T T T T T T T T T T T T T T T T ",
"T T T T T T T T T T T T T T T T T T T T C j &.&.&.A I T Y C.T T T 2.2.2.T 2.2.2.T T T T T T T T T T T T T T T T T T T T T T T T T T T T T T ",
"T T T T T T T T T T T T T T T T T T T T $ &.M.M.M.&.D C C C C P 2.2.2.2.2.2.2.2.2.T T T T T T T T T T T T T T T T T T T T T T T T T T T T T ",
"T T T T T T T T T T T T T T T T T T T T $ &.M.M.M.M.&.2 2 2   G 2.2.2.2.2.2.~.2.2.T T T T T T T T T T T T T T T T T T T T T T T T T T T T T ",
"T T T T T T T T T T T T T T T T T T T T $ &.M.M.M.M.m.n.n.n.. F 2.2.2.2.2.2.2.2.2.T T T T T T T T T T T T T T T T T T T T T T T T T T T T T ",
"T T T T T T T T T T T T T T T T T T T T $ &.M.M.M.M.M.M.c.2 P Y T 2.2.2.2.2.2.2.T T T T T T T T T T T T T T T T T T T T T T T T T T T T T T ",
"T T T T T T T T T T T T T T T T T T T T F D m &.m.M.M.x.j C T T T T 2.2.2.2.2.T T T T T T T T T T T T T T T T T T T T T T T T T T T T T T T ",
"T T T T T T T T T T T T T T T T T T T T T F 7 V 6.4.4.h $ ^ T T J C C 2.2.2.C F T T T T T T T T T T T T T T T T T T T T T T T T T T T T T T ",
"T T T T T T T T T T T T T T T T T T T T T T T P 4       # L L L e < < < 2.< < 3 I L Y C.T T T T T T T U T T T T T T T T T T T T T T T T T T ",
"T T T T T T T T T T T T T T T T T T T T T T T T C.$             e.a.a.a.a.a.a.i.    H U T T T T T T T C.T T T T T T T T T T T T T T T T T T ",
"T T T T T T T T T T T T T T T T T T T T T T T T U &         a.a.a.a.a.a.a.a.a.a.a.a.< 9 T T T T T T L . T T T T T T T T T T T T T T T T T T ",
"T T T T T T T T T T T T T T T T T T T T T T T T T H 4   , t.a.a.a.a.a.a.a.a.a.a.a.a.u.v 7 T T T T F e 7.4 J T T T T T T T T T T T T T T T T ",
"T T T T T T T T T T T T T T T T T T T T T T T T T T 7   < a.V.V.V.B.a.a.t.e.i.a.a.a.a.b $ ^ U T T C 2 v.m D J T T T T T T T T T T T T T T T ",
"T T T T T T T T T T T T T T T T T T T T T T T T T T 7 @ x a.~.~.!.Y.a.i.l X c s.h.s.a.e.0 L C.T T F e l.N.M r L I I T T T T T T T T T T T T ",
"T T T T T T T T T T T T T T T T T T T T T T T T T T 7 c a.a.~.~.V.a.a.  x.m x g.!.g.a.a.i.. U T ^ U L . M.M.4.  o   L T T T T T T T T T T T ",
"T T T T T T T T T T T T T T T T T T T T T T T T T ^ 7 c a.a.a.a.a.y.  M.M.M.4.r ~.~.~.Y.i.. U T Y C.L . M.M.M.M.M.M.2 C T T T T T T T T T T ",
"T T T T T T T T T T T T T T T T T T T T T T T T T T 7 c a.a.a.a.s.t.  +.@.9.0. .;.f.h.h.a.y.: P T F # . M.M.M.M.M.M.c.n V U T T T T C.T T T ",
"T T T T T T C.T T T T T T T T T T T T T T T T T T T 7 c a.a.a.a.r.z ] U.1.$.2.:.>.-.%.t.p.x A U C F W O m c.M.M.M.M.M.m 7 C.T T T T U ^ T T ",
"T T T T T T U ^ T T T T T T T T T T T T T T T T T T 7 c a.a.a.a.c i X.E.S.1.:.A.3.o.= q.i.. U J r / G.D   &.l.7.7.l.m.5.j J T T T T T T T T ",
"T T T T T T T T T T T T T T T T T T T T T T T T T T 7 c a.a.a.a.c i X.A.Q.S.A.A.3.o.= b i.. Y $ / I.I.I.            x.M.5.& T T T T T T T T ",
"T T T T T T T T T T T T T T T T T T T T T T T T T T 7   < p.a.a.c h M.O.<.3.3.<.@.v.2 q.i.  & F.H.J._ % . J T T T T 4 . . 4 T T T T T T T T ",
"T T T T T T T T T T T T T T T T T T T T T T T T T T 7   o < a.a.c h M.v.#.,.,.#.v.N.2 q.i.& _ H.Q 0 7 J L U T T T T L I J P T T T T T T T T ",
"T T T T T T T T T T T T T T T T T T T T T T T T T T J 5     c c =.k.M.M.v.$.$.9.M.M.2 < v ( H.Q Z C F T T T T T T T T T T T T T T T T T T T ",
"T T T T T T T T T T T T T T T T T T T T T T T T T T T H 7 7     8.T.T.T.T.b.b.M.N.7.~ E Q H.( u J ^ T T T T T T T T T T T T T T T T T T T T ",
"T T T T T T T T T T T T T T T T T T T T T T T T T T T T T T o   8.W.W.W.W.W.R.N.k.; ( J.H._ 6 P T T T T T T T T T T T T T T T T T T T T T T ",
"T T T T T T T T T T T T T T T T T T T T T T T T T T T T T T     - d d f f d *.l.      ~ _ $ U T T T T T T T T T T T T T T T T T T T T T T T ",
"T T T T T T T T T T T T T T T T T T T T T T T T T T T T T T     - d d | ..] a ;       & q L T T T T T T T T T T T T T T T T T T T T T T T T ",
"T T T T T T T T T T T T T T T T T T T T T T T T T T T T Y C.    o p | X.X...} s _ *   7 P T T T T T T T T T T T T T T T T T T T T T T T T T ",
"T T T T T T T T T T T T T T T T T T T T T T T T T T T T T T   N 8 = { X.X. .f k J.0 7 J T T T T T T T T T T T T T T T T T T T T T T T T T T ",
"T T T T T T T T T T T T T T T T T T T T T T T T T T T T Y L   Z.K O i ..| [ s * _ q P T T T T T T T T T T T T T T T T T T T T T T T T T T T ",
"T T T T T T T T T T T T T T T T T T T T T T T T T T T T L   $ C.N . . g g 8./   $ L T T T T T T T T T T T T T T T T T T T T T T T T T T T T ",
"T T T T T T T T T T T T T T T T T T T T T T T T T T T T L . D.N   B D.D.L.H./ $ U T T T T T T T T T T T T T T T T T T T T T T T T T T T T T ",
"T T T T T T T T T T T T T T T T T T T T T T T T T T T T L   D.B R C.9 P.I.Q u P T T T T T T T T T T T T T T T T T T T T T T T T T T T T T T ",
"T T T T T T T T T T T T T T T T T T T T T T T T T T T T L   R % C.Z.  I.Q Z F C.T T T T T T T T T T T T T T T T T T T T T T T T T T T T T T ",
"T T T T T T T T T T T T T T T T T T T T T T T T T T T P y c     N ^ x I.5 C Y ^ T T T T T T T T T T T T T T T T T T T T T T T T T T T T T T ",
"T T T T T T T T T T T T T T T T T T T T T T T T T T T C , i.      1 i.F.q F T T T T T T T T T T T T T T T T T T T T T T T T T T T T T T T T ",
"T T T T T T T T T T T T T T T T T T T T T T T T T T T C o @       o + & J U T T T T T T T T T ^ T T T T T T T T T T T T T T T T T T T T T T ",
"T T T T T T T T T T T T T T T T T T T T T T T T T T T C > i.    b w.    L T T T U C.6 $ 5 T T U T T T T T T T T T T T T T T T T T T T T T T ",
"T T T T T T T T T T T T T T T T T T T T T T T T T T T C @ c     1 l     5 I T T Y V .   . 7 Y C.T T T T T T T T T T T T T T T T T T T T T T ",
"T T T T T T T T T T T T T T T T T T T T T T T T T T T C                   C T T U $       . V C P T T T T T T T T T T T T T T T T T T T T T ",
"T T T T T T T T T T T T T T T T T T T T T T T T T T P 9 O <     + ,   0 0 Z P T Y #             9 U T T T T T T T T T T T T T T T T T T T T ",
"T T T T T T T T T T T T C.T T T T T T T T T T T T T 7   < a.    e.t.  I.I.E 7 T Y #             . 7 T T T T T T T T T T T T T T T T T T T T ",
"T T T T T T T T T T T T U T T T T T T T T T T T U &               t I.      9 L     F.Q             $ U T T T T T T T T T T T T T T T T T T ",
"T T T T T T T T T T T T ^ Y T T T T T T T T T T C.$               X t   ! w 5 K X ! H.G.!       E E $ U T T T T T T T T T T T T T T T T T T ",
"T T T T T T T T T T T T T T T T T T T T T T T T T V #                 E J.( G 9 X F.I.I.F.    t F./ % U T T T T T T T T T T T T T T T T T T ",
"T T T T T T T T T T T T T T T T T T T T T T T T T T 8 .               I.I.I._ 8 & F.I.I.F.  4 / ) W 7 U T T T T T T T T T T T T T T T T T T ",
"T T T T T T T T T T T T T T T T T T T T T T T T T T 7                 I.I.I.I.j.& F.I.I.F.. U $ o 5 C.Y T T T T T T T T T T T T T T T T T T ",
"T T T T T T T T T T T T T T T T T T T T T T T T T T ^ C         C T T   F.I.I.I.J.0 F.Q $ T T T T T T T T T T T T T T T T T ^ T T T T T T T ",
"T T T T T T T T T T T T T T T T T T T T T T T T T T T C         C T T L q ) I.I.H.G.H.Q $ T T T T T T T T T T T T T T T T T T T T T T T T T ",
"T T T T T T T T T T T T T T T T T T T T T T T T T T T C         C T T T F Z ( K.I.I.I.Q $ T T T T T T T T T T T T T T T T T T T T T T T T T ",
"T T T T T T T T T T T T T T T T T T T T T T T T T T T C         7 L T T T C D ) _ H.8.D $ T T T T T T T T T T T T T T T T T T T T T T T T T ",
"T T T T T T T T T T T T T T T T T T T T T T T T T T T F #         4 T T T T F $ X ( * . 5 T T T T T T T T T T T T T T T T T T T T T T T T T ",
"T T T T T T T T T T T T T T T T T T T T T T T T T T T T L         4 C.U T T T L . . . C T T T T T T T T T T T T T T T T T T T T T T T T T T ",
"T T T T T T T T T T T T T T T T T T T T T T T T T T T T L         5 T Y T T T Y J L J U T T T T T T T T T T T T T T T T T T T T T T T T T T ",
"T T T T T T T T T T T T T T T T T T T T T T T T T T T T L       o 4 T T T T T T T T C.U T T T T T T T T T T T T T T T T T T T T T T T T T T ",
"T T T T T T T T T T T T T T T T T T T T T T T T T T T T L         # Z T T T T T T T T ^ T T T T T T T T T T T T T T T T T T T T T T T T T T ",
"T T T T T T T T T T T T T T T T T T T T T T T T T T T T L X           C.Y T T T T T T T T T T T T T T T T T T T T T T T T T T T T T T T T T ",
"T T T T T T T T T T T T T T T T T T T T T T T T T T T T T C.        . T Y T T T T T T T T T T T T T T T T T T T T T T T T T T T T T T T T T ",
"T T T T T T T T T T T T T T T T T T T T T T T T T T T T T T           T T T T T T T T T T T T T T T T T T T T T T T T T T T T T T T T T T T ",
"T T T T T T T T T T T T T T T T T T T T T T T T T T T T T T           ^ T T T T T T T T T T T T T T T T T T T T T T T T T T T T T T T T T T ",
"T T T T T T T T T T T T T T T T T T T T T T T T T T T T T T .         9 U T T T T T T T T T T T T T T T T T T T T T T T T T T T T T T T T T ",
"T T T T T T T T T T T T T T T T T T T T T T T T T T T T T T             L T T T T T T T T T T T T T T T T T T T T T T T T T T T T T T T T T ",
"T T T T T T T T T T T T T T T T T T T T T T T T T T T T T T             L T T T T T T T T T T T T T T T T T T T T T T T T T T T T T T T T T ",
"T T T T T T T T T T T T T T T T T T T T T T T T T T T T T ^           o L T T T T T T T T T T T T T T T T T T T T T T T T T T T T T T T T T ",
"T T T T T T T T T T T T T T T T T T T T T T T T T T T F $ $             L T T T T T T T T T T T T T T T T T T T T T T T T T T T T T T T T T ",
"T T T T T T T T T T T T T T T T T T T T T T T T T T F D / /             L T T T T T T T T T T T T T T T T T T T T T T T T T T T T T T T T T ",
"T T T T T T T T T T T T T T T T T T T T T T T T T T 7 j I.I.E *         L T T T T T T T T T T T T T T T T T T T T T T T T T T T T T T T T T ",
"T T T T T T T T T T T T T T T T T T T T T T T T T T 7 A F.F.F.q       $ P T T T T T T T T T T T T T T T T T T T T T T T T T T T T T T T T T ",
"T T T T T T T T T T T T T T T T T T T T T T T T T T 7 . X & & o       U T T T T T T T T T T T T T T T T T T T T T T T T T T T T T T T T T T ",
"T T T T T T T T T T T T T T T T T T T T T T T T T T 7             % L T T T T T T T T T T T T T T T T T T T T T T T T T T T T T T T T T T T "
};
