/* XPM */
static char *_e49db937c974939bd639b2e2b01de73QCeVmhOxRKKog7ji[] = {
/* columns rows colors chars-per-pixel */
"70 70 163 2 ",
"   c #000000",
".  c #06070C",
"X  c #0D0D0D",
"o  c #0A0700",
"O  c #1B1C00",
"+  c #141400",
"@  c #0A0B15",
"#  c #0C0E19",
"$  c #0D121F",
"%  c #111111",
"&  c #19191A",
"*  c #140F0A",
"=  c #340000",
"-  c #3F0000",
";  c #291D13",
":  c #1F2117",
">  c #2A2B00",
",  c #232400",
"<  c #323300",
"1  c #3C3D00",
"2  c #332518",
"3  c #313414",
"4  c #121424",
"5  c #16192D",
"6  c #161826",
"7  c #191C32",
"8  c #111E33",
"9  c #1E223D",
"0  c #232323",
"q  c #26272E",
"w  c #332A2C",
"e  c #322D39",
"r  c #333333",
"t  c #3A383B",
"y  c #2D3032",
"u  c #4D0000",
"i  c #530805",
"p  c #5D1A1A",
"a  c #6A0000",
"s  c #780000",
"d  c #4D3724",
"f  c #4B3C3E",
"g  c #4B2121",
"h  c #504E06",
"j  c #734800",
"k  c #5D6007",
"l  c #636600",
"z  c #626514",
"x  c #777A00",
"c  c #5A4332",
"v  c #664930",
"b  c #775638",
"n  c #1E355B",
"m  c #212543",
"M  c #252A4C",
"N  c #2B2F49",
"B  c #2E3143",
"V  c #363846",
"C  c #393644",
"Z  c #2A2F54",
"A  c #2C325A",
"S  c #30365E",
"D  c #2F3560",
"F  c #223B66",
"G  c #323865",
"H  c #353C6B",
"J  c #313763",
"K  c #383F71",
"L  c #394175",
"P  c #3E467E",
"I  c #424242",
"U  c #4C4C4C",
"Y  c #535353",
"T  c #5D5D5D",
"R  c #504C4C",
"E  c #5F5F63",
"W  c #626262",
"Q  c DimGray",
"!  c #757575",
"~  c #777778",
"^  c #7C7C7C",
"/  c #800000",
"(  c #990000",
")  c #A70000",
"_  c #B30000",
"`  c #DF0000",
"'  c #D30505",
"]  c #EA0000",
"[  c #FD0000",
"{  c #FF120C",
"}  c #FF001A",
"|  c #FF2518",
" . c #FF2317",
".. c #FF1D28",
"X. c #FF2C3C",
"o. c #816600",
"O. c #825D3D",
"+. c #9B422B",
"@. c #836B2B",
"#. c #FC520F",
"$. c #FE4833",
"%. c #FF004C",
"&. c #FF0A45",
"*. c #FF0057",
"=. c #FF045F",
"-. c #FF1F5B",
";. c #E43B44",
":. c #FF0073",
">. c #FF007B",
",. c #996E48",
"<. c #946A46",
"1. c #8C6645",
"2. c #A97951",
"3. c #907D72",
"4. c #FF7D52",
"5. c #EB6E48",
"6. c #7C8000",
"7. c #8B8F00",
"8. c #949900",
"9. c #9EA300",
"0. c #ADB300",
"q. c #AEB401",
"w. c #BCC200",
"e. c #C6CC00",
"r. c #DCE300",
"t. c #F7FF00",
"y. c #F7FF0A",
"u. c #F3FA0D",
"i. c #FAD633",
"p. c #F9FF33",
"a. c #F8FF2E",
"s. c #B38054",
"d. c #B88456",
"f. c #BA8659",
"g. c #C28B5B",
"h. c #CC9360",
"j. c #D49964",
"k. c #FF9561",
"l. c #FF876D",
"z. c #E6A56C",
"x. c #F0AC71",
"c. c #FFB778",
"v. c #F8B073",
"b. c #F9FF48",
"n. c #FAFF66",
"m. c #3B67B3",
"M. c #FF0080",
"N. c #FF64B2",
"B. c #508CF3",
"V. c #838383",
"C. c #8B8B8B",
"Z. c #9B9B9B",
"A. c #929292",
"S. c #A3A3A3",
"D. c #FF968E",
"F. c #FBFF88",
"G. c #FFD4AE",
"H. c #EDC4AB",
"J. c #FFB3D9",
"K. c #E1CCCC",
"L. c #FFCCE6",
"P. c #FEFFE4",
"I. c white",
/* pixels */
"P P P P P P P P P P P P P P P P P P P P P M # # # H P P P P P P P P P P P P P P P P P P P P P P P P P P P P P P P P P P P P P P P P P P P P ",
"P P P P P P P P P P P P P P P P P P P P M f b O.O.B G P P E P P P P P P P P P P P P P P P P P P P P P P P P P P P P P P P P P P P P P P P P ",
"P P P P P P P P P P P P P P P P P P P P # O.c.c.c.O.C M M M M K P P P P P P P P P P P P P P P P P P P P P P P P P P P P P P P P P P P P P P ",
"P P P P P P P P P P P P P P P P P P P P # O.c.c.c.c.O.2 2 2   A P P P P P P P P P P P P P P P P P P P P P P P P P P P P P P P P P P P P P P ",
"P P P P P P P P P P P P P P P P P P P P $ b c.c.c.c.x.z.z.z.o Z P P P P P P P P P P P P P P P P P P P P P P P P P P P P P P P P P P P P P P ",
"P P P P P P P P P P P P P P P P P P P P # O.c.c.c.c.c.c.j.2 G L P P P P P P P P P P P P P P P P P P P P P P P P P P P P P P P P P P P P P P ",
"P P P P P P P P P P P P P P P P P P P P Z f c O.x.c.c.h.c 9 K P P P P P P P P P P P P P P P P P P P P P P P P P P P P P P P P P P P P P P P ",
"P P P P P P P P P P P P P P P P P P P P P A 7 m 1.,.,.d # m.L P D M M M M M M n P P P P P P P P P P P P P P P P P P P P P P P P P P P P P P ",
"P P P P P P P P P P P P P P P P P P P P P P P H 4       @ G G G q < < < < < < 3 G G L P P P P P P P P P P P P P P P P P P P P P P P P P P P ",
"P P P P P P P P P P P P P P P P P P P P P P P P m.#             7.y.t.t.t.t.t.e.o   G P P P P P P P P P P P P P P P P P P P P P P P P P P P ",
"P P P P P P P P P P P P P P P P P P P P P P P P G *         t.t.t.t.t.t.t.t.t.t.t.t.< m P P P P P P J . P P P P P P P P P P P P P P P P P P ",
"P P P P P P P P P P P P P P P P P P P P P P P P P A 4   , 0.t.t.t.t.t.t.t.t.t.t.t.t.w.z 7 P P P P A w 2.6 S K G P P P P P P P P P P P P P P ",
"P P P P P P P P P P P P P P P P P P P P P P P P P P 7   < t.n.n.n.b.t.t.0.8.q.t.t.t.t.x # E H K P M 2 z.v B D m.P P P P P P P P P P P P P P ",
"P P P P P P P P P P P P P P P P P P P P P P P P P P 7 + k t.I.I.P.F.t.e.h * l y.a.y.t.8.0 F m.P P Z g 2.c.b e G G F E P P P P P P P P P P P ",
"P P P P P P P P P P P P P P P P P P P P P P P P P P 7 l t.t.I.I.n.t.t.  h.v k p.P.p.t.t.e.. K P P P H @ c.c.,.  . . S K P P P P P P P P P P ",
"P P P P P P P P P P P P P P P P P P P P P P P P P E 7 l t.t.t.t.y.0.  c.c.c.,.e I.I.I.F.e.. K P P E G . c.c.c.c.c.v.g M P P P P P P P P E P ",
"P P P P P P P P P P P P P P P P P P P P P P P P P P 7 l t.t.t.t.y.0.  |  .4.5.' $.i.p.u.t.q.; H P Z @ . c.c.c.c.c.c.j.c m G K P P P P P P P ",
"P P P P P P P P P P P P P P P P P P P P P P P P P P 7 l t.t.t.t.9.j ( D.-.X.;.%.&.#.o.0.r.k N K n M U . v j.c.c.c.c.c.v 7 m.P P P P P P P P ",
"P P P P P L P P P P P P P P P P P P P P P P P P P P 7 l t.t.t.t.l u [ J.N.-.%.M.>.} = 6.e.. K J B E C.t   O.2.2.2.d.x.<.f D P P P P P P P P ",
"P P P P P G m.P P P P P P P P P P P P P P P P P P P 7 l t.t.t.t.l u [ M.L.N.>.>.>.} = x e.. K # W S.S.S.  o .       h.c.<.% P P P P P P P P ",
"P P P P P P P P P P P P P P P P P P P P P P P P P P 7   > r.t.t.l d c.{ =.>.>.=.| k.2 6.e.o @ V.Z.A.~ 4 . A P P P P 4 . . 4 P P P P P P P P ",
"P P P P P P P P P P P P P P P P P P P P P P P P P P 7   o < t.t.l d c.k...%.*...k.v.2 6.e.X ~ Z.Y 0 7 D H K P P P P G G J G P P P P P P P P ",
"P P P P P P P P P P P P P P P P P P P P P P P P P P S 5     l l @.d.c.c.4.X.X.4.c.c.2 < z Q Z.Y B M n L P P P P P P P P P P P P P P P P P P ",
"P P Y P P P P P P P P P P P P P P P P P P P P P P P P S 5 9     3.G.G.G.G.D.l.c.v.2.R I Y Z.Q e J E P P P P P P P P P P P P P P P P P P P P ",
"P P P P P P P P P P P P P P P P P P P P P P P P P P P P P P     3.K.K.K.K.K.H.x.f.; Q A.Z.~ 6 H P P P P P P P P P P P P P P P P P P P P P P ",
"P P P P P P P P P P P P P P P P P P P P P P P P P P P P P P     - a a s s a +.f.      U ~ # K P P P P P P P P P P P P P P P P P P P P P P P ",
"P P P P P P P P P P P P P P P P P P P P P P P P P P P P P P     - a a ` ` ( i ;       % q N K P P P P P P P P P P P P P P P P P P P P P P P ",
"P P P P P P P P P P P P P P P P P P P P P P P P P P P P P P     o u ] [ [ ] ) p ! ;   7 H m.L P P P P P P P P P P P P P P P P P P P P P P P ",
"P P P P P P P P P P P P P P P P P P P P P P P P P P P P P P   n 8 = _ [ [ ' s g A.0 7 D P P P P P P P P P P P P P P P P P P P P P P P P P P ",
"P P P P P P P P P P P P P P P P P P P P P P P P P P P P P H   m.;.;.;.] ;.;.;.& ~ q G P P P P P P P P P P P P P P P P P P P P P P P P P P P ",
"P P P P P P P P P P P P P P P P P P P P P P P P P P P P G   # ;.;.;.;.;.;.;.;.;.# G P P P P P P P P P P P P P P P P P P P P P P P P P P P P ",
"P P P P P P P P P P P P P P P P P P P P P P P P P P P P G . B.;.;.;.;.;.;.I.;.;.L P P P P P P P P P P P P P P P P P P P P P P P P P P P P P ",
"P P P P P P P P P P P P P P P P P P P P P P P P P P P P G   B.;.;.;.;.;.;.;.;.;.P P P P P P P P P P P P P P P P P P P P P P P P P P P P P P ",
"P P P P P P P P P P P P P P P P P P P P P P P P P P P P G . F $ ;.;.;.;.;.;.;.P P P P P P P P P P P P P P P P P P P P P P P P P P P P P P P ",
"P P P P P P P P P P P P P P P P P P P P P P P P P P P H t l     n ;.;.;.;.;.P P P P P P P P P P P P P P P P P P P P P P P P P P P P P P P P ",
"P P P P P P P P P P P P P P P P P P P P P P P P P P P M , e.      1 ;.;.;.Z P P P P P P P P P P P P P P P P P P P P P P P P P P P P P P P P ",
"P P P P P P P P P P P P P P P P P P P P P P P P P P P M   O       o O ;.S P P P K P P P P P Y L P P P P P P P P P P P P P P P P P P P P P P ",
"P P P P P P P P P P P P P P P P P P P P P P P P P P P M > e.    x 7.    G P P P H m.6 % 7 P P G P P P P P P P P P P P P P P P P P P P P P P ",
"P P P P P P P P P P P P P P P P P P P P P P P P P P P M + l     1 h     6 A P P L m .   . 9 L m.P P P P P P P P P P P P P P P P P P P P P P ",
"P P P P P P P P P P P P P P P P P P P P P P P P P P P M                   M P P K #       . m M H P P P P P P P P P P P P P P P P P P P P P ",
"P P P P P P P P P m.H P P P P P P P P P P P P P P P H 9 o <     O ,   0 0 N H P K #             9 K P P P P P P P P P P P P P P P P P P P P ",
"P P P P P P P P P P K Y P P P P P P P P P P P P P P 7   < t.    8.0.  S.S.I 7 P K #               7 P P P P P P P P P P P P P P P P P P P P ",
"P P P P P P P P P P P P P P P P P P P P P P P P P #               r S.      7 G     V.Y             # K P P P P P P P P P P P P P P P P P P ",
"P P P P P P P P P P P P P P P P P P P P P P P P P #               X r   T y 7 G X T Z.C.T       R I # K P P P P P P P P P P P P P P P P P P ",
"P P P P P P P P P P P P P P P P P P P P P P P P P m @                 I A.Q V 9 X V.S.S.V.    r ^ E # K P P P P P P P P P P P P P P P P P P ",
"P P P P P P P P P P P P P P P P P P P P P P P P P P 7                 S.S.S.! 0 % V.S.S.V.  4 E ! U 7 K P P P P P P P P P P P P P P P P P P ",
"P P P P P P P P P P P P P P P P P P P P P P P P P P 7                 S.S.S.S.V.% V.S.S.V.. K #   7 P P P P P P P P P P P P P P P P P P P P ",
"P P P P P P P P P P P P P P P P P P P P P P P P P P P M         M P P   V.S.S.S.A.0 V.Y # P P P P P P P P P P P P P P P P P P P P P P P P P ",
"P P P P P P P P P P P P P P P P P P P P P P P P P P P M         M P P F 9 Q S.S.Z.C.Z.Y $ P P P P P P P P P P P P P P P P P P P P P P P P P ",
"P P P P P P P P P P P P P P P P P P P P P P P P P P P M         M P P P A C Q S.S.S.S.Y $ P P P P P P P P P P P P P P P P P P P P P P P P P ",
"P P P P P P P P P P P P P P P P P P P P P P P P P P P M         7 G P P E M N ! ~ Z.3.V # P P P P P P P P P P P P P P P P P P P P P P P P P ",
"P P P P P P P P P P P P P P P P P P P P P P P P P P P Z @       . 4 P P P P Z # X Q & . 5 P P P P P P P P P P P P P P P P P P P P P P P P P ",
"P P P P P P P P P P P P P P P P P P P P P P P P P P P P G         4 m.G P P P H . . . m P P P P P P P P P P P P P P P P P P P P P P P P P P ",
"P P P P P P P P P P P P P P P P P P P P P P P P P P P P G         5 L K P P P P D G G L P P P P P P P P P P P P P P P P P P P P P P P P P P ",
"P P P P P P P P P P P P P P P P P P P P P P P P P P P P G       o 4 P P P P P P P P m.H P P P P P P P P P P P P P P P P P P P P P P P P P P ",
"P P P P P P P P P P P P P P P P P P P P P P P P P P P P G         # M P P P P P P Y L K P P P P P P P P P P P P P P P P P P P P P P P P P P ",
"P P P P P P P P P P P P P P P P P P P P P P P P P P P P H #         . P P P P P P P P P P P P P P P P P P P P P P P P P P P P P P P P P P P ",
"P P P P P P P P P P P P P P P P P P P P P P P P P P P P P P         . P P P P P P P P P P P P P P P P P P P P P P P P P P P P P P P P P P P ",
"P P P P P P P P P P P P P P P P P P P P P P P P P P P P P P           P P P P P P P P P P P P P P P P P P P P P P P P P P P P P P P P P P P ",
"P P P P P P P P P P P P P P P P P P P P P P P P P P P P P P           E P P P P P P P P P P P P P P P P P P P P P P P P P P P P P P P P P P ",
"P P P P P P P P P P P P P P P P P P P P P P P P P P P P P P           m H G K L P P P P P P P P P P P P P P P P P P P P P P P P P P P P P P ",
"P P P P P P P P P P P P P P P P P P P P P P P P P P P P P P             G m.P P P P P P P P P P P P P P P P P P P P P P P P P P P P P P P P ",
"P P P P P P P P P P P P P P P P P P P P P P P P P P P P P P             G P P P P P P P P P P P P P P P P P P P P P P P P P P P P P P P P P ",
"P P P P P P P P P P P P P P P P P P P P P P P P P P P P P P           o G P P P P P P P P P P P P P P P P P P P P P P P P P P P P P P P P P ",
"P P P P P P P P P P P P P P P P P P P P P P P P P P m.9 X @ o           G m.P P P P P P P P P P P P P P P P P P P P P P P P P P P P P P P P ",
"P P P P P P P P P P P P P P P P P P P P P P P P P P Z V T W             A H P P P P P P P P P P P P P P P P P P P P P P P P P P P P P P P P ",
"P P P P P P P P P P P P P P P P P P P P P P P P P P 9 C S.S.I %       . S P P P P P P P P P P P P P P P P P P P P P P P P P P P P P P P P P ",
"P P P P P P P P P P P P P P P P P P P P P P P P P P 7 e V.V.V.w       # H P P P P P P P P P P P P P P P P P P P P P P P P P P P P P P P P P ",
"P P P P P P P P P P P P P P P P P P P P P P P P P P 7 X % % %         K L P P P P P P P P P P P P P P P P P P P P P P P P P P P P P P P P P ",
"P P P P P P P P P P P P P P P P P P P P P P P P P P 7             o G E m.P P P P P P P P P P P P P P P P P P P P P P P P P P P P P P P P P "
};
