/* XPM */
static char *result[] = {
/* columns rows colors chars-per-pixel */
"70 70 168 2 ",
"   c #000000",
".  c #0A0700",
"X  c #06070B",
"o  c #0D0D0D",
"O  c #170805",
"+  c #141400",
"@  c #1B1C00",
"#  c #0A0C15",
"$  c #0C0E19",
"%  c #0D121F",
"&  c #101010",
"*  c #14151A",
"=  c gray10",
"-  c #340000",
";  c #3F0000",
":  c #291D13",
">  c #1F2117",
",  c #232400",
"<  c #2A2B00",
"1  c #323300",
"2  c #3C3D00",
"3  c #332518",
"4  c #313414",
"5  c #121424",
"6  c #161826",
"7  c #16192D",
"8  c #111E33",
"9  c #191C32",
"0  c #1E223D",
"q  c #232323",
"w  c #24252E",
"e  c gray18",
"r  c #332A2C",
"t  c #272A3C",
"y  c #322D39",
"u  c #333333",
"i  c #4D0000",
"p  c #530000",
"a  c #540F0A",
"s  c #521717",
"d  c #6A0000",
"f  c #780000",
"g  c #6A1016",
"h  c #4B2121",
"j  c #4D3724",
"k  c #4B3C3E",
"l  c #504E06",
"z  c #734800",
"x  c #5D6007",
"c  c #636600",
"v  c #777A00",
"b  c #626514",
"n  c #594336",
"m  c #664930",
"M  c #775638",
"N  c #182A49",
"B  c #1E345A",
"V  c #212543",
"C  c #252A4C",
"Z  c #2B2F49",
"A  c #2E3143",
"S  c #373545",
"D  c #363846",
"F  c #2A2F54",
"G  c #2C325A",
"H  c #30365E",
"J  c #2F3560",
"K  c #223B66",
"L  c #313763",
"P  c #323865",
"I  c #343B6B",
"U  c #383F71",
"Y  c #28477A",
"T  c #394175",
"R  c #3E467E",
"E  c #424242",
"W  c #4C4C4C",
"Q  c #504C4C",
"!  c #545454",
"~  c #5D5D5D",
"^  c #505E67",
"/  c #626262",
"(  c DimGray",
")  c #757575",
"_  c #777778",
"`  c #7C7C7C",
"'  c #990000",
"]  c #9F1414",
"[  c #A70000",
"{  c #B30000",
"}  c #D30505",
"|  c #DF0000",
" . c #FD0000",
".. c #F50906",
"X. c #FF001A",
"o. c #FF2418",
"O. c #FF1D28",
"+. c #FF2C3C",
"@. c #816600",
"#. c #9B422B",
"$. c #825D3D",
"%. c #836B2B",
"&. c #FC520F",
"*. c #FE4833",
"=. c #FF0A45",
"-. c #FF004C",
";. c #FF0057",
":. c #FF045F",
">. c #FF1F5B",
",. c #FF0077",
"<. c #8C6645",
"1. c #946A46",
"2. c #996E48",
"3. c #A97951",
"4. c #8F766E",
"5. c #EB6E48",
"6. c #FF7D52",
"7. c #7C8000",
"8. c #8B8F00",
"9. c #949900",
"0. c #9EA300",
"q. c #ADB300",
"w. c #AEB401",
"e. c #BCC200",
"r. c #C6CC00",
"t. c #DCE300",
"y. c #F7FF00",
"u. c #F7FF0A",
"i. c #F3FA0D",
"p. c #FAD633",
"a. c #F8FF2E",
"s. c #F9FF33",
"d. c #B38054",
"f. c #B88456",
"g. c #BA8659",
"h. c #CC9360",
"j. c #D49964",
"k. c #FF876D",
"l. c #FF9561",
"z. c #E6A56C",
"x. c #F0AC71",
"c. c #F8B073",
"v. c #FFB778",
"b. c #F9FF48",
"n. c #FAFF66",
"m. c #335A9C",
"M. c #3761A9",
"N. c #3B67B3",
"B. c #FF0080",
"V. c #FF64B2",
"C. c #4C84E6",
"Z. c #558CF3",
"A. c #838383",
"S. c #8B8B8B",
"D. c #929292",
"F. c #9B9B9B",
"G. c #8F90A3",
"H. c #93A0B5",
"J. c #A3A3A3",
"K. c #FF968E",
"L. c #FBFF88",
"P. c #EDC4AB",
"I. c #FFD4AE",
"U. c #FFB3D9",
"Y. c #E1CCCC",
"T. c #FFCCE6",
"R. c #FEFFE4",
"E. c white",
/* pixels */
"R R R R R R R R R R R R R R R R R R R R R C # $ $ I R R R R R R R R R R R R R R R R R R R R R R R R R R R R R R R R R R R R R R R R R R R R ",
"R R R R R R R R R R R R R R R R R R R R C k $.$.$.A L R T m.R R R R R R R R R R R R R R R R R R R R R R R R R R R R R R R R R R R R R R R R ",
"R R R R R R R R R R R R R R R R R R R R $ $.v.v.v.$.S C C C C I R R R R R R R R R R R R R R R R R R R R R R R R R R R R R R R R R R R R R R ",
"R R R R R R R R R R R R R R R R R R R R $ $.v.v.v.v.$.3 3 : X G R R R R R R R R R R R R R R R R R R R R R R R R R R R R R R R R R R R R R R ",
"R R R R R R R R R R R R R R R R R R R R $ $.v.v.v.v.x.z.z.z.X F R R R R R R R R R R R R R R R R R R R R R R R R R R R R R R R R R R R R R R ",
"R R R R R R R R R R R R R R R R R R R R $ $.v.v.v.v.v.v.j.3 P T R R R R R R R R R R R R R R R R R R R R R R R R R R R R R R R R R R R R R R ",
"R R R R R R R R R R R R R R R R R R R R F S m $.x.v.v.h.k C R R R R R R R R R R R R R R R R R R R R R R R R R R R R R R R R R R R R R R R R ",
"R R R R R R R R R R R R R R R R R R R R R F 9 V <.2.2.j * ^ R R H C C C C C C F R R R R R R R R R R R R R R R R R R R R R R R R R R R R R R ",
"R R R R R R R R R R R R R R R R R R R R R R R I 5       # P P P r 1 1 1 1 1 1 4 L P T m.R R R R R R R R R R R R R R R R R R R R R R R R R R ",
"R R R R R R R R R R R R R R R R R R R R R R R R m.$             9.y.y.y.y.y.y.r.    H U R R R R R R R R R R R R R R R R R R R R R R R R R R ",
"R R R R R R R R R R R R R R R R R R R R R R R R U &         y.y.y.y.y.y.y.y.y.y.y.y.1 0 R R R R R R P X R R R R R R R R R R R R R R R R R R ",
"R R R R R R R R R R R R R R R R R R R R R R R R R H 5   , q.y.y.y.y.y.y.y.y.y.y.y.y.e.b 9 R R R R G r 3.5 L R R R R R R R R R R R R R R R R ",
"R R R R R R R R R R R R R R R R R R R R R R R R R R 9   1 y.n.n.n.b.y.y.q.9.r.y.y.y.y.v $ ^ U R R C 3 z.m S J R R R R R R R R R R R R R R R ",
"R R R R R R R R R R R R R R R R R R R R R R R R R R 9 + x y.E.E.R.L.y.r.l o c u.a.u.y.9.q P m.R R F r g.c.M y P P L R R R R R R R R R R R R ",
"R R R R R R R R R R R R R R R R R R R R R R R R R R 9 c y.y.E.E.n.y.y.  h.m x s.R.s.y.y.r.X U R R R P X v.v.2.  .   P R R R R R R R R R R R ",
"R R R R R R R R R R R R R R R R R R R R R R R R R ^ 9 c y.y.y.y.y.w.  v.v.v.2.y E.E.E.L.r.X U R R R P X v.v.v.v.v.v.3 C R R R R R R R R R R ",
"R m.R R R R R R R R R R R R R R R R R R R R R R R R 9 c y.y.y.y.u.q.  o.o.l.5.} *.p.s.i.y.w.> I R F #   v.v.v.v.v.v.j.n V R R R R R R R R R ",
"^ U R R R R R R R R R R R R R R R R R R R R R R R R 9 c y.y.y.y.0.z ' K.>.+.+.-.=.&.@.q.t.x A T C S W o m j.v.v.v.v.v.m 9 R R R R R R R R R ",
"R R R R R R R R R R R R R R R R R R R R R R R R R R 9 c y.y.y.y.c i  .U.V.>.-.B.,.X.- 7.r.X U G y / S.D   $.g.3.3.f.x.1.k J R R R R R R R R ",
"R R R R R R R R R R R R R R R R R R R R R R R R R R 9 c y.y.y.y.c i  .,.T.V.B.B.,.X.- v r.X U $ / J.J.J.    .       h.v.1.$ R R R R R R R R ",
"R R R R R R R R R R R R R R R R R R R R R R R R R R 9   < t.y.y.c j v...;.,.,.:.o.l.3 7.r.  & S.F.D._ * X H R R R U 5 X X 5 R R R R R R R R ",
"R R R R R R R R R R R R R R R R R R R R R R R R R R 9   . 1 y.y.c j v.l.O.;.;.O.l.c.3 7.r.& _ F.! q w H P U R R R m.P P P P R R R R R R R R ",
"R R R R R R R R R R R R R R R R R R R R R R R R R R H 7     c c %.g.v.v.6.+.+.6.v.v.3 1 b ( F.! D t C T R R R R R R R R R R R R R R R R R R ",
"R R R R R R R R R R R R R R R R R R R R R R R R R R R G 9 0     d.I.I.I.I.K.k.v.c.3.Q E ! F.( t J m.R R R R R R R R R R R R R R R R R R R R ",
"R R R R R R R R R R R R R R R R R R R R R R R R R R R R R R     ` Y.Y.Y.Y.Y.P.c.f.: ( D.F._ 6 I R R R R R R R R R R R R R R R R R R R R R R ",
"R R R R R R R R R R R R R R R R R R R R R R R R R R R R R R     - d d f f d #.g.      W _ $ U R R R R R R R R R R R R R R R R R R R R R R R ",
"R R R R R R R R R R R R R R R R R R R R R R R R R R R R R R     ; d d | | ' a :       & w P R R R R R R R R R R R R R R R R R R R R R R R R ",
"R R R R R R R R R R R R R R R R R R R R R R R R R R R R R R     X p |  . ...[ s _ =   9 I R R R R R R R R R R R R R R R R R R R R R R R R R ",
"R R R R R R R R R R R R R R R R R R R R R R R R R R R R R R   B 8 ; {  . .} f h D.q 9 G R R R R R R R R R R R R R R R R R R R R R R R R R R ",
"R R R R R R R R R R R R R R R R R R R R R R R R R R R R T P   N.K O p | | ] s = _ r I R R R R R R R R R R R R R R R R R R R R R R R R R R R ",
"R R R R R R R R R R R R R R R R R R R R R R R R R R R R P   $ M.B X # g g 4.~   $ P R R R R R R R R R R R R R R R R R R R R R R R R R R R R ",
"R R R R R R R R R R R R R R R R R R R R R R R R R R R R P X C.B   N C.C.G.F./ $ U T R R R R R R R R R R R R R R R R R R R R R R R R R R R R ",
"R R R R R R R R R R R R ^ m.R R R R R R R R R R R R R R P   Z.N Y m.8 H.J.! A I R R R R R R R R R R R R R R R R R R R R R R R R R R R R R R ",
"R R R R R R R R R R R R U R R R R R R R R R R R R R R R P   Y % m.N.  J.! Z J R R R R R R R R R R R R R R R R R R R R R R R R R R R R R R R ",
"R R R R R R R R R R R R T R R R R R R R R R R R R R R I y c     B ^ x J.q C R R R R R R R R R R R R R R R R R R R R R R R R R R R R R R R R ",
"R R R R R R R R R R R R R R R R R R R R R R R R R R R C < r.      2 r.A.w F R R R R R R R R R R R R R R R R R R R R R R R R R R R R R R R R ",
"R R R R R R R R R R R R R R R R R R R R R R R R R R R C . +       . @ & G U ^ T R R R R R R R ^ R R R R R R R R R R R R R R R R R R R R R R ",
"R R R R R R R R R R R R R R R R R R R R R R R R R R R C < r.    v 8.    P m.R R U m.6 $ 7 R R U R R R R R R R R R R R R R R R R R R R R R R ",
"R R R R R R R R R R R R R R R R R R R R R R R R R R R C + c     2 l     5 J R R T V X   X 9 T m.R R R R R R R R R R R R R R R R R R R R R R ",
"R R R R R R R R R R R R R R R R R R R R R R R R R R R C                 X C R R U $       X V C I R R R R R R R R R R R R R R R R R R R R R ",
"R R R R R R R R R R R R R R R R R R R R R R R R R R I 0 . 1     @ ,   q q Z I R U $             0 U R R R R R R R R R R R R R R R R R R R R ",
"R R R R R R R R R R R R R R R R R R R R R R R R R R 9   1 y.    9.q.  J.J.E 9 R U $             X 9 R R R R R R R ^ R R R R R R R R R R R R ",
"R R R R R R R R R R R R R R R R R R R R R R R R R $               u J.      9 P     A.!             $ U R R R R R R R R R R R R R R R R R R ",
"R R R R R R R R R R R R R R R R R R R R R R R R R $               o u   ~ e 9 L o ~ F.S.~       E E $ U R R R R R R R R R R R R R R R R R R ",
"R R R R R R R R R R R R R R R R R R R R R R R R R V #                 E S.( D t o A.J.J.A.    u A./ % U R R R R R R R R R R R R R R R R R R ",
"R R R R R R R R R R R R R R R R R R R R R R R R R R 9                 J.J.J.) w & A.J.J.A.  5 / ) W 9 U R R R R R R R R R R R R R R R R R R ",
"R R R R R R R R R R R R R R R R R R R R R R R R R R 9                 J.J.J.J.A.& A.J.J.A.X U $ . 7 m.T R R R R R R R R R R R R R R R R R R ",
"R R R R R R R R R R R R R R R R R R R R R R R R R R R C         C R R   A.J.J.J.D.q A.! $ R R R R R R R R R R R R R R R R R R R R R R R R R ",
"R R R R R R R R R R R R R R R R R R R R R R R R R R R C         Z R R H w ) J.J.F.S.F.! $ R R R R R R R R R R R R R R R R R R R R R R R R R ",
"R R R R R R R R R R R R R R R R R R R R R R R R R R R C         C R R R F S ( J.J.J.J.! $ R R R R R R R R R R R R R R R R R R R R R R R R R ",
"R R R R R R R R R R R R R R R R R R R R R R R R R R R C         7 P R R R V D ) _ F.4.S $ R R R R R R R R R R R R R R R R R R R R R R R R R ",
"R R R R R R R R R R R R R R R R R R R R R R R R R R R F #       . 5 R R U m.F # o ( = X 7 R R R R R R R R R R R R R R R R R R R R R R R R R ",
"R R R R R R R R R R R R R R R R R R R R R R R R R R R R P         6 m.U R R R I X X X N R R R R R R R R R R R R R R R R R R R R R R R R R R ",
"R R R R R R R R R R R R R R R R R R R R R R R R R R R R P         6 R R R R R U P P P U R R R R R R R R R R R R R R R R R R R R R R R R R R ",
"R R R R R R R R R R R R R R R R R R R R R R R R R R R R P       . 6 R R R R R R R R R R R R R R R R R R R R R R R R R R R R R R R R R R R R ",
"R R R R R R R R R R R R R R R R R R R R R R R R R R R R P         # V R R R R R R R R R R R R R R R R R R R R R R R R R R R R R R R R R R R ",
"R R R R R R R R R R R R R R R R R R R R R R R R R R R R I $           m.U R R R R R R R R R R R R R R R R R R R R R R R R R R R R R R R R R ",
"R R R R R R R R R R R R R R R R R R R R R R R R R R R R R R         X R R R R R R R R R R R R R R R R R R R R R R R R R R R R R R R R R R R ",
"R R R R R R R R R R R R R R R R R R R R R R R R R R R R R R           R R R R R R R R R R R R R R R R R R R R R R R R R R R R R R R R R R R ",
"R R R R R R R R R R R R R R R R R R R R R R R R R R R R R R           ^ R R R R R R R R R R R R R R R R R R R R R R R R R R R R R R R R R R ",
"R R R R R R R R R R R R R R R R R R R R R R R R R R R R R R           t I R R R R R R R R R R R R R R R R R R R R R R R R R R R R R R R R R ",
"R R R R R R R R R R R R R R R R R R R R R R R R R R R R R R             P R R R R R R R R R R R R R R R R R R R R R R R R R R R R R R R R R ",
"R R R R R R R R R R R R R R R R R R R R R R R R R R R R R R             P R R R R R R R R R R R R R R R R R R R R R R R R R R R R R R R R R ",
"R R R R R R R R R R R R R R R R R R R R R R R R R R R R R R           . P R R R R R R R R R R R R R R R R R R R R R R R R R R R R R R R R R ",
"R R R R R R R R R R R R R R R R R R R R R R R R R R R F $ $             P m.R R R R R R R R R R R R R R R R R R R R R R R R R R R R R R R R ",
"R R R R R R R R R R R R R R R R R R R R R R R R R R F S / /             L U R R R R R R R R R R R R R R R R R R R R R R R R R R R R R R R R ",
"R R R R R R R R R R R R R R R R R R R R R R R R R R 9 E J.J.E *       X L R R R R R R R R R R R R R R R R R R R R R R R R R R R R R R R R R ",
"R R R R R R R R R R R R R R R R R R R R R R R R R R 9 A A.A.A.q       $ I ^ R R R R R R R R R R R R R R R R R R R R R R R R R R R R R R R R ",
"R R R R R R R R R R R R R R R R R R R R R R R R R R 9 X & & & .       U R R R R R R R R R R R R R R R R R R R R R R R R R R R R R R R R R R ",
"R R R R R R R R R R R R R R R R R R R R R R R R R R 9             % P ^ R R R R R R R R R R R R R R R R R R R R R R R R R R R R R R R R R R "
};
