/* XPM */
static char *result[] = {
/* columns rows colors chars-per-pixel */
"70 70 172 2 ",
"   c #000000",
".  c #06070B",
"X  c #0D0D0D",
"o  c #0A0700",
"O  c #170805",
"+  c #1B1C00",
"@  c #141400",
"#  c #0A0C15",
"$  c #0C0E19",
"%  c #0D121F",
"&  c #101010",
"*  c #19191A",
"=  c #340000",
"-  c #3F0000",
";  c #291D13",
":  c #1F2117",
">  c #2A2B00",
",  c #232400",
"<  c #323300",
"1  c #3C3D00",
"2  c #332518",
"3  c #313414",
"4  c #111424",
"5  c #16192D",
"6  c #161826",
"7  c #191C32",
"8  c #111E33",
"9  c #1E223D",
"0  c #232323",
"q  c #24252E",
"w  c gray18",
"e  c #332E3B",
"r  c #333333",
"t  c #3A383B",
"y  c #2B2E35",
"u  c #4D0000",
"i  c #530000",
"p  c #540F0A",
"a  c #521717",
"s  c #6A0000",
"d  c #780000",
"f  c #6A1016",
"g  c #4D3724",
"h  c #4B3C3E",
"j  c #4B2121",
"k  c #504E06",
"l  c #734800",
"z  c #5D6007",
"x  c #636600",
"c  c #626514",
"v  c #777A00",
"b  c #5A4332",
"n  c #664930",
"m  c #7D5A3B",
"M  c #1E345A",
"N  c #182A49",
"B  c #212543",
"V  c #252A4C",
"C  c #2B2F49",
"Z  c #2E3143",
"A  c #363846",
"S  c #373646",
"D  c #2A2F54",
"F  c #2C325A",
"G  c #30365E",
"H  c #2F3560",
"J  c #223B66",
"K  c #323865",
"L  c #343B6B",
"P  c #313763",
"I  c #383F71",
"U  c #394175",
"Y  c #3E467E",
"T  c #28477A",
"R  c #424242",
"E  c #4C4C4C",
"W  c #545454",
"Q  c #5D5D5D",
"!  c #504C4C",
"~  c #5F5F63",
"^  c #415D6B",
"/  c #626262",
"(  c DimGray",
")  c #757575",
"_  c #777778",
"`  c #7C7C7C",
"'  c #800000",
"]  c #990000",
"[  c #9F1414",
"{  c #A70000",
"}  c #B30000",
"|  c #DF0000",
" . c #D30505",
".. c #EA0000",
"X. c #FD0000",
"o. c #FF001A",
"O. c #FF120C",
"+. c #FF2518",
"@. c #FF2317",
"#. c #FF1D28",
"$. c #FF2C3C",
"%. c #816600",
"&. c #825D3D",
"*. c #9B422B",
"=. c #836B2B",
"-. c #FC520F",
";. c #FE4833",
":. c #FF004C",
">. c #FF0A45",
",. c #FF0057",
"<. c #FF045F",
"1. c #FF1F5B",
"2. c #E43B44",
"3. c #FF0073",
"4. c #FF007B",
"5. c #996E48",
"6. c #946A46",
"7. c #8C6645",
"8. c #AE7D52",
"9. c #8F766E",
"0. c #FF7D52",
"q. c #EB6E48",
"w. c #7C8000",
"e. c #8B8F00",
"r. c #949900",
"t. c #9EA300",
"y. c #ADB300",
"u. c #AEB401",
"i. c #BCC200",
"p. c #C6CC00",
"a. c #DCE300",
"s. c #F7FF00",
"d. c #F7FF0A",
"f. c #F3FA0D",
"g. c #FAD633",
"h. c #F9FF33",
"j. c #F8FF2E",
"k. c #B38054",
"l. c #B88456",
"z. c #C28B5B",
"x. c #CC9360",
"c. c #D49964",
"v. c #FF9561",
"b. c #FF876D",
"n. c #E6A56C",
"m. c #F0AC71",
"M. c #FFB778",
"N. c #F8B073",
"B. c #F9FF48",
"V. c #FAFF66",
"C. c #335A9C",
"Z. c #3A65B0",
"A. c #FF0080",
"S. c #FF64B2",
"D. c #5188EC",
"F. c #838383",
"G. c #8B8B8B",
"H. c #9B9B9B",
"J. c #929292",
"K. c #A19D9D",
"L. c #8F90A3",
"P. c #93A0B5",
"I. c #A3A3A3",
"U. c #FF968E",
"Y. c #FBFF88",
"T. c #FFD4AE",
"R. c #EDC4AB",
"E. c #FFB3D9",
"W. c #E1CCCC",
"Q. c #FFCCE6",
"!. c #FEFFE4",
"~. c white",
/* pixels */
"Y Y Y Y Y Y Y Y Y Y Y Y Y Y Y Y Y Y Y Y Y Y Y Y Y Y Y Y Y Y Y Y Y Y Y Y Y Y Y Y Y Y Y Y L $ $ $ V Y Y Y Y Y Y Y Y Y Y Y Y Y Y Y Y Y Y Y Y Y ",
"Y Y Y Y Y Y Y Y Y Y Y Y Y Y Y Y Y Y Y Y Y Y Y Y Y Y Y Y Y Y Y Y Y Y Y Y Y Y Y Y Y Y Y K S &.m &.h V Y Y Y Y Y Y Y Y Y Y Y Y Y Y Y Y Y Y Y Y ",
"Y Y Y Y Y Y Y Y Y Y Y Y Y Y Y Y Y Y Y Y Y Y Y Y Y Y Y Y Y Y Y Y Y Y Y Y U I I V V V V S &.M.M.M.&.$ Y Y Y Y Y Y Y Y Y Y Y Y Y Y Y Y Y Y Y Y ",
"Y Y Y Y Y Y Y Y Y Y Y Y Y Y Y Y Y Y Y Y Y Y Y Y Y Y Y Y Y Y Y Y Y Y Y Y Y C.F   2 2 2 &.N.M.M.M.&.$ Y Y Y Y Y Y Y Y Y Y Y Y Y Y Y Y Y Y Y Y ",
"Y Y Y Y Y Y Y Y Y Y Y Y Y Y Y Y Y Y Y Y Y Y Y Y Y Y Y Y Y Y Y Y Y Y Y Y Y Y D o n.n.n.m.M.M.M.M.&.$ Y Y Y Y Y Y Y Y Y Y Y Y Y Y Y Y Y Y Y Y ",
"Y Y Y Y Y Y Y Y Y Y Y Y Y Y Y Y Y Y Y Y Y Y Y Y Y Y Y Y Y Y Y Y Y Y Y Y Y Y U K 2 c.M.M.M.M.M.M.&.$ Y Y Y Y Y Y Y Y Y Y Y Y Y Y Y Y Y Y Y Y ",
"Y Y Y Y Y Y Y Y Y Y Y Y Y Y Y Y Y Y Y Y Y Y Y Y Y Y Y Y Y Y Y Y Y Y Y Y Y Y Y Y V h z.M.M.m.&.n h V U Y Y Y Y Y Y Y Y Y Y Y Y Y Y Y Y Y Y Y ",
"Y Y Y Y Y Y Y Y Y Y Y Y Y Y Y Y Y Y Y Y Y Y Y Y Y Y Y Y Y Y D V V V V V V H Y Y ^ # b 5.5.7.e 7 D C.Y Y Y Y Y Y Y Y Y Y Y Y Y Y Y Y Y Y Y Y ",
"Y Y Y Y Y Y Y Y Y Y Y Y Y Y Y Y Y Y Y Y Y Y Y Y Y ^ C.U K K 3 < < < < < < w K K K #       4 L Y Y Y Y Y Y Y Y Y Y Y Y Y Y Y Y Y Y Y Y Y Y Y ",
"Y Y Y Y Y Y Y Y Y Y Y Y Y Y Y Y Y Y Y Y Y Y Y Y Y U U P     p.s.s.s.s.s.s.r.            $ Y Y Y Y Y Y Y Y Y Y Y Y Y Y Y Y Y Y Y Y Y Y Y Y Y ",
"Y Y Y Y Y Y Y Y Y Y Y Y Y Y Y 2.2.2.. 2.2.2.Y Y Y Y B < s.s.s.s.s.s.s.s.s.s.s.s.        $ Y Y Y Y Y Y Y Y Y Y Y Y Y Y Y Y Y Y Y Y Y Y Y Y Y ",
"Y Y Y Y Y Y Y Y Y Y Y Y Y Y 2.2.2.2.2.2.2.2.2.Y Y 9 c i.s.s.s.s.s.s.s.s.s.s.s.s.y.,   4 H Y Y Y Y Y Y Y Y Y Y Y Y Y Y Y Y Y Y Y Y Y Y Y Y Y ",
"Y Y Y Y Y Y Y Y Y Y U C.Y Y 2.2.~.2.2.2.2.2.2.Y Y $ %.s.s.s.s.i.r.y.s.s.B.V.V.V.s.<   7 Y Y Y Y Y Y Y Y Y Y Y Y Y Y Y Y Y Y Y Y Y Y Y Y Y Y ",
"Y Y Y Y Y Y Y Y Y Y ^ U K K 2.2.2.2.2.2.2.2.2.Y K 2 r.s.d.j.d.x O g p.s.Y.!.~.~.s.z @ 7 Y Y Y Y Y Y Y Y Y Y Y Y Y Y Y Y Y Y Y Y Y Y Y Y Y Y ",
"Y Y Y Y Y Y Y Y Y Y Y K       2.2.2.2.2.2.2.Y I . p.s.s.h.!.h.x n x.  s.s.V.~.~.s.s.x 7 Y Y Y Y Y Y Y Y Y Y Y Y Y Y Y Y Y Y Y Y Y Y Y Y Y Y ",
"Y Y Y Y Y Y Y Y Y Y V 2 M.M.M.M.2.2.2.2.2.Y ^ U . p.Y.~.~.~.r 5.M.M.M.  y.s.s.s.s.s.x 7 Y Y Y Y Y Y Y Y Y Y Y Y Y Y Y Y Y Y Y Y Y Y Y Y Y Y ",
"Y Y Y Y Y Y Y Y Y B h c.M.M.M.M.M.2.2.2.D Y K : u.s.f.h.g.;. .q.0.+.+.  y.s.s.s.s.s.x 7 Y Y Y Y Y Y Y Y Y Y Y Y Y Y Y Y Y Y Y Y Y Y Y Y Y Y ",
"Y Y Y Y Y Y Y Y Y 5 n M.M.M.M.M.c.n 2.W A D U Z z a.u.%.-.>.,.$.1.1.U.] l t.s.s.s.s.x 7 Y Y Y Y Y Y Y Y Y Y Y Y Y Y Y Y Y Y Y Y Y Y Y Y Y Y ",
"Y Y Y Y Y Y Y Y P h 6.N.8.8.l.8.m   t G.Q Z H I . p.w.= o.3.A.:.1.S.E.X.u x s.s.s.s.z 7 Y Y Y Y Y Y Y Y Y Y Y Y Y Y Y Y Y Y Y Y Y Y Y Y Y Y ",
"Y Y Y Y Y Y Y Y $ 5.N.x.            I.I.I./ $ I . p.w.= o.4.A.A.S.Q.A.X.u x s.s.s.s.z 7 Y Y Y Y Y Y Y Y Y Y Y Y Y Y Y Y Y Y Y Y Y Y Y Y Y Y ",
"Y Y Y Y Y Y Y Y 4 . . 4 Y Y Y Y H . % 9.J.H.F.&   p.w.2 v.+.<.4.3.<.O.M.g x s.s.a.>   7 Y Y Y Y Y Y Y Y Y Y Y Y Y Y Y Y Y Y Y Y Y Y Y Y Y Y ",
"Y Y Y Y Y Y Y Y K K K L Y Y Y Y I K H q 0 W H._ X p.w.2 N.v.#.,.:.#.v.M.g x s.s.< O   7 Y Y Y Y Y Y Y Y Y Y Y Y Y Y Y Y Y Y Y Y Y Y Y Y Y Y ",
"Y Y Y Y Y Y Y Y Y Y Y Y Y Y Y Y Y Y U D V C W K.( c < 2 M.M.0.$.$.v.M.M.l.=.x x   . 5 H Y Y Y Y Y Y Y Y Y Y Y Y Y Y Y Y Y Y Y Y Y Y Y Y Y Y ",
"Y Y Y Y Y Y Y Y Y Y Y Y Y Y Y Y Y Y ^ U C.H y ( H.W R ! 8.N.M.b.b.T.T.T.T.9.    7 7 P ^ Y Y Y Y Y Y Y Y Y Y Y Y Y Y Y Y Y Y Y Y Y Y Y Y Y Y ",
"Y Y Y Y Y Y Y Y Y Y Y Y Y Y Y Y Y Y Y Y Y Y L 5 _ H.J.( ; l.N.R.W.W.W.W.W.9..   Y Y Y Y Y Y Y Y Y Y Y Y Y Y Y Y Y Y Y Y Y Y Y Y Y Y Y Y Y Y ",
"Y Y Y Y Y Y Y Y Y Y Y Y Y Y Y Y Y Y Y Y Y Y Y I # _ E       l.*.s d d s s =     Y Y Y Y Y Y Y Y Y Y Y Y Y Y Y Y Y Y Y Y Y Y Y Y Y Y Y Y Y Y ",
"Y Y Y Y Y Y Y Y Y Y Y Y Y Y Y Y Y Y Y Y Y Y Y Y L q &       ; p ] ..| s s u     Y Y Y Y Y Y Y Y Y Y Y Y Y Y Y Y Y Y Y Y Y Y Y Y Y Y Y Y Y Y ",
"Y Y Y Y Y Y Y Y Y Y Y Y Y Y Y Y Y Y Y Y Y Y Y Y Y L 7   * _ a { ..X.X.| u o     Y Y Y Y Y Y Y Y Y Y Y Y Y Y Y Y Y Y Y Y Y Y Y Y Y Y Y Y Y Y ",
"Y Y Y Y Y Y Y Y Y Y Y Y Y Y Y Y Y Y Y Y Y Y Y Y Y Y F 7 0 J.j d  .X.X.} = 8 M   ^ Y Y Y Y Y Y Y Y Y Y Y Y Y Y Y Y Y Y Y Y Y Y Y Y Y Y Y Y Y ",
"Y Y Y Y Y Y Y Y Y Y Y Y Y Y Y Y Y Y Y Y Y Y Y Y Y Y Y L q _ * a [ | | u O J Z.  K U Y Y Y Y Y Y Y Y Y Y Y Y Y Y Y Y Y Y Y Y Y Y Y Y Y Y Y Y ",
"Y Y Y Y Y Y Y Y Y Y Y Y Y Y Y Y Y Y Y Y Y Y Y Y Y Y Y Y L $   / 9.f f # . M Z.#   K Y Y Y Y Y Y Y Y Y Y Y Y Y Y Y Y Y Y Y Y Y Y Y Y Y Y Y Y ",
"Y Y Y Y Y Y Y Y Y Y Y Y Y Y Y Y Y Y Y Y Y Y Y Y Y Y Y Y U I $ / H.L.D.D.N   M D.o K Y Y Y Y Y Y Y Y Y Y Y Y Y Y Y Y Y Y Y Y Y Y Y Y Y Y Y Y ",
"Y Y Y Y Y Y Y Y Y Y Y Y Y Y Y Y Y Y Y Y Y Y Y Y Y Y Y Y Y Y L B ! I.P.8 C.T N D.  K Y Y Y Y Y Y Y Y Y Y Y Y Y Y Y Y Y Y Y Y Y Y Y Y Y Y Y Y ",
"Y Y Y Y Y Y Y Y Y Y Y Y Y Y Y Y Y Y Y Y Y Y Y Y Y Y Y Y Y Y Y P C W I.  Z.C.% T   K Y Y Y Y Y Y Y Y Y Y Y Y Y Y Y Y Y Y Y Y Y Y Y Y Y Y Y Y ",
"Y Y Y Y Y Y Y Y Y Y Y Y Y Y Y Y Y Y Y Y Y Y Y Y Y Y Y Y Y Y Y Y V 0 I.x Y F     x e L Y Y Y Y Y Y Y Y Y Y Y Y Y Y Y Y Y Y Y Y Y Y Y Y Y Y Y ",
"Y Y Y Y Y Y Y Y Y Y Y Y Y Y Y Y Y Y Y Y Y Y Y Y Y Y Y Y Y Y Y Y D q F.p.1       p.> V Y Y Y Y Y Y Y Y Y Y Y Y Y Y Y Y Y Y Y Y Y Y Y Y Y Y Y ",
"Y Y Y Y Y Y Y Y Y Y Y Y Y Y Y Y Y Y Y Y Y Y Y Y Y Y Y Y Y Y Y Y Y F & + o       +   V Y Y Y Y Y Y Y Y Y Y Y Y Y Y Y Y Y Y Y Y Y Y Y Y Y Y Y ",
"Y Y Y Y Y Y Y Y Y Y Y Y Y Y Y Y Y Y Y Y Y Y Y Y Y 5 $ 5 Y Y Y Y Y K     r.w.    p.> V Y Y Y Y Y Y Y Y Y Y Y Y Y Y Y Y Y Y Y Y Y Y Y Y Y Y Y ",
"Y Y Y Y Y Y Y Y Y Y Y Y Y Y Y Y Y Y Y Y Y Y Y I 7 .   . B I Y Y F 5     k 1     x @ V Y Y Y Y Y Y Y Y Y Y Y Y Y Y Y Y Y Y Y Y Y Y Y Y Y Y Y ",
"Y Y Y Y Y Y Y Y Y Y Y Y Y Y Y Y Y Y Y Y Y L V V .       $ I Y Y V                   V Y Y Y Y Y Y Y Y Y Y Y Y Y Y Y Y Y Y Y Y Y Y Y Y Y Y Y ",
"Y Y Y Y Y Y Y Y Y Y Y Y Y Y Y Y Y Y Y Y I 9             $ I Y I C 0 0   , ,     < o 9 L Y Y Y Y Y Y Y Y Y Y Y Y Y Y Y Y Y Y Y Y Y Y Y Y Y Y ",
"Y Y Y Y Y Y Y Y Y Y Y Y Y Y Y Y Y Y Y Y 7               $ I ^ 7 R I.I.  y.r.    s.<   7 Y Y Y Y Y Y Y Y Y Y Y Y Y Y Y Y Y Y Y Y Y Y Y Y Y Y ",
"Y Y Y Y Y Y Y Y Y Y Y Y Y Y Y Y Y Y I $             W F.    K 7       I.r               $ Y Y Y Y Y Y Y Y Y Y Y Y Y Y Y Y Y Y Y Y Y Y Y Y Y ",
"Y Y Y Y Y Y Y Y Y Y Y Y Y Y Y Y Y Y I $ R R       Q G.H.Q . K 7 w Q   r #               $ Y Y Y Y Y Y Y Y Y Y Y Y Y Y Y Y Y Y Y Y Y Y Y Y Y ",
"Y Y Y Y Y Y Y Y Y Y Y Y Y Y Y Y Y Y I $ / ` r     F.I.I.F.X 9 S ( G.R                 # B Y Y Y Y Y Y Y Y Y Y Y Y Y Y Y Y Y Y Y Y Y Y Y Y Y ",
"Y Y Y Y Y Y Y Y Y Y Y Y Y Y Y Y Y Y I 9 W ) ~ 4   F.I.I.F.X q ) I.I.I.                7 Y Y Y Y Y Y Y Y Y Y Y Y Y Y Y Y Y Y Y Y Y Y Y Y Y Y ",
"Y Y Y Y Y Y Y Y Y Y Y Y Y Y Y Y Y Y Y Y 5 o $ I . F.I.I.F.& F.I.I.I.I.    .           7 Y Y Y Y Y Y Y Y Y Y Y Y Y Y Y Y Y Y C.^ Y Y Y Y Y Y ",
"Y Y Y Y Y Y Y Y Y Y Y Y Y Y Y Y Y Y Y Y ^ Y I C.Y $ W F.0 J.I.I.I.F.  Y ^ V         V Y Y Y Y Y Y Y Y Y Y Y Y Y Y Y Y Y Y Y Y U Y Y Y Y Y Y ",
"Y Y Y Y Y Y Y Y Y Y Y Y Y Y Y Y Y Y Y Y Y Y Y Y Y $ W H.G.K.I.I.) q G Y Y V         V Y Y Y Y Y Y Y Y Y Y Y Y Y Y Y Y Y Y Y Y Y Y Y Y Y Y Y ",
"Y Y Y Y Y Y Y Y Y Y Y Y Y Y Y Y Y Y Y Y Y Y Y Y Y $ W I.I.I.I.( S D Y Y Y V       o V Y Y Y Y Y Y Y Y Y Y Y Y Y Y Y Y Y Y Y Y Y Y Y Y Y Y Y ",
"Y Y Y Y Y Y Y Y Y Y Y Y Y Y Y Y Y Y Y Y Y Y Y Y Y $ t ` H._ ) S B ^ Y Y P 7         V Y Y Y Y Y Y Y Y Y Y Y Y Y Y Y Y Y Y Y Y Y Y Y Y Y Y Y ",
"Y Y Y Y Y Y Y Y Y Y Y Y Y Y Y Y Y Y Y Y Y Y Y Y Y 5 . * ( . # D Y Y I C.6         # D Y Y Y Y Y Y Y Y Y Y Y Y Y Y Y Y Y Y Y Y Y Y Y Y Y Y Y ",
"Y Y Y Y Y Y Y Y Y Y Y Y Y Y Y Y Y Y Y Y Y Y Y Y Y Y B . . . K Y Y Y Y Y 6         K Y Y Y Y Y Y Y Y Y Y Y Y Y Y Y Y Y Y Y Y Y Y Y Y Y Y Y Y ",
"Y Y Y Y Y Y Y Y Y Y Y Y Y Y Y Y Y Y Y Y Y Y Y Y Y Y U K K K Y Y Y Y Y Y 4         K Y Y Y Y Y Y Y Y Y Y Y Y Y Y Y Y Y Y Y Y Y Y Y Y Y Y Y Y ",
"Y Y Y Y Y Y Y Y Y Y Y Y Y Y Y Y Y Y Y Y Y Y Y Y Y Y Y Y ^ Y Y Y Y Y Y Y 4         K Y Y Y Y Y Y Y Y Y Y Y Y Y Y Y Y Y Y Y Y Y Y Y Y Y Y Y Y ",
"Y Y Y Y Y Y Y Y Y Y Y Y Y Y Y Y Y Y Y Y Y Y Y Y Y Y Y Y Y Y Y Y Y Y Y V $         K Y Y Y Y Y Y Y Y Y Y Y Y Y Y Y Y Y Y Y Y Y Y Y Y Y Y Y Y ",
"Y Y Y Y Y Y Y Y Y Y Y Y Y Y Y Y Y Y Y Y Y Y Y Y Y Y Y Y Y Y Y Y Y Y Y           $ L Y Y Y Y Y Y Y Y Y Y Y Y Y Y Y Y Y Y Y Y Y Y Y Y Y Y Y Y ",
"Y Y Y Y Y Y Y Y Y Y Y Y Y Y Y Y Y Y Y Y Y Y Y Y Y Y Y Y Y Y Y Y Y Y Y           Y Y Y Y Y Y Y Y Y Y Y Y Y Y Y Y Y Y Y Y Y Y Y Y Y Y Y Y Y Y ",
"Y Y Y Y Y Y Y Y Y Y Y Y Y Y Y Y Y Y Y Y Y Y Y Y Y Y Y Y Y Y Y Y Y Y Y           Y Y Y Y Y Y Y Y Y Y Y Y Y Y Y Y Y Y Y Y Y Y Y Y Y Y Y Y Y Y ",
"Y Y Y Y Y Y Y Y Y Y Y Y Y Y Y Y Y Y Y Y Y Y Y Y Y Y Y Y Y Y Y Y Y Y Y .         Y Y Y Y Y Y Y Y Y Y Y Y Y Y Y Y Y Y Y Y Y Y Y Y Y Y Y Y Y Y ",
"Y Y Y Y Y Y Y Y Y Y Y Y Y Y Y Y Y Y Y Y Y Y Y Y Y Y Y Y Y Y Y Y Y U 9           Y Y Y Y Y Y Y Y Y Y Y Y Y Y Y Y Y Y Y Y Y Y Y Y Y Y Y Y Y Y ",
"Y Y Y Y Y Y Y Y Y Y Y Y Y Y Y Y Y Y Y Y Y Y Y Y Y Y Y Y Y Y Y Y Y K             Y Y Y Y Y Y Y Y Y Y Y Y Y Y Y Y Y Y Y Y Y Y Y Y Y Y Y Y Y Y ",
"Y Y Y Y Y Y Y Y Y Y Y Y Y Y Y Y Y Y Y Y Y Y Y Y Y Y Y Y Y Y Y Y Y P             Y Y Y Y Y Y Y Y Y Y Y Y Y Y Y Y Y Y Y Y Y Y Y Y Y Y Y Y Y Y ",
"Y Y Y Y Y Y Y Y Y Y Y Y Y Y Y Y Y Y Y Y Y Y Y Y Y Y Y Y Y Y Y Y Y K             Y Y Y Y Y Y Y Y Y Y Y Y Y Y Y Y Y Y Y Y Y Y Y Y Y Y Y Y Y Y ",
"Y Y Y Y Y Y Y Y Y Y Y Y Y Y Y Y Y Y Y Y Y Y Y Y Y Y Y Y Y Y Y Y Y K o           $ $ D ^ Y Y Y Y Y Y Y Y Y Y Y Y Y Y Y Y Y Y Y Y Y Y Y Y Y Y ",
"Y Y Y Y Y Y Y Y Y Y Y Y Y Y Y Y Y Y Y Y Y Y Y Y Y Y Y Y Y Y Y Y Y K             / / C D Y Y Y Y Y Y Y Y Y Y Y Y Y Y Y Y Y Y Y Y Y Y Y Y Y Y ",
"Y Y Y Y Y Y Y Y Y Y Y Y Y Y Y Y Y Y Y Y Y Y Y Y Y Y Y Y Y Y Y Y I G         * R I.I.h 7 Y Y Y Y Y Y Y Y Y Y Y Y Y Y Y Y Y Y Y Y Y Y Y Y Y Y ",
"Y Y Y Y Y Y Y Y Y Y Y Y Y Y Y Y Y Y Y Y Y Y Y Y Y Y Y Y Y Y Y Y C.L $       0 F.F.F.e 7 Y Y Y Y Y Y Y Y Y Y Y Y Y Y Y Y Y Y Y Y Y Y Y Y Y Y ",
"Y Y Y Y Y Y Y Y Y Y Y Y Y Y Y Y Y Y Y Y Y Y Y Y Y Y Y Y Y Y Y Y Y Y I .     . # & & . 7 ^ Y Y Y Y Y Y Y Y Y Y Y Y Y Y Y Y Y Y Y Y Y Y Y Y Y ",
"Y Y Y Y Y Y Y Y Y Y Y Y Y Y Y Y Y Y Y Y Y Y Y Y Y Y Y Y Y Y Y Y Y ^ Y K %     .       7 Y Y Y Y Y Y Y Y Y Y Y Y Y Y Y Y Y Y Y Y Y Y Y Y Y Y "
};
