/* XPM */
static char *result[] = {
/* columns rows colors chars-per-pixel */
"70 70 122 2 ",
"   c black",
".  c #00010A",
"X  c #090D2A",
"o  c #A5A5A5",
"O  c #2A3265",
"+  c #FFB97A",
"@  c #1A204A",
"#  c #394280",
"$  c #F7FF00",
"%  c #E63540",
"&  c #636600",
"*  c #323A73",
"=  c #202754",
"-  c #292C00",
";  c #262D5F",
":  c #2D356A",
">  c #04071E",
",  c #36407C",
"<  c #C8CE00",
"1  c #5F5F60",
"2  c #2C1A09",
"3  c #825C36",
"4  c #141A3C",
"5  c gray52",
"6  c #787879",
"7  c #9D9D9D",
"8  c #010215",
"9  c #403B3B",
"0  c white",
"q  c #323140",
"w  c gray8",
"e  c #2A2C2B",
"r  c #0E1334",
"t  c #343D78",
"y  c #4E4E4F",
"u  c #848484",
"i  c #9A6D43",
"p  c #686868",
"a  c #181402",
"s  c #969B00",
"d  c #7D8100",
"f  c #FF0650",
"g  c #4F0606",
"h  c #AEB400",
"j  c #0A0B07",
"k  c #B48151",
"l  c gray58",
"z  c #252941",
"x  c #FF1D2E",
"c  c #664528",
"v  c #FF0080",
"b  c #BD8856",
"n  c #E40000",
"m  c #6A0000",
"M  c #303771",
"N  c #E3CECE",
"B  c #E8A76C",
"V  c #464442",
"C  c #1A1A22",
"Z  c #FF0005",
"A  c #FAFF66",
"S  c #FC0000",
"D  c #F9FF32",
"F  c #FF9464",
"G  c #FFD6B0",
"H  c #393B00",
"J  c #FF006A",
"K  c #12305F",
"L  c #875F39",
"P  c #000108",
"I  c #593E2B",
"U  c #F0AE73",
"Y  c #727373",
"T  c #202100",
"R  c #292223",
"E  c #363234",
"W  c #827D7D",
"Q  c #8D8D8D",
"!  c #535353",
"~  c #7D0000",
"^  c #BCC200",
"/  c #2D0000",
"(  c #9F0000",
")  c #4C3712",
"_  c coral",
"`  c #4E8EF4",
"'  c #FF1908",
"]  c #2A2433",
"[  c #D89C65",
"{  c #5A5E00",
"}  c #DEE500",
"|  c #3A0000",
" . c #CE9560",
".. c #F5B275",
"X. c #846813",
"o. c #FEFFE6",
"O. c #FBFF8A",
"+. c #FF9890",
"@. c #D50000",
"#. c #8E6641",
"$. c #A5774E",
"%. c #714F2E",
"&. c #3567B5",
"*. c #A2A2A2",
"=. c #D39862",
"-. c #B50000",
";. c #FFB275",
":. c #FC5001",
">. c #9D3E22",
",. c #9B8169",
"<. c #FAD82C",
"1. c #EEC6AD",
"2. c #F8FF25",
"3. c #EEF500",
"4. c #ED6E44",
"5. c #FE442C",
"6. c #FFCEE8",
"7. c #FFB5DB",
"8. c #FF66B5",
"9. c #754400",
"0. c #FF61B3",
"q. c #000DA5",
/* pixels */
"# # # # # # # # # # # # # # # # # # # # # @ . . . : # # # # # # # # # # # # # # # # # # # # # # # # # # # # # # # # # # # # # # # # # # # # ",
"# # # # # # # # # # # # # # # # # # # # @ 9 3 3 3 ] O # # # # # # # # # # # # # # # # # # # # # # # # # # # # # # # # # # # # # # # # # # # ",
"# # # # # # # # # # # # # # # # # # # # . 3 + + + L q @ @ @ @ M # # # # # # # # # # # # # # # # # # # # # # # # # # # # # # # # # # # # # # ",
"# # # # # # # # # # # # # # # # # # # # . 3 + + + + L 2 2 2   = # # # # # # # # # # # # # # # # # # # # # # # # # # # # # # # # # # # # # # ",
"# # # # # # # # # # # # # # # # # # # # . 3 + + + + U B B B   = # # # # # # # # # # # # # # # # # # # # # # # # # # # # # # # # # # # # # # ",
"# # # # # # # # # # # # # # # # # # # # . 3 + + + + + + [ 2 O t # # # # # # # # # # # # # # # # # # # # # # # # # # # # # # # # # # # # # # ",
"# # # # # # # # # # # # # # # # # # # # = 9 c L U + + b I @ # # # # # # # # # # # # # # # # # # # # # # # # # # # # # # # # # # # # # # # # ",
"# # # # # # # # # # # # # # # # # # # # # = X ] #.i i I . # # # ; @ @ @ @ @ @ = # # # # # # # # # # # # # # # # # # # # # # # # # # # # # # ",
"# # # # # # # # # # # # # # # # # # # # # # # : 8         O O O e - - - - - - - O O , # # # # # # # # # # # # # # # # # # # # # # # # # # # ",
"# # # # # # # # # # # # # # # # # # # # # # # # # .             s $ $ $ $ $ $ <     O # # # # # # # # # # # # # # # # # # # # # # # # # # # ",
"# # # # # # # # # # # # # # # # # # # # # # # # # .         $ $ $ $ $ $ $ $ $ $ $ $ - 4 # # # # # # O   # # # # # # # # # # # # # # # # # # ",
"# # # # # # # # # # # # # # # # # # # # # # # # # ; 8   a h $ $ $ $ $ $ $ $ $ $ $ $ ^ & r # # # # ; R $.> O # # # # # # # # # # # # # # # # ",
"# # # # # # # # # # # # # # # # # # # # # # # # # # X   - $ A A A D $ $ h s ^ $ $ $ $ d . # # # # @ 2 B c q ; # # # # # # # # # # # # # # # ",
"# # # # # # # # # # # # # # # # # # # # # # # # # # X   { $ 0 0 o.O.$ < )   & $ 2.$ $ s - O , # # = R b + %.] O O O , # # # # # # # # # # # ",
"# # # # # # # # # # # # # # # # # # # # # # # # # # X & $ $ 0 0 A $ $    .c & D o.D $ $ <   * # # # O   + + i       O # # # # # # # # # # # ",
"# # # # # # # # # # # # # # # # # # # # # # # # # # X & $ $ $ $ $ h   + + + i e 0 0 0 O.<   * # # # O   + + + + + + 2 @ # # # # # # # # # # ",
"# # # # # # # # # # # # # # # # # # # # # # # # # # X & $ $ $ $ $ h   ' ' _ 4.@.5.<.D $ 3.^ a : # =     + + + + + + [ I 4 # # # # # # # # # ",
"# # # # # # # # # # # # # # # # # # # # # # # # # # X & $ $ $ $ s 9.( +.f x x f f :.X.h } { z t @ q y   c =.+ + + + + c X # # # # # # # # # ",
"# # # # # # # # # # # # # # # # # # # # # # # # # # X & $ $ $ $ & g Z 7.0.f f v J Z / d <   * ; z 1 Q E   3 k k k k U i E ; # # # # # # # # ",
"# # # # # # # # # # # # # # # # # # # # # # # # # # X & $ $ $ $ & g Z v 6.8.v v v Z / d <   * . 1 o o o              .+ i . # # # # # # # # ",
"# # # # # # # # # # # # # # # # # # # # # # # # # # X   T } $ $ & ) + Z J v v J ' F 2 d <     5 7 l 6 .   ; # # # # 8     8 # # # # # # # # ",
"# # # # # # # # # # # # # # # # # # # # # # # # # # X     - $ $ & ) + F x f f x F ;.2 d <   6 7 ! w C ; O t # # # # : O O : # # # # # # # # ",
"# # # # # # # # # # # # # # # # # # # # # # # # # # ; >     & & X.b + + _ x x _ + + 2 - & p 7 ! z @ = , # # # # # # # # # # # # # # # # # # ",
"# # # # # # # # # # # # # # # # # # # # # # # # # # # ; X X     ,.G G G G +.F + ..k V 9 ! 7 p 4 ; # # # # # # # # # # # # # # # # # # # # # ",
"# # # # # # # # # # # # # # # # # # # # # # # # # # # # # #     W N N N N N 1...b a p l 7 6 > : # # # # # # # # # # # # # # # # # # # # # # ",
"# # # # # # # # # # # # # # # # # # # # # # # # # # # # # #     | m m ~ ~ m >.b       V 6 P * # # # # # # # # # # # # # # # # # # # # # # # ",
"# # # # # # # # # # # # # # # # # # # # # # # # # # # # # #     | m m n n ( g a         C O , # # # # # # # # # # # # # # # # # # # # # # # ",
"# # # # # # # # # # # # # # # # # # # # # # # # # # # # # #       g n S S n ( g 6 j   X : # # # # # # # # # # # # # # # # # # # # # # # # # ",
"# # # # # # # # # # # # # # # # # # # # # # # # # # # # # #   K X / -.S S @.~ g l w X ; # # # # # # # # # # # # # # # # # # # # # # # # # # ",
"# # # # # # # # # # # # # # # # # # # # # # # # # # # # , O   &.% % % n % % % j 6 C : # # # # # # # # # # # # # # # # # # # # # # # # # # # ",
"# # # # # # # # # # # # # # # # # # # # # # # # # # # # O   . % % % % % % % % % P O # # # # # # # # # # # # # # # # # # # # # # # # # # # # ",
"# # # # # # # # # # # # # # # # # # # # # # # # # # # # O   ` % % % % % % 0 % % * , # # # # # # # # # # # # # # # # # # # # # # # # # # # # ",
"# # # # # # # # # # # # # # # # # # # # # # # # # # # # O   ` % % % % % % % % % # # # # # # # # # # # # # # # # # # # # # # # # # # # # # # ",
"# # # # # # # # # # # # # # # # # # # # # # # # # # # # O   K 8 % % % % % % % # # # # # # # # # # # # # # # # # # # # # # # # # # # # # # # ",
"# # # # # # # # # # # # # # # # # # # # # # # # # # # : e &     K % % % % % # # # # # # # # # # # # # # # # # # # # # # # # # # # # # # # # ",
"# # # # # # # # # # # # # # # # # # # # # # # # # # # @ T <       H % % % = # # # # # # # # # # # # # # # # # # # # # # # # # # # # # # # # ",
"# # # # # # # # # # # # # # # # # # # # # # # # # # # @   j         j % ; , # # # # # # # # # # # # # # # # # # # # # # # # # # # # # # # # ",
"# # # # # # # # # # # # # # # # # # # # # # # # # # # @ T <     d s     O # # # # # > . > # # # # # # # # # # # # # # # # # # # # # # # # # ",
"# # # # # # # # # # # # # # # # # # # # # # # # # # # @   &     H H     > ; # # t 4       r t # # # # # # # # # # # # # # # # # # # # # # # ",
"# # # # # # # # # # # # # # # # # # # # # # # # # # # @                   @ # # * .         4 @ : # # # # # # # # # # # # # # # # # # # # # ",
"# # # # # # # # # # # # # # # # # # # # # # # # # # M r   -     a a   w w z M # * .             r M # # # # # # # # # # # # # # # # # # # # ",
"# # # # # # # # # # # # # # # # # # # # # # # # # # X   - $     s h   o o 9 X # * .               X # # # # # # # # # # # # # # # # # # # # ",
"# # # # # # # # # # # # # # # # # # # # # # # # # .               e o       X O     u y             . * # # # # # # # # # # # # # # # # # # ",
"# # # # # # # # # # # # # # # # # # # # # # # # # .                 e   1 R X O   1 7 Q 1       V V . * # # # # # # # # # # # # # # # # # # ",
"# # # # # # # # # # # # # # # # # # # # # # # # # 4                   9 l p q r   5 o o u     e W 1 . * # # # # # # # # # # # # # # # # # # ",
"# # # # # # # # # # # # # # # # # # # # # # # # # # X                 o o o 6 C   5 o o u   8 1 Y y r t # # # # # # # # # # # # # # # # # # ",
"# # # # # # # # # # # # # # # # # # # # # # # # # # X                 o o o o u   5 o o u   * .   X # # # # # # # # # # # # # # # # # # # # ",
"# # # # # # # # # # # # # # # # # # # # # # # # # # # @         @ # #   5 o o o l w u y . # # # # # # # # # # # # # # # # # # # # # # # # # ",
"# # # # # # # # # # # # # # # # # # # # # # # # # # # @         @ # # O C Y o o *.Q 7 y . # # # # # # # # # # # # # # # # # # # # # # # # # ",
"# # # # # # # # # # # # # # # # # # # # # # # # # # # @         @ # # # = q p o o o o y . # # # # # # # # # # # # # # # # # # # # # # # # # ",
"# # # # # # # # # # # # # # # # # # # # # # # # # # # @         X O # # # @ q Y 6 7 W E . # # # # # # # # # # # # # # # # # # # # # # # # # ",
"# # # # # # # # # # # # # # # # # # # # # # # # # # # =           > # # # # =     p j   > # # # # # # # # # # # # # # # # # # # # # # # # # ",
"# # # # # # # # # # # # # # # # # # # # # # # # # # # # O         > # # # # # O       4 # # # # # # # # # # # # # # # # # # # # # # # # # # ",
"# # # # # # # # # # # # # # # # # # # # # # # # # # # # O         > # # # # # , O O O * # # # # # # # # # # # # # # # # # # # # # # # # # # ",
"# # # # # # # # # # # # # # # # # # # # # # # # # # # # O         > # # # # # # # # # # # # # # # # # # # # # # # # # # # # # # # # # # # # ",
"# # # # # # # # # # # # # # # # # # # # # # # # # # # # O         P @ # # # # # # # # # # # # # # # # # # # # # # # # # # # # # # # # # # # ",
"# # # # # # # # # # # # # # # # # # # # # # # # # # # # : .           # # # # # # # # # # # # # # # # # # # # # # # # # # # # # # # # # # # ",
"# # # # # # # # # # # # # # # # # # # # # # # # # # # # # #           # # # # # # # # # # # # # # # # # # # # # # # # # # # # # # # # # # # ",
"# # # # # # # # # # # # # # # # # # # # # # # # # # # # # #           # # # # # # # # # # # # # # # # # # # # # # # # # # # # # # # # # # # ",
"# # # # # # # # # # # # # # # # # # # # # # # # # # # # # #           # # # # # # # # # # # # # # # # # # # # # # # # # # # # # # # # # # # ",
"# # # # # # # # # # # # # # # # # # # # # # # # # # # # # #           4 * # # # # # # # # # # # # # # # # # # # # # # # # # # # # # # # # # ",
"# # # # # # # # # # # # # # # # # # # # # # # # # # # # # #             O # # # # # # # # # # # # # # # # # # # # # # # # # # # # # # # # # ",
"# # # # # # # # # # # # # # # # # # # # # # # # # # # # # #             O # # # # # # # # # # # # # # # # # # # # # # # # # # # # # # # # # ",
"# # # # # # # # # # # # # # # # # # # # # # # # # # # # # #             O # # # # # # # # # # # # # # # # # # # # # # # # # # # # # # # # # ",
"# # # # # # # # # # # # # # # # # # # # # # # # # # # = . .             O # # # # # # # # # # # # # # # # # # # # # # # # # # # # # # # # # ",
"# # # # # # # # # # # # # # # # # # # # # # # # # # @ q 1 1             O # # # # # # # # # # # # # # # # # # # # # # # # # # # # # # # # # ",
"# # # # # # # # # # # # # # # # # # # # # # # # # # X 9 o o 9           O # # # # # # # # # # # # # # # # # # # # # # # # # # # # # # # # # ",
"# # # # # # # # # # # # # # # # # # # # # # # # # # X e 5 5 5 C       . : # # # # # # # # # # # # # # # # # # # # # # # # # # # # # # # # # ",
"# # # # # # # # # # # # # # # # # # # # # # # # # # X                 * , # # # # # # # # # # # # # # # # # # # # # # # # # # # # # # # # # ",
"# # # # # # # # # # # # # # # # # # # # # # # # # # X             8 O # # # # # # # # # # # # # # # # # # # # # # # # # # # # # # # # # # # "
};
