/* XPM */
static char *result[] = {
/* columns rows colors chars-per-pixel */
"70 70 136 2 ",
"   c black",
".  c #1A204A",
"X  c #A5A5A5",
"o  c #090D2A",
"O  c #FFB97A",
"+  c #2A3265",
"@  c #00010A",
"#  c #394280",
"$  c #F7FF00",
"%  c #E63540",
"&  c #313973",
"*  c #636600",
"=  c #202754",
"-  c #262D5F",
";  c #2D356A",
":  c #292C00",
">  c #333F7A",
",  c #03051A",
"<  c #606060",
"1  c #505051",
"2  c #C8CE00",
"3  c gray52",
"4  c #2C1A09",
"5  c #825C36",
"6  c #787879",
"7  c #13193D",
"8  c white",
"9  c #000004",
"0  c #FE0003",
"q  c #A09F9F",
"w  c #313141",
"e  c #848484",
"r  c #9A6D43",
"t  c #686868",
"y  c gray8",
"u  c #292725",
"i  c gray24",
"p  c #2D2E30",
"a  c #191A25",
"s  c #6B0000",
"d  c #E30000",
"f  c gray58",
"g  c #684629",
"h  c #D39962",
"j  c #FF075A",
"k  c #191402",
"l  c #050201",
"z  c #FF0080",
"x  c #262942",
"c  c #BD8856",
"v  c #7E8200",
"b  c #AFB500",
"n  c #F9FF2F",
"m  c #0C1131",
"M  c #89613B",
"N  c #060A24",
"B  c #E3CECE",
"V  c #E8A76C",
"C  c #3B3237",
"Z  c #534036",
"A  c #B58252",
"S  c #4E0000",
"D  c #969B00",
"F  c #FAFF66",
"G  c #4E8AEE",
"H  c #FF9464",
"J  c #FFD6B0",
"K  c #102C5A",
"L  c #FF2336",
"P  c #2A2433",
"I  c #111436",
"U  c #F0AE73",
"Y  c #727373",
"T  c #424343",
"R  c #211D1C",
"E  c #202100",
"W  c #0C0D00",
"Q  c #827D7D",
"!  c #010212",
"~  c #8D8D8D",
"^  c #9B9B9B",
"/  c #0B0B0B",
"(  c #BCC200",
")  c #F9B275",
"_  c #2D0000",
"`  c #7D0000",
"'  c #3C0101",
"]  c coral",
"[  c #FF1908",
"{  c #FF0046",
"}  c #3365B2",
"|  c #754400",
" . c #353700",
".. c #5A5E00",
"X. c #1C2036",
"o. c #DEE500",
"O. c #FBFF8A",
"+. c #FF9890",
"@. c #939AAE",
"#. c #FF101E",
"$. c #62060B",
"%. c #153566",
"&. c #A50202",
"*. c #4B3119",
"=. c #2B589E",
"-. c #082046",
";. c #FF0075",
":. c #9B0000",
">. c #A5AA00",
",. c #D50000",
"<. c #FF63B4",
"1. c #5C3E22",
"2. c #414400",
"3. c #A5774E",
"4. c #797C00",
"5. c #8D9100",
"6. c #9D3E22",
"7. c #B07F50",
"8. c #FC5001",
"9. c #FAD82C",
"0. c #9B8169",
"q. c #FEFFE3",
"w. c #491414",
"e. c #EEC6AD",
"r. c #836600",
"t. c #F8FF0B",
"y. c #856B22",
"u. c #FEFFE8",
"i. c #906868",
"p. c #B50000",
"a. c #FE442C",
"s. c #3D5D6B",
"d. c #ED6E44",
"f. c #FFCEE8",
"g. c #FFB5DB",
"h. c #4F4203",
/* pixels */
"# # # # # # # # # # # # # # # # # # # # # . @ @ @ ; # # # # # # # # # # # # # # # # # # # # # # # # # # # # # # # # # # # # # # # # # # # # ",
"# # # # # # # # # # # # # # # # # # # # . Z 5 5 5 P + # # # # # # % % % # % % % # # # # # # # # # # # # # # # # # # # # # # # # # # # # # # ",
"# # # # # # # # # # # # # # # # # # # # @ 5 O O O M C . . . . & % % % % % % % % % # # # # # # # # # # # # # # # # # # # # # # # # # # # # # ",
"# # # # # # # # # # # # # # # # # # # # @ 5 O O O O M 4 4 4   = % % % % % % 8 % % # # # # # # # # # # # # # # # # # # # # # # # # # # # # # ",
"# # # # # # # # # # # # # # # # # # # # @ 5 O O O O U V V V   = % % % % % % % % % # # # # # # # # # # # # # # # # # # # # # # # # # # # # # ",
"# # # # # # # # # # # # # # # # # # # # @ 5 O O O O O O h 4 + > # % % % % % % % # # # # # # # # # # # # # # # # # # # # # # # # # # # # # # ",
"# # # # # # # # # # # # # # # # # # # # = C g M U O O c Z . # # # # % % % % % # # # # # # # # # # # # # # # # # # # # # # # # # # # # # # # ",
"# # # # # # # # # # # # # # # # # # # # # = o P M r r 1.@ # # # - . . % % % . = # # # # # # # # # # # # # # # # # # # # # # # # # # # # # # ",
"# # # # # # # # # # # # # # # # # # # # # # # ; ,       9 + + + u : : : % : : : + + > # # # # # # # # # # # # # # # # # # # # # # # # # # # ",
"# # # # # # # # # # # # # # # # # # # # # # # # # @             D $ $ $ $ $ $ 2     + # # # # # # # # # # # # # # # # # # # # # # # # # # # ",
"# # # # # # # # # # # # # # # # # # # # # # # # # @         $ $ $ $ $ $ $ $ $ $ $ $ : 7 # # # # # # +   # # # # # # # # # # # # # # # # # # ",
"# # # # # # # # # # # # # # # # # # # # # # # # # - ,   k b $ $ $ $ $ $ $ $ $ $ $ $ ( * m # # # # - u 3., + # # # # # # # # # # # # # # # # ",
"# # # # # # # # # # # # # # # # # # # # # # # # # # o   : $ F F F n $ $ >.D ( $ $ $ $ v @ # # # # . 4 V g w - # # # # # # # # # # # # # # # ",
"# # # # # # # # # # # # # # # # # # # # # # # # # # o l ..$ 8 8 q.O.$ 2 h.l * $ n $ $ D : + # # # = u c O g P + + + > # # # # # # # # # # # ",
"# # # # # # # # # # # # # # # # # # # # # # # # # # o * $ $ 8 8 F $ $   h g * n u.n $ $ 2   & # # # +   O O r       + # # # # # # # # # # # ",
"# # # # # # # # # # # # # # # # # # # # # # # # # # o * $ $ $ $ $ b   O O O r p 8 8 8 O.2   & # # # +   O O O O O O 4 . # # # # # # # # # # ",
"# # # # # # # # # # # # # # # # # # # # # # # # # # o * $ $ $ $ $ b   [ [ ] d.,.a.9.n t.$ ( k ; # = 9   O O O O O O h Z 7 # # # # # # # # # ",
"# # # # # # # # # # # # # # # # # # # # # # # # # # o * $ $ $ $ >.| :.+.j L L { { 8.r.b o...x & . w 1   g h O O O O O g o # # # # # # # # # ",
"# # # # # # # # # # # # # # # # # # # # # # # # # # o * $ $ $ $ * S 0 g.<.j { z ;.0 _ v 2   & - x < ~ C   5 A A A A U r C - # # # # # # # # ",
"# # # # # # # # # # # # # # # # # # # # # # # # # # o * $ $ $ $ * S 0 z f.<.z z ;.0 _ v 2   & @ < X X X             h O r @ # # # # # # # # ",
"# # # # # # # # # # # # # # # # # # # # # # # # # # o   E o.$ $ * *.O 0 j z z j [ H 4 v 2     3 ^ f 6 @   - # # # # ,     , # # # # # # # # ",
"# # # # # # # # # # # # # # # # # # # # # # # # # # o     : $ $ * *.O H #.j j #.H ) 4 v 2   6 q 1 y a - + > # # # # ; + + ; # # # # # # # # ",
"# # # # # # # # # # # # # # # # # # # # # # # # # # - N     * * y.c O O ] L L ] O O 4 : * t q 1 x . = > # # # # # # # # # # # # # # # # # # ",
"# # # # # # # # # # # # # # # # # # # # # # # # # # # - o o     0.J J J J +.H O ) 7.Z i 1 q t X.- # # # # # # # # # # # # # # # # # # # # # ",
"# # # # # # # # # # # # # # # # # # # # # # # # # # # # # #     Q B B B B B e.) c k t f q 6 , ; # # # # # # # # # # # # # # # # # # # # # # ",
"# # # # # # # # # # # # # # # # # # # # # # # # # # # # # #     ' s s ` ` s 6.c     l T 6 @ & # # # # # # # # # # # # # # # # # # # # # # # ",
"# # # # # # # # # # # # # # # # # # # # # # # # # # # # # #     ' s s d d :.S k         a + # # # # # # # # # # # # # # # # # # # # # # # # ",
"# # # # # # # # # # # # # # # # # # # # # # # # # # # # # #       S d 0 0 d &.$.6 /   o ; # # # # # # # # # # # # # # # # # # # # # # # # # ",
"# # # # # # # # # # # # # # # # # # # # # # # # # # # # # #   K o _ p.0 0 ,.` w.f y o - # # # # # # # # # # # # # # # # # # # # # # # # # # ",
"# # # # # # # # # # # # # # # # # # # # # # # # # # # # > +   } %.l S d d &.' / 6 a ; # # # # # # # # # # # # # # # # # # # # # # # # # # # ",
"# # # # # # # # # # # # # # # # # # # # # # # # # # # # +   @ } K   @ $.s i.<   @ + # # # # # # # # # # # # # # # # # # # # # # # # # # # # ",
"# # # # # # # # # # # # # # # # # # # # # # # # # # # # +   G K   -.G G @.q < 9 & # # # # # # # # # # # # # # # # # # # # # # # # # # # # # ",
"# # # # # # # # # # # # # # # # # # # # # # # # # # # # +   G -.> =.o @.X 1 X.; # # # # # # # # # # # # # # # # # # # # # # # # # # # # # # ",
"# # # # # # # # # # # # # # # # # # # # # # # # # # # # +   %.! =.}   X 1 x - # # # # # # # # # # # # # # # # # # # # # # # # # # # # # # # ",
"# # # # # # # # # # # # # # # # # # # # # # # # # # # ; p *     K s.* X y . # # # # # # # # # # # # # # # # # # # # # # # # # # # # # # # # ",
"# # # # # # # # # # # # # # # # # # # # # # # # # # # . E 2        .2 3 a = # # # # # # # # # # # # # # # # # # # # # # # # # # # # # # # # ",
"# # # # # # # # # # # # # # # # # # # # # # # # # # # .   W         W   - > # # # # # # # # # # # # # # # # # # # # # # # # # # # # # # # # ",
"# # # # # # # # # # # # # # # # # # # # # # # # # # # . E 2     4.5.    + # # # # # N @ N # # # # # # # # # # # # # # # # # # # # # # # # # ",
"# # # # # # # # # # # # # # # # # # # # # # # # # # # . l *      .2.    , - # # > 7       m > # # # # # # # # # # # # # # # # # # # # # # # ",
"# # # # # # # # # # # # # # # # # # # # # # # # # # # .                   . # # & @       9 7 . ; # # # # # # # # # # # # # # # # # # # # # ",
"# # # # # # # # # # # # # # # # # # # # # # # # # # & I   :     W k   y y x & # & @             I & # # # # # # # # # # # # # # # # # # # # ",
"# # # # # # # # # # # # # # # # # # # # # # # # # # o   : $     D b   X X i o # & @               o # # # # # # # # # # # # # # # # # # # # ",
"# # # # # # # # # # # # # # # # # # # # # # # # # @               u X       o +     e 1             @ & # # # # # # # # # # # # # # # # # # ",
"# # # # # # # # # # # # # # # # # # # # # # # # # @               9 u   < u o +   < ^ ~ <       T T @ & # # # # # # # # # # # # # # # # # # ",
"# # # # # # # # # # # # # # # # # # # # # # # # # 7 9                 i f t w I   3 X X e     p Q < @ & # # # # # # # # # # # # # # # # # # ",
"# # # # # # # # # # # # # # # # # # # # # # # # # # o                 X X X 6 R   3 X X e   ! < Y 1 m > # # # # # # # # # # # # # # # # # # ",
"# # # # # # # # # # # # # # # # # # # # # # # # # # o                 X X X X e   3 X X e   & @   o # # # # # # # # # # # # # # # # # # # # ",
"# # # # # # # # # # # # # # # # # # # # # # # # # # # .         . # #   3 X X X f y e 1 @ # # # # # # # # # # # # # # # # # # # # # # # # # ",
"# # # # # # # # # # # # # # # # # # # # # # # # # # # .         . # # + a Y X X q ~ q 1 @ # # # # # # # # # # # # # # # # # # # # # # # # # ",
"# # # # # # # # # # # # # # # # # # # # # # # # # # # .         . # # # = w t X X X X 1 @ # # # # # # # # # # # # # # # # # # # # # # # # # ",
"# # # # # # # # # # # # # # # # # # # # # # # # # # # .         m + # # # . w Y 6 ^ Q p @ # # # # # # # # # # # # # # # # # # # # # # # # # ",
"# # # # # # # # # # # # # # # # # # # # # # # # # # # = 9         , # # # # = 9   t /   N # # # # # # # # # # # # # # # # # # # # # # # # # ",
"# # # # # # # # # # # # # # # # # # # # # # # # # # # # +         , # # # # # +       7 # # # # # # # # # # # # # # # # # # # # # # # # # # ",
"# # # # # # # # # # # # # # # # # # # # # # # # # # # # +         , # # # # # > + + + & # # # # # # # # # # # # # # # # # # # # # # # # # # ",
"# # # # # # # # # # # # # # # # # # # # # # # # # # # # +         , # # # # # # # # # # # # # # # # # # # # # # # # # # # # # # # # # # # # ",
"# # # # # # # # # # # # # # # # # # # # # # # # # # # # +         9 . # # # # # # # # # # # # # # # # # # # # # # # # # # # # # # # # # # # ",
"# # # # # # # # # # # # # # # # # # # # # # # # # # # # ; @           # # # # # # # # # # # # # # # # # # # # # # # # # # # # # # # # # # # ",
"# # # # # # # # # # # # # # # # # # # # # # # # # # # # # #           # # # # # # # # # # # # # # # # # # # # # # # # # # # # # # # # # # # ",
"# # # # # # # # # # # # # # # # # # # # # # # # # # # # # #           # # # # # # # # # # # # # # # # # # # # # # # # # # # # # # # # # # # ",
"# # # # # # # # # # # # # # # # # # # # # # # # # # # # # #           # # # # # # # # # # # # # # # # # # # # # # # # # # # # # # # # # # # ",
"# # # # # # # # # # # # # # # # # # # # # # # # # # # # # #           7 & # # # # # # # # # # # # # # # # # # # # # # # # # # # # # # # # # ",
"# # # # # # # # # # # # # # # # # # # # # # # # # # # # # #             + # # # # # # # # # # # # # # # # # # # # # # # # # # # # # # # # # ",
"# # # # # # # # # # # # # # # # # # # # # # # # # # # # # #             + # # # # # # # # # # # # # # # # # # # # # # # # # # # # # # # # # ",
"# # # # # # # # # # # # # # # # # # # # # # # # # # # # # #             + # # # # # # # # # # # # # # # # # # # # # # # # # # # # # # # # # ",
"# # # # # # # # # # # # # # # # # # # # # # # # # # # = @ @             + # # # # # # # # # # # # # # # # # # # # # # # # # # # # # # # # # ",
"# # # # # # # # # # # # # # # # # # # # # # # # # # . w < <             + # # # # # # # # # # # # # # # # # # # # # # # # # # # # # # # # # ",
"# # # # # # # # # # # # # # # # # # # # # # # # # # o i X X i l         + # # # # # # # # # # # # # # # # # # # # # # # # # # # # # # # # # ",
"# # # # # # # # # # # # # # # # # # # # # # # # # # o p 3 3 3 R       @ ; # # # # # # # # # # # # # # # # # # # # # # # # # # # # # # # # # ",
"# # # # # # # # # # # # # # # # # # # # # # # # # # o                 & # # # # # # # # # # # # # # # # # # # # # # # # # # # # # # # # # # ",
"# # # # # # # # # # # # # # # # # # # # # # # # # # o             ! + # # # # # # # # # # # # # # # # # # # # # # # # # # # # # # # # # # # "
};
