/* XPM */
static char *_4eb4e558f0545be8ac816ddcfb67282OT651uDENraHZzmF[] = {
/* columns rows colors chars-per-pixel */
"70 70 172 2 ",
"   c #000000",
".  c #06070B",
"X  c #0D0D0D",
"o  c #0A0700",
"O  c #170805",
"+  c #1B1C00",
"@  c #141400",
"#  c #0A0C15",
"$  c #0C0E19",
"%  c #0D121F",
"&  c #101010",
"*  c #19191A",
"=  c #340000",
"-  c #3F0000",
";  c #291D13",
":  c #1F2117",
">  c #2A2B00",
",  c #232400",
"<  c #323300",
"1  c #3C3D00",
"2  c #332518",
"3  c #313414",
"4  c #111424",
"5  c #16192D",
"6  c #161826",
"7  c #191C32",
"8  c #111E33",
"9  c #1E223D",
"0  c #232323",
"q  c #24252E",
"w  c gray18",
"e  c #332E3B",
"r  c #333333",
"t  c #3A383B",
"y  c #2B2E35",
"u  c #4D0000",
"i  c #530000",
"p  c #540F0A",
"a  c #521717",
"s  c #6A0000",
"d  c #780000",
"f  c #6A1016",
"g  c #4D3724",
"h  c #4B3C3E",
"j  c #4B2121",
"k  c #504E06",
"l  c #734800",
"z  c #5D6007",
"x  c #636600",
"c  c #626514",
"v  c #777A00",
"b  c #5A4332",
"n  c #664930",
"m  c #7D5A3B",
"M  c #1E345A",
"N  c #182A49",
"B  c #212543",
"V  c #252A4C",
"C  c #2B2F49",
"Z  c #2E3143",
"A  c #363846",
"S  c #373646",
"D  c #2A2F54",
"F  c #2C325A",
"G  c #30365E",
"H  c #2F3560",
"J  c #223B66",
"K  c #323865",
"L  c #343B6B",
"P  c #313763",
"I  c #383F71",
"U  c #394175",
"Y  c #3E467E",
"T  c #28477A",
"R  c #424242",
"E  c #4C4C4C",
"W  c #545454",
"Q  c #5D5D5D",
"!  c #504C4C",
"~  c #5F5F63",
"^  c #415D6B",
"/  c #626262",
"(  c DimGray",
")  c #757575",
"_  c #777778",
"`  c #7C7C7C",
"'  c #800000",
"]  c #990000",
"[  c #9F1414",
"{  c #A70000",
"}  c #B30000",
"|  c #DF0000",
" . c #D30505",
".. c #EA0000",
"X. c #FD0000",
"o. c #FF001A",
"O. c #FF120C",
"+. c #FF2518",
"@. c #FF2317",
"#. c #FF1D28",
"$. c #FF2C3C",
"%. c #816600",
"&. c #825D3D",
"*. c #9B422B",
"=. c #836B2B",
"-. c #FC520F",
";. c #FE4833",
":. c #FF004C",
">. c #FF0A45",
",. c #FF0057",
"<. c #FF045F",
"1. c #FF1F5B",
"2. c #E43B44",
"3. c #FF0073",
"4. c #FF007B",
"5. c #996E48",
"6. c #946A46",
"7. c #8C6645",
"8. c #AE7D52",
"9. c #8F766E",
"0. c #FF7D52",
"q. c #EB6E48",
"w. c #7C8000",
"e. c #8B8F00",
"r. c #949900",
"t. c #9EA300",
"y. c #ADB300",
"u. c #AEB401",
"i. c #BCC200",
"p. c #C6CC00",
"a. c #DCE300",
"s. c #F7FF00",
"d. c #F7FF0A",
"f. c #F3FA0D",
"g. c #FAD633",
"h. c #F9FF33",
"j. c #F8FF2E",
"k. c #B38054",
"l. c #B88456",
"z. c #C28B5B",
"x. c #CC9360",
"c. c #D49964",
"v. c #FF9561",
"b. c #FF876D",
"n. c #E6A56C",
"m. c #F0AC71",
"M. c #FFB778",
"N. c #F8B073",
"B. c #F9FF48",
"V. c #FAFF66",
"C. c #335A9C",
"Z. c #3A65B0",
"A. c #FF0080",
"S. c #FF64B2",
"D. c #5188EC",
"F. c #838383",
"G. c #8B8B8B",
"H. c #9B9B9B",
"J. c #929292",
"K. c #A19D9D",
"L. c #8F90A3",
"P. c #93A0B5",
"I. c #A3A3A3",
"U. c #FF968E",
"Y. c #FBFF88",
"T. c #FFD4AE",
"R. c #EDC4AB",
"E. c #FFB3D9",
"W. c #E1CCCC",
"Q. c #FFCCE6",
"!. c #FEFFE4",
"~. c white",
/* pixels */
"Y Y Y Y Y Y Y Y Y Y Y Y Y Y Y Y Y Y Y Y Y V % $ $ L ^ Y Y Y Y Y Y Y Y Y Y Y Y Y Y Y Y Y Y Y Y Y Y Y Y Y Y Y Y Y Y Y Y Y Y Y Y Y Y Y Y Y Y Y ",
"Y Y Y Y Y Y Y Y Y Y Y Y Y Y Y Y Y Y Y Y V b m m m Z K Y Y Y Y Y Y Y Y Y Y Y Y Y Y Y Y Y Y Y Y Y Y Y Y Y Y Y Y Y Y Y Y Y Y Y Y Y Y Y Y Y Y Y ",
"Y Y Y Y Y Y Y Y Y Y Y Y Y Y Y Y Y Y Y Y % m M.M.M.&.S V V V V I Y Y Y Y Y Y Y Y Y Y Y Y Y Y Y Y Y Y Y Y Y Y Y Y Y Y Y Y Y Y Y Y Y Y Y Y Y Y ",
"Y Y Y Y Y Y Y Y Y Y Y Y Y Y Y Y Y Y Y Y $ m M.M.M.U.&.2 2 2   D Y Y Y Y Y Y Y Y Y Y Y Y Y Y Y Y Y Y Y Y Y Y Y Y Y Y Y Y Y ^ Y Y Y Y Y Y Y Y ",
"Y Y Y Y Y Y Y Y Y Y Y Y Y Y Y Y Y Y Y Y # &.M.M.M.M.m.n.n.n.  F Y Y Y Y Y Y Y Y Y Y Y Y Y Y Y Y Y Y Y Y Y Y Y Y Y Y Y Y Y Y Y Y Y Y Y Y Y Y ",
"Y Y Y Y Y Y Y Y Y Y Y Y Y Y Y Y Y Y Y Y $ &.M.U.M.M.M.M.c.3 L U Y Y Y Y Y Y Y Y Y Y Y Y Y Y Y Y Y Y Y Y Y Y Y Y Y Y Y Y Y Y Y Y Y Y Y Y Y Y ",
"Y Y Y Y Y Y Y Y Y Y Y Y Y Y Y Y Y Y Y Y D h n &.m.M.M.l.b V Y Y Y Y Y Y Y Y Y Y Y Y Y Y Y Y Y Y Y Y Y Y Y Y Y Y Y Y Y Y Y Y Y Y Y Y Y Y Y Y ",
"Y Y Y Y Y Y Y Y Y Y Y Y Y Y Y Y Y Y Y Y Y D 7 e 7.5.5.n $ Y Y Y H V V V V V V D Y Y Y Y Y Y Y Y Y Y Y Y Y Y Y Y Y Y Y Y Y Y Y Y Y Y Y Y Y Y ",
"Y Y Y Y Y Y Y Y Y Y Y Y Y Y Y Y Y Y Y Y Y Y Y L 4       # K K K r < < < < < < 3 K K ^ Y Y Y Y Y Y Y Y Y Y Y ^ U Y Y Y Y Y Y Y Y Y Y Y Y Y Y ",
"Y Y Y Y Y Y Y Y Y Y Y Y Y Y Y Y Y Y Y Y Y Y Y Y C.$             r.s.s.s.s.s.s.p.    K Y Y Y Y Y Y Y Y Y Y Y Y I Y Y Y Y Y Y Y Y Y Y Y Y Y Y ",
"Y Y Y Y Y Y Y Y Y Y Y Y Y Y Y Y Y Y Y Y Y Y Y Y I &         s.s.s.s.s.s.s.s.s.s.s.s.2 7 Y Y Y Y 2.2.2.# 2.2.2.C.Y Y Y Y Y Y Y Y Y Y Y Y Y Y ",
"Y Y Y Y Y Y Y Y Y Y Y Y Y Y Y Y Y Y Y Y Y Y Y Y Y G 4   , y.s.s.s.s.s.s.s.s.s.s.s.s.u.c 9 Y Y 2.2.2.2.2.2.2.2.2.Y Y Y Y Y Y Y Y Y Y Y Y Y Y ",
"Y Y Y Y Y Y Y Y Y Y Y Y Y Y Y Y Y Y Y Y Y Y Y Y Y Y 7   < s.V.V.V.B.s.s.y.r.i.s.s.s.s.w.$ Y Y 2.2.2.2.2.2.~.2.2.Y Y Y Y Y Y Y Y Y Y Y Y Y Y ",
"Y Y Y Y Y Y Y Y Y Y Y Y Y Y Y Y Y Y Y Y Y Y Y Y Y Y 7 @ z s.~.~.!.Y.s.p.k X x d.h.d.s.r.3 K U 2.2.2.2.2.2.2.2.2.K K U Y Y Y Y Y Y Y Y Y Y Y ",
"Y Y Y Y Y Y Y Y Y Y Y Y Y Y Y Y Y Y Y Y Y Y Y Y Y Y 7 x s.s.~.~.V.s.s.  x.n z h.!.h.s.s.p.. U Y 2.2.2.2.2.2.2.  .   L Y Y Y Y Y Y Y Y Y Y Y ",
"Y Y Y Y Y Y Y Y Y Y Y Y Y Y Y Y Y Y Y Y Y Y Y Y Y ^ 7 x s.s.s.s.s.y.  M.M.M.5.r ~.~.~.Y.p.. I Y Y 2.2.2.2.2.M.M.M.M.2 V Y Y Y Y Y Y Y Y Y Y ",
"Y Y Y Y Y Y Y Y Y Y Y Y Y Y Y Y Y Y Y Y Y Y Y Y Y Y 7 x s.s.s.s.d.y.  +.@.0.q. .;.g.h.f.s.u.: L Y D 2.2.2.M.M.M.M.M.c.b B Y Y Y Y Y Y Y Y Y ",
"Y Y Y Y Y Y Y Y Y Y Y Y Y Y Y Y Y Y Y Y Y Y Y Y Y Y 7 x s.s.s.s.t.l ] U.1.$.2.:.>.-.%.y.a.z Z U V S ! 2.n c.M.M.M.M.M.n 7 Y Y Y Y Y Y Y Y Y ",
"Y Y Y Y Y Y Y Y Y Y Y Y Y Y Y Y Y Y Y Y Y Y Y Y Y Y 7 x s.s.s.s.x u X.E.S.1.:.4.4.o.= w.p.. I F C ~ G.h   &.8.8.8.k.m.6.h H Y Y Y Y Y Y Y Y ",
"Y Y Y Y Y ^ I C.Y Y Y Y Y Y Y Y Y Y Y Y Y Y Y Y Y Y 7 x s.s.s.s.x u X.A.Q.S.A.4.4.o.= v p.. I $ ~ I.I.I.    .       x.M.6.$ Y Y Y Y Y Y Y Y ",
"Y Y Y Y Y Y Y Y Y Y Y Y Y Y Y Y Y Y Y Y Y Y Y Y Y Y 7   > a.s.s.x g M.O.,.4.4.<.+.v.2 w.p.  & G.H.J._ * . F Y Y Y Y 4 # . 4 C.I Y Y Y Y Y Y ",
"Y Y Y Y Y Y Y Y Y Y Y Y Y Y Y Y Y Y Y Y Y Y Y Y Y Y 7   o < s.s.x g M.v.#.,.,.#.v.N.2 w.p.# _ H.W 0 q G K I Y Y Y Y K K H L ^ U Y Y Y Y Y Y ",
"Y Y Y Y Y Y Y Y Y Y Y Y Y Y Y Y Y Y Y Y Y Y Y Y Y Y G 5     x x =.l.M.M.b.$.$.0.M.M.2 < c ( H.W Z V D Y Y Y Y Y Y Y Y Y Y Y Y Y Y Y Y Y Y Y ",
"Y Y Y Y Y Y Y Y Y Y Y Y Y Y Y Y Y Y Y Y Y Y Y Y Y Y Y F 7 9     9.T.T.T.T.b.b.M.N.8.! R W H.( y H Y Y Y Y Y Y Y Y Y Y Y Y Y Y Y Y Y Y Y Y Y ",
"Y Y Y Y Y Y Y Y Y Y Y Y Y Y Y Y Y Y Y Y Y Y Y Y Y Y Y Y Y Y     9.W.W.W.W.W.R.N.l.; ( J.H._ 6 L Y Y Y Y Y Y Y Y Y Y Y Y Y Y Y Y Y Y Y Y Y Y ",
"Y Y Y Y Y Y Y Y Y Y Y Y Y Y Y Y Y Y Y Y Y Y Y Y Y Y Y Y Y Y     - s s d d s *.l.      E _ $ I Y Y Y Y Y Y Y Y Y Y Y Y Y Y Y Y Y Y Y Y Y Y Y ",
"Y Y Y Y Y Y Y Y Y Y Y Y Y Y Y Y Y Y Y Y Y Y Y Y Y Y Y Y Y Y     - s s | ..] p ;     . # q K Y Y Y Y Y Y Y Y Y Y Y Y Y Y Y Y Y Y Y Y Y Y Y Y ",
"Y Y Y Y Y Y Y Y Y Y Y Y Y Y Y Y Y Y Y Y Y Y Y Y Y Y Y Y Y Y     o i | X.X...{ a ) ;   7 L Y Y Y Y Y Y Y Y Y Y Y Y Y Y Y Y Y Y Y Y Y Y Y Y Y ",
"Y Y Y Y Y Y Y Y Y Y Y Y Y Y Y Y Y Y Y Y Y Y Y Y Y Y Y Y Y Y   M 8 = } X.X. .d j J.0 7 H Y Y Y Y Y Y Y Y Y Y Y Y Y Y Y Y Y Y Y Y Y Y Y Y Y Y ",
"Y Y Y Y Y Y Y Y Y Y Y Y Y Y Y Y Y Y Y Y Y Y Y Y Y Y Y Y U K   Z.J O i | | [ a * _ q K Y Y Y Y Y Y Y Y Y Y Y Y Y Y Y Y Y Y Y Y Y Y Y Y Y Y Y ",
"Y Y Y Y Y Y Y Y Y Y Y Y Y Y Y Y Y Y Y Y Y Y Y Y Y Y Y Y K   $ Z.F . . f f 9.~   $ K Y Y Y Y Y Y Y Y Y Y Y Y Y Y Y Y Y Y Y Y Y Y Y Y Y Y Y Y ",
"Y Y Y Y Y Y Y Y Y Y Y Y Y Y Y Y Y Y Y Y Y Y Y Y Y Y Y Y K . D.V   N D.D.L.K./ $ I Y Y Y Y Y Y Y Y Y Y Y Y Y Y Y Y Y Y Y Y Y Y Y Y Y Y Y Y Y ",
"Y Y Y Y Y Y Y Y Y Y Y Y Y Y Y Y Y Y Y Y Y Y Y Y Y Y Y Y K   D.N T C.8 P.I.Q y L Y Y Y Y Y Y Y Y Y Y Y Y Y Y Y Y Y Y Y Y Y Y Y Y Y Y Y Y Y Y ",
"Y Y Y Y Y Y Y Y Y Y Y Y Y Y Y Y Y Y Y Y Y Y Y Y Y Y Y Y K   T % C.Z.  I.W C D C.Y Y Y Y Y Y Y Y Y Y Y Y Y Y Y Y Y Y Y Y Y Y Y Y Y Y Y Y Y Y ",
"Y Y Y Y Y Y Y Y Y Y Y Y Y Y Y Y Y Y Y Y Y Y Y Y Y Y Y L t x     M ^ x I.5 V U ^ Y Y Y Y Y Y Y Y Y Y Y Y Y Y Y Y Y Y Y Y Y Y Y Y Y Y Y Y Y Y ",
"Y Y Y Y Y Y Y Y Y Y Y Y Y Y Y Y Y Y Y Y Y Y Y Y Y Y Y V , p.      1 p.F.q D Y Y Y Y Y Y Y Y Y Y Y Y Y Y Y Y Y Y Y Y Y Y Y Y Y Y Y Y Y Y Y Y ",
"Y Y Y Y Y Y Y Y Y Y Y Y Y Y Y Y Y Y Y Y Y Y Y Y Y Y Y V o +       o + & H Y Y Y Y Y Y Y Y Y Y ^ Y Y Y Y Y Y Y Y Y Y Y Y Y Y Y Y Y Y Y Y Y Y ",
"Y Y Y Y Y Y Y Y Y Y Y Y Y Y Y Y Y Y Y Y Y Y Y Y Y Y Y V > p.    v e.    K Y Y Y Y Y 5 $ 5 Y Y I Y Y Y Y Y Y Y Y Y Y Y Y Y Y Y Y Y Y Y Y Y Y ",
"Y Y Y Y Y Y Y Y Y Y Y Y Y Y Y Y Y Y Y Y Y Y Y Y Y Y Y V @ x     1 k     4 H Y Y ^ B .   . 9 U C.Y Y Y Y Y Y Y Y Y Y Y Y Y Y Y Y Y Y Y Y Y Y ",
"Y Y Y Y Y Y Y Y Y Y Y Y Y Y Y Y Y Y Y Y Y Y Y Y Y Y Y V                 o V Y Y I $       . B V L Y Y Y Y Y Y Y Y Y Y Y Y Y Y Y Y Y Y Y Y Y ",
"Y Y Y Y Y Y Y Y Y Y Y Y Y Y Y Y Y Y Y Y Y Y Y Y Y Y L 9 o <     + ,   0 0 C L Y U #             B L Y Y Y Y Y Y Y Y Y Y Y Y Y Y Y Y Y Y Y Y ",
"Y Y Y Y Y Y Y Y Y Y Y Y Y Y Y Y Y Y Y Y Y Y Y Y Y Y 7   < s.    r.y.  I.I.R 7 Y U #               7 Y Y Y Y Y Y Y Y Y Y Y Y Y Y Y Y Y Y Y Y ",
"Y Y Y Y Y Y Y Y Y Y Y Y Y Y Y ^ Y Y Y Y Y Y Y Y I &               r I.      9 K     F.W             $ I Y Y Y Y Y Y Y Y Y Y Y Y Y Y Y Y Y Y ",
"Y Y Y Y Y Y Y Y Y Y Y Y Y Y C.I Y Y Y Y Y Y Y Y C.$               X r   Q w 5 J X Q H.G.Q       E R $ I Y Y Y Y Y Y Y Y Y Y Y Y Y Y Y Y Y Y ",
"Y Y Y Y Y Y Y Y Y Y Y Y Y Y Y Y Y Y Y Y Y Y Y Y Y B #                 R J.( F 9 X F.I.I.k..   e ` ~ $ I Y Y Y Y Y Y Y Y Y Y Y Y Y Y Y Y Y Y ",
"Y Y Y Y Y Y Y Y Y Y Y Y Y Y Y Y Y Y Y Y Y Y Y Y Y Y 7 .               I.I.I._ 8 & F.I.I.F.. 4 ~ ) E 7 I Y Y Y Y Y Y Y Y Y Y Y Y Y Y Y Y Y Y ",
"Y Y Y Y Y Y Y Y Y Y Y Y Y Y Y Y Y Y Y Y Y Y Y Y Y Y 7                 I.I.I.I.k.& F.I.I.F.. I $ . 7 Y Y Y Y Y Y Y Y Y Y Y Y Y Y Y Y Y Y Y Y ",
"Y Y Y Y Y Y Y Y Y Y Y Y Y Y Y Y Y Y Y Y Y Y Y Y Y Y ^ V         V Y Y   F.I.I.I.J.0 F.W % Y Y Y C.Y Y Y Y Y Y Y Y Y Y Y Y Y Y Y Y Y Y Y Y Y ",
"Y Y Y Y Y Y Y Y Y Y Y Y Y Y Y Y Y Y Y Y Y Y Y Y Y Y Y C         V Y Y K 9 ( I.I.K.G.H.W $ Y Y Y I Y Y Y Y Y Y Y Y Y Y Y Y Y Y Y Y Y Y Y Y Y ",
"Y Y Y Y Y Y Y Y Y Y Y Y Y Y Y Y Y Y Y Y Y Y Y Y Y Y Y V         V Y Y Y D S ( I.I.I.I.W $ Y Y Y U Y Y Y Y Y Y Y Y Y Y Y Y Y Y Y Y Y Y Y Y Y ",
"Y Y Y Y Y Y Y Y Y Y Y Y Y Y Y Y Y Y Y Y Y Y Y Y Y Y Y V         7 K Y Y Y V S ) _ H.` t $ Y Y Y Y Y Y Y Y Y Y Y Y Y Y Y Y Y Y Y Y Y Y Y Y Y ",
"Y Y Y Y Y Y Y Y Y Y Y Y Y Y Y Y Y Y Y Y Y Y Y Y Y Y Y D #         4 Y Y Y Y D # . ( * O 5 Y Y Y Y Y Y Y Y Y Y Y Y Y Y Y Y Y Y Y Y Y Y Y Y Y ",
"Y Y Y Y Y Y Y Y Y Y Y Y Y Y Y Y Y Y Y Y Y Y Y Y Y Y Y Y K o       6 Y Y Y Y Y L . . . B Y Y Y Y Y Y Y Y Y Y Y Y Y Y Y Y Y Y Y Y Y Y Y Y Y Y ",
"Y Y Y Y Y Y Y Y Y Y Y Y Y Y Y Y Y Y Y Y Y Y Y Y Y Y Y Y K         6 Y Y Y Y Y ^ K K K I Y Y Y Y Y Y Y Y Y Y Y Y Y Y Y Y Y Y Y Y Y Y Y Y Y Y ",
"Y Y Y Y Y Y Y Y Y Y Y Y Y Y Y Y Y Y Y Y Y Y Y Y Y Y Y Y K         4 Y Y Y Y Y Y Y Y Y Y Y Y Y Y Y Y Y Y Y Y Y Y Y Y Y Y Y Y Y Y Y Y Y Y Y Y ",
"Y Y Y Y Y Y Y Y Y Y Y Y Y Y Y Y Y Y Y Y Y Y Y Y Y Y Y Y K         $ V Y Y Y Y Y Y Y Y Y Y Y Y Y Y Y Y Y Y Y Y Y Y Y Y Y Y Y Y Y Y Y Y Y Y Y ",
"Y Y Y Y Y Y Y Y Y Y Y Y Y Y Y Y Y Y Y Y Y Y Y Y Y Y Y Y K O           C.I Y Y Y Y Y Y Y Y Y Y Y Y Y Y Y Y Y Y Y Y Y Y Y Y Y Y Y Y Y Y Y Y Y ",
"Y Y Y Y Y Y Y Y Y Y Y Y Y Y Y Y Y Y Y Y Y Y Y Y Y Y Y Y Y C.        . Y Y Y Y Y Y Y Y Y Y Y Y Y Y Y Y Y Y Y Y Y Y Y Y Y Y Y Y Y Y Y Y Y Y Y ",
"Y Y Y Y Y Y Y Y Y Y Y Y Y Y Y Y Y Y Y Y Y Y Y Y Y Y Y Y Y Y           Y Y Y Y Y Y Y Y Y Y Y Y Y Y Y Y Y Y Y Y Y Y Y Y Y Y Y Y Y Y Y Y Y Y Y ",
"Y Y Y Y Y Y Y Y Y Y Y Y Y Y Y Y Y Y Y Y Y Y Y Y Y Y Y Y Y Y           ^ Y Y Y Y Y Y Y Y Y Y Y Y Y Y Y Y Y Y Y Y Y Y Y Y Y Y Y Y Y Y Y Y Y Y ",
"Y Y Y Y Y Y Y Y Y Y Y Y Y Y Y Y Y Y Y U Y Y Y Y Y Y Y Y Y Y .         9 L Y Y Y Y Y Y Y Y Y Y Y Y Y Y Y Y Y Y Y Y Y Y Y Y Y Y Y Y Y Y Y Y Y ",
"Y Y Y Y Y Y Y Y Y Y Y Y Y Y Y Y Y Y C.I Y Y Y Y Y Y Y Y Y Y             K Y Y Y Y Y Y Y Y Y Y Y Y Y Y Y Y Y Y Y Y Y Y Y Y Y Y Y Y Y Y Y Y Y ",
"Y Y Y Y Y Y Y Y Y Y Y Y Y Y Y Y Y Y Y Y Y Y Y Y Y Y Y Y Y Y             K Y Y Y Y Y Y Y Y Y Y Y Y Y Y Y Y Y Y Y Y Y Y Y Y Y Y Y Y Y Y Y Y Y ",
"Y Y Y Y Y Y Y Y Y Y Y Y Y Y Y Y Y Y Y Y Y Y Y Y Y Y Y Y Y ^           o K Y Y Y Y Y Y Y Y Y Y Y Y Y Y Y Y Y Y Y Y Y Y Y Y Y Y Y Y Y Y Y Y Y ",
"Y Y Y Y Y Y Y Y Y Y Y Y Y Y Y Y Y Y Y Y Y Y Y Y Y Y Y D $ $             K ^ Y Y Y Y Y Y Y Y Y Y Y Y Y Y Y Y Y Y Y Y Y Y Y Y Y Y Y Y Y Y Y Y ",
"Y Y Y Y Y Y Y Y Y Y Y Y Y Y Y Y Y Y Y Y Y Y Y Y Y Y D S ~ ~             K Y Y Y Y Y Y Y Y Y Y Y Y Y Y Y Y Y Y Y Y Y Y Y Y Y Y Y Y Y Y Y Y Y ",
"Y Y Y Y Y Y Y Y Y Y Y Y Y Y Y Y Y Y Y Y Y Y Y Y Y Y 7 h I.I.R *         K Y Y Y Y Y Y Y Y Y Y Y Y Y Y Y Y Y Y Y Y Y Y Y Y Y Y Y Y Y Y Y Y Y ",
"Y Y Y Y Y Y Y Y Y Y Y Y Y Y Y Y Y Y Y Y Y Y Y Y Y Y 7 e F.F.F.0       & L Y Y Y Y Y Y Y Y Y Y Y Y Y Y Y Y Y Y Y Y Y Y Y Y Y Y Y Y Y Y Y Y Y ",
"Y Y Y Y Y Y Y Y Y Y Y Y Y Y Y Y Y Y Y Y Y Y Y Y Y Y 7 . & & & o       K Y Y Y Y Y Y Y Y Y Y Y Y Y Y Y Y Y Y Y Y Y Y Y Y Y Y Y Y Y Y Y Y Y Y ",
"Y Y Y Y Y Y Y Y Y Y Y Y Y Y Y Y Y Y Y Y Y Y Y Y Y ^ 7           . % K C.Y Y Y Y Y Y Y Y Y Y Y Y Y Y Y Y Y Y Y Y Y Y Y Y Y Y Y Y Y Y Y Y Y Y "
};
