/* XPM */
static char *result[] = {
/* columns rows colors chars-per-pixel */
"70 70 172 2 ",
"   c #000000",
".  c #06070B",
"X  c #0D0D0D",
"o  c #0A0700",
"O  c #170805",
"+  c #1B1C00",
"@  c #141400",
"#  c #0A0C15",
"$  c #0C0E19",
"%  c #0D121F",
"&  c #101010",
"*  c #19191A",
"=  c #340000",
"-  c #3F0000",
";  c #291D13",
":  c #1F2117",
">  c #2A2B00",
",  c #232400",
"<  c #323300",
"1  c #3C3D00",
"2  c #332518",
"3  c #313414",
"4  c #121424",
"5  c #16192D",
"6  c #161826",
"7  c #191C32",
"8  c #111E33",
"9  c #1E223D",
"0  c #232323",
"q  c #24252E",
"w  c gray18",
"e  c #332A2C",
"r  c #322D39",
"t  c #333333",
"y  c #3A383B",
"u  c #2B2E35",
"i  c #4D0000",
"p  c #530000",
"a  c #540F0A",
"s  c #521717",
"d  c #6A0000",
"f  c #780000",
"g  c #6A1016",
"h  c #4D3724",
"j  c #4B3C3E",
"k  c #4B2121",
"l  c #504E06",
"z  c #734800",
"x  c #5D6007",
"c  c #636600",
"v  c #626514",
"b  c #777A00",
"n  c #5A4332",
"m  c #664930",
"M  c #775638",
"N  c #1E345A",
"B  c #182A49",
"V  c #212543",
"C  c #252A4C",
"Z  c #2B2F49",
"A  c #2E3143",
"S  c #363846",
"D  c #373545",
"F  c #2A2F54",
"G  c #2C325A",
"H  c #30365E",
"J  c #2F3560",
"K  c #223B66",
"L  c #323865",
"P  c #343B6B",
"I  c #313763",
"U  c #383F71",
"Y  c #394175",
"T  c #3E467E",
"R  c #28477A",
"E  c #424242",
"W  c #4C4C4C",
"Q  c #545454",
"!  c #5D5D5D",
"~  c #504C4C",
"^  c #505E67",
"/  c #626262",
"(  c DimGray",
")  c #757575",
"_  c #777778",
"`  c #7C7C7C",
"'  c #800000",
"]  c #990000",
"[  c #9F1414",
"{  c #B30000",
"}  c #A70000",
"|  c #DF0000",
" . c #D30505",
".. c #EA0000",
"X. c #FD0000",
"o. c #FF001A",
"O. c #FF120C",
"+. c #FF2518",
"@. c #FF2317",
"#. c #FF1D28",
"$. c #FF2C3C",
"%. c #816600",
"&. c #825D3D",
"*. c #9B422B",
"=. c #836B2B",
"-. c #FC520F",
";. c #FE4833",
":. c #FF004C",
">. c #FF0A45",
",. c #FF0057",
"<. c #FF045F",
"1. c #FF1F5B",
"2. c #E43B44",
"3. c #FF0077",
"4. c #996E48",
"5. c #946A46",
"6. c #8C6645",
"7. c #A97951",
"8. c #8F766E",
"9. c #FF7D52",
"0. c #EB6E48",
"q. c #7C8000",
"w. c #8B8F00",
"e. c #949900",
"r. c #9EA300",
"t. c #ADB300",
"y. c #AEB401",
"u. c #BCC200",
"i. c #C6CC00",
"p. c #DCE300",
"a. c #F7FF00",
"s. c #F7FF0A",
"d. c #F3FA0D",
"f. c #FAD633",
"g. c #F9FF33",
"h. c #F8FF2E",
"j. c #B38054",
"k. c #B88456",
"l. c #BA8659",
"z. c #C28B5B",
"x. c #CC9360",
"c. c #D49964",
"v. c #FF9561",
"b. c #FF876D",
"n. c #E6A56C",
"m. c #F0AC71",
"M. c #FFB778",
"N. c #F8B073",
"B. c #F9FF48",
"V. c #FAFF66",
"C. c #335A9C",
"Z. c #3A65B0",
"A. c #FF0080",
"S. c #FF64B2",
"D. c #5188EC",
"F. c #838383",
"G. c #8B8B8B",
"H. c #9B9B9B",
"J. c #929292",
"K. c #A19D9D",
"L. c #8F90A3",
"P. c #93A0B5",
"I. c #A3A3A3",
"U. c #FF968E",
"Y. c #FBFF88",
"T. c #FFD4AE",
"R. c #EDC4AB",
"E. c #FFB3D9",
"W. c #E1CCCC",
"Q. c #FFCCE6",
"!. c #FEFFE4",
"~. c white",
/* pixels */
"T T T T T T T T T T T T T T T T T T T T T T T T T T T T T T T T T T T T T T T T T T T T P $ $ $ C T T T T T T T T T T T T T T T T T T T T T ",
"T T T T T T T T T T T T T T T T T T T T T T T T T T T T T T T T T T T T T T T T T T T L D &.M &.j C T T T T T T T T T T T T T T T T T T T T ",
"T T T T T T T T T T T T T T T T T T T T T T T T T T T T T T T T T T T T T T U C C C C D &.M.M.M.&.$ T T T T T T T T T T T T T T T T T T T T ",
"T T T T T T T T T T T T T T T T T T T T T T T T T T T T T T T T T T T T T T G   2 2 2 &.M.M.M.M.&.$ T T T T T T T T T T T T T T T T T T T T ",
"T T T T T T T T T T T T T T T T T T T T T T T T T T T T T T T T T T T T T T F   n.n.n.m.M.M.M.M.&.$ T T T T T T T T T T T T T T T T T T T T ",
"T T T T T T T T T T T T T T T T T T T T T T T T T T T T T T T T T T T T T T Y L 2 c.M.M.M.M.M.M.&.$ T T T T T T T T T T T T T T T T T T T T ",
"T T T T T T T T T T T T T T T T T T T T T T T T T T T T T T T T T T T T T T C.U C j z.M.M.m.&.m j F T T T T T T T T T T T T T T T T T T T T ",
"T T T T T T T T T T T T T T T T T T T T T T T T T T T T T T F C C C C C C J T ^ ^ # n 4.4.6.r 7 G T T T T T T T T T T T T T T T T T T T T T ",
"T T T T T T T T T T T T T T T T T T T T T T T T T T C.Y L L 3 < > < < < < w L L L #       4 P T T T T T T T T T T T T T T T T T T T T T T T ",
"T T T T T T T T T T T T T T T T T T T T T T T T T ^ U L     i.a.d.a.a.a.a.e.            $ T T T T T T T T T T T T T T T T T T T T T T T T T ",
"T T T T T T T T T T T T T T T T T T . I T T T T T T 9 < a.a.a.a.a.a.a.a.a.a.a.a.        $ T T T T T T T T T T T T T T T T T T T T T T T T T ",
"T T T T T T T T T T T T T T T T J 4 7.w G T T T T 7 v u.a.a.a.a.a.a.a.a.a.a.a.a.t.,   4 J T T T T T T T T T T T T T T T T T T T T T T T T T ",
"T T T T T T T T T T U C.T T T J S m n.2 C T T T T $ b s.a.a.a.u.e.r.a.a.B.V.V.V.a.<   7 T T T T T T T T T T T T T T T T T T T T T T T T T T ",
"T T T T T T T T T T ^ Y L L L r M M.k.w F T T T L 2 e.a.s.g.s.c O l i.a.Y.!.~.~.a.x @ 7 T T T T T T T T T T T T T T T T T T T T T T T T T T ",
"T T T T T T T T T T T L       4.M.M.. L T T T U . i.a.a.g.!.g.c m c.  a.a.V.~.~.a.a.c 7 T T T T T T T T T T T T T T T T T T T T T T T T T T ",
"T T T T T T T T T T C 2 M.M.M.M.M.U.. L T T ^ U . i.Y.~.~.~.y 4.U.M.M.  t.a.a.a.a.a.c 7 T T T T T T T T T T T T T T T T T T T T T T T T T T ",
"T T T T T T T T T V j c.M.M.M.M.M.M.  # F T P : y.a.d.g.f.;. .0.9.+.+.  t.a.a.a.a.a.c 7 T T T T T T T T T T T T T T T T T T T T T T T T T T ",
"T T T T T T T T T 5 m M.M.M.M.M.x.m X Q S C Y A x p.y.%.-.>.:.$.1.1.U.] z r.a.a.a.a.c 7 T T T T T T T T T T T T T T T T T T T T T T T T T T ",
"T T T T T T T T J j 5.m.7.7.l.k.&.  y G.! A J U . i.q.= o.3.A.:.1.S.E.X.i c a.a.a.a.c 7 T T T T T T T T T T T T T T T T T T T T T T T T T T ",
"T T T T T T T T $ 5.M.x.            I.I.I./ $ U . i.q.= o.3.A.A.S.Q.A.X.i c a.a.a.a.c 7 T T T T T T T T T T T T T T T T T T T T T T T T T T ",
"T T T T T T T T 4 . . 4 T T T T G . 4 ) J.H.F.&   i.q.2 v.@.<.3.3.<.O.M.h c a.a.p.>   7 T T T T T T T T T T T T T T T T T T T T T T T T T T ",
"T T T T T T T T P L L P T T T T Y I H 9 0 Q H._ X i.q.2 N.v.#.,.>.#.v.M.h c a.a.< o   7 T T T T T T T T T T T T T T T T T T T T T T T T T T ",
"T T T T T T T T T T T T T T T T T T Y F C Z Q K.( v < 2 M.M.9.$.$.9.M.M.l.=.c c   . 5 J T T T T T T T T T T T T T T T T T T T T T T T T T T ",
"T T T T T T T T T T T T T T T T T T ^ U C.J u ( K.Q E ~ 7.N.M.b.U.T.T.T.T.8.    7 8 J ^ T T T T T T T T T T T T T T T T T T T T T T T T T T ",
"T T T T T T T T T T T T T T T 2.2.2.T 2.2.2.L 6 _ K.J.( ; l.N.R.W.W.W.W.W.8.    T T T T T T T T T T T T T T T T T T T T T T T T T T T T T T ",
"T T T T T T T T T T T T T T 2.2.2.2.2.2.2.2.2.U $ _ ~       k.*.d f f d d =     T T T T T T T T T T T T T T T T T T T T T T T T T T T T T T ",
"T T T T T T T T T T T T T T 2.2.~.2.2.2.2.2.2.T L q &       ; a ] ..| d d i     T T T T T T T T T T T T T T T T T T T T T T T T T T T T T T ",
"T T T T T T T T T T T T T T 2.2.2.2.2.2.2.2.2.T T P 7   * _ s } ..X.X.| i o     T T T T T T T T T T T T T T T T T T T T T T T T T T T T T T ",
"T T T T T T T T T T T T T T T 2.2.2.2.2.2.2.T T T T G 7 0 J.k f  .X.X.{ = 8 N   T T T T T T T T T T T T T T T T T T T T T T T T T T T T T T ",
"T T T T T T T T T T T T T T T T 2.2.2.2.2.T T T T T T P q _ * s [ | | i O K Z.  P Y T T T T T T T T T T T T T T T T T T T T T T T T T T T T ",
"T T T T T T T T T T T T T T T T T 2.2.2.T T T T T T T T P $   / 8.g g # . N Z.$   P T T T T T T T T T T T T T T T T T T T T T T T T T T T T ",
"T T T T T T T T T T T T T T T T T T 2.T T T T T T T T T Y Y $ / H.L.D.D.B   N D.  L T T T T T T T T T T T T T T T T T T T T T T T T T T T T ",
"T T T T T T T T T T T T T T T T T T T T T T T T T T T T T T P u ~ I.P.8 C.R B D.  L T T T T T T T T T T T T T ^ U T T T T T T T T T T T T T ",
"T T T T T T T T T T T T T T T T T T T T T T T T T T T T T U C.J Z Q I.  Z.C.% R   L T T T T T T T T T T T T T C.T T T T T T T T T T T T T T ",
"T T T T T T T T T T T T T T T T T T T T T T T T T T T T T T T T C 0 I.c ^ N     c r P T T T T T T T T T T T T T T T T T T T T T T T T T T T ",
"T T T T T T T T T T T T T T T T T T T T T T T T T T T T T T T T F q F.i.1       i.> C T T T T T T T T T T T T T T T T T T T T T T T T T T T ",
"T T T T T T T T T T T T T T T T T T T T T T T T T T T T T T T T Y H # + .       +   C T T T T T T T T T T T T T T T T T T T T T T T T T T T ",
"T T T T T T T T T T T T T T T T T T T T T T T T T 6 # 5 T T T T ^ L     w.b     i.> C T T T T T T T T T T T T T T T T T T T T T T T T T T T ",
"T T T T T T T T T T T T T T T T T T T T T T T Y 7 . o . V Y T T J 5     l 1     c @ C T T T T T T T T T T T T T T T T T T T T T T T T T T T ",
"T T T T T T T T T T T T T T T T T T T T T P C V .       $ U T T C .                 C T T T T T T T T T T T T T T T T T T T T T T T T T T T ",
"T T T T T T T T T T T T T T T T T T T T U 9             $ U T P C 0 0   , ,     < o 9 U T T T T T T T T T T T T T T T T T T T T T T T T T T ",
"T T T T T T T T T T T T T T T T T T T T 7               $ U T 7 S I.I.  t.e.    a.<   7 T T T T T T T T T T T T T T T T T T T T T T T T T T ",
"T T T T T T T T T T T T T T T T T T U $             Q F.    L 7       I.t               $ T T T T T T T T T T T T T T T T T T T T T T T T T ",
"T T T T T T T T T T T T T T T T T T U $ E E       ! G.H.! X L 7 w !   t #               $ T T T T T T T T T T T T T T T T T T T T T T T T T ",
"T T T T T T T T T T T T T T T T T T U $ / ` t     F.I.I.F.& 9 Z ( G.E                 # V T T T T T T T T T T T T T T T T T T T T T T T T T ",
"T T T T T T T T T T T T T T T T T T U 7 Q ) / 4   F.I.I.F.& q ) I.I.I.                7 T T T T T T T T T T T T T T T T T T T T T T T T T T ",
"T T T T T T T T T T T T T T T T T T T T 7 o $ U . F.P.P.F.& F.I.I.I.I.    .           7 T T T T T T T T T T T T T T T T T T T T T T T T T T ",
"T T T T T T T T T T T T T T T T T T T T T Y U C.T $ Q j.0 J.I.I.I.F.  T ^ C         C T T T T T T T T T T T T T T T T T T T T T T T T T T T ",
"T T T T T T T T T T T T T T T T T T T T T T T T T $ Q H.G.K.I.I.( 7 L T C.C         C T T T T T T T T T T T T T T T T T T T T T T T T T T T ",
"T T T T T T T T T T T T T T T T T T T T T T T T T $ Q I.I.I.I.( D F T T U C       . C T T T T T T T T T T T T T T T T T T T T T T T T T T T ",
"T T T T T T T T T T T T T T T T T T T T T T T T ^ # y ` H._ ) D F T T T H 7         C T T T T T T T T T T T T T T T T T T T T T T T T T T T ",
"T T T T T T T T T T T T T T T T T T T T T T T T T 5 . * ( . # F T T T ^ 4 o       # F T T T T T T T T T T T T T T T T T T T T T T T T T T T ",
"T T T T T T T T T T T T T T T T T T T T T T T T T T B . . . L T T T T T 4         L T T T T T T T T T T T T T T T T T T T T T T T T T T T T ",
"T T T T T T T T T T T T T T T T T T T T T T T T T T U L L P T T T T T T 4         L T T T T T T T T T T T T T T T T T T T T T T T T T T T T ",
"T T T T T T T T T T T T T T T T T T T T T T T T T T T T T T T T T T T T 4         L T T T T T T T T T T T T T T T T T T T T T T T T T T T T ",
"T T T T T T T T T T T T T T T T T T T T T T T T T T T T T T T T T T T C #         L T T T T T T T T T T T T T T T T T T T T T T T T T T T T ",
"T T T T T T T T T T T T T T T T T T T T T T T T T T T T T T T T T T U o         $ P T T T T T T T T T T T T T T T T T T T T T T T T T ^ T T ",
"T T T T T T T T T T T T T T T T T T T T T T T T T T T T T T T T T T C.          T T T T T T T T T T T T T T T T T T T T T T T T T T T T T T ",
"T T T T T T T T T T T T T T T T T T T T T T T T T T T T T T T T T T T           T T T T T T T T T T T T T T T T T T T T T T T T T T T T T T ",
"T T T T T T T T T T T T T T T T T T T T T T T T T T T T T T T T T T T .         T T T T T T T T T T T T T T T T T T T T T T T T T T T T T T ",
"T T T T T T T T T T T T T T T T T T T T T T T T T T T T T T T T T Y 9           T T T T T T T T T T T T T T T T T T T T T T T T T T T T T T ",
"T T T T T T T T T T T T T T T T T T T T T T T T T T T T T T T T T L             T T T T T T T T T T T T T T T T T T T T T T T T T T T T T T ",
"T T T T T T T T T T T T T T T T T T T T T T T T T T T T T T T T T L             T T T T T T T T T T T T T T T T T T T T T T T T T T T T T T ",
"T T T T T T T T T T T T T T T T T T T T T T T T T T T T T T T T T L             T T T T T T T T T T T T T T T T T T T T T T T T T T T T T T ",
"T T T T T T T T T T T T T T T T T T T T T T T T T T T T T T T T T I o           $ $ F ^ T T T T T T T T T T T T T T T T T T T T T T T T T T ",
"T T T T T T T T T T T T T T T T T T T T T T T T T T T T T T T T T I             / / F F T T T T T T T T T T T T T T T T T T T T T T T T T T ",
"T T T T T T T T T T T T T T T T T T T T T T T T T T T T T T T T U I         * E I.K.E 7 T T T T T T T T T T T T T T T T T T T T T T T T T T ",
"T T T T T T T T T T T T T T T T T T T T T T T T T T T T T T T T C.P $       0 F.F.F.r 7 T T T T T T T T T T T T T T T T T T T T T T T T T T ",
"T T T T T T T T T T T T T T T T T T T T T T T T T T T T T T T T T T U .     . & & & . 7 T T T T T T T T T T T T T T T T T T T T T T T T T T ",
"T T T T T T T T T T T T T T T T T T T T T T T T T T T T T T T T T ^ T L %     .       7 T T T T T T T T T T T T T T T T T T T T T T T T T T "
};
