/* XPM */
static char *result[] = {
/* columns rows colors chars-per-pixel */
"70 70 137 2 ",
"   c black",
".  c #00010A",
"X  c #A5A5A5",
"o  c #090D2A",
"O  c #FFB97A",
"+  c #2A3265",
"@  c #1A204A",
"#  c #394280",
"$  c #F7FF00",
"%  c #E63540",
"&  c #313973",
"*  c #636600",
"=  c #202754",
"-  c #292C00",
";  c #262D5F",
":  c #2D356A",
">  c #333F7A",
",  c #03051A",
"<  c #606060",
"1  c #505051",
"2  c #C8CE00",
"3  c gray52",
"4  c #2C1A09",
"5  c #825C36",
"6  c #787879",
"7  c #13193D",
"8  c white",
"9  c #000004",
"0  c #FE0003",
"q  c #A09F9F",
"w  c #313141",
"e  c #848484",
"r  c #9A6D43",
"t  c #684629",
"y  c #686868",
"u  c gray8",
"i  c #292725",
"p  c gray24",
"a  c #2D2E30",
"s  c #191A25",
"d  c #6B0000",
"f  c #E30000",
"g  c gray58",
"h  c #FF075A",
"j  c #D39962",
"k  c #191402",
"l  c #050201",
"z  c #FF0080",
"x  c #BD8856",
"c  c #262942",
"v  c #7E8200",
"b  c #AFB500",
"n  c #0C1131",
"m  c #F9FF2F",
"M  c #89613B",
"N  c #060A24",
"B  c #E3CECE",
"V  c #E8A76C",
"C  c #3B3237",
"Z  c #37417E",
"A  c #534036",
"S  c #B58252",
"D  c #4E0000",
"F  c #969B00",
"G  c #FAFF66",
"H  c #4E8AEE",
"J  c #FF9464",
"K  c #FFD6B0",
"L  c #2A2433",
"P  c #102C5A",
"I  c #FF2336",
"U  c #111436",
"Y  c #F0AE73",
"T  c #727373",
"R  c #424343",
"E  c #211D1C",
"W  c #202100",
"Q  c #0C0D00",
"!  c #010212",
"~  c #827D7D",
"^  c #8D8D8D",
"/  c #9B9B9B",
"(  c #0B0B0B",
")  c #BCC200",
"_  c #F9B275",
"`  c #2D0000",
"'  c #7D0000",
"]  c #3C0101",
"[  c coral",
"{  c #3365B2",
"}  c #FF1908",
"|  c #FF0046",
" . c #353700",
".. c #5A5E00",
"X. c #1C2036",
"o. c #DEE500",
"O. c #FBFF8A",
"+. c #939AAE",
"@. c #FF9890",
"#. c #62060B",
"$. c #FF101E",
"%. c #153566",
"&. c #2B589E",
"*. c #A50202",
"=. c #4B3119",
"-. c #FF0075",
";. c #082046",
":. c #9B0000",
">. c #A5AA00",
",. c #D50000",
"<. c #FF63B4",
"1. c #5C3E22",
"2. c #414400",
"3. c #797C00",
"4. c #A5774E",
"5. c #8D9100",
"6. c #754400",
"7. c #FC5001",
"8. c #B07F50",
"9. c #836600",
"0. c #9B8169",
"q. c #FEFFE3",
"w. c #FAD82C",
"e. c #9D3E22",
"r. c #EEC6AD",
"t. c #491414",
"y. c #F8FF0B",
"u. c #906868",
"i. c #856B22",
"p. c #FEFFE8",
"a. c #FE442C",
"s. c #ED6E44",
"d. c #3D5D6B",
"f. c #B50000",
"g. c #4F4203",
"h. c #FFCEE8",
"j. c #FFB5DB",
/* pixels */
"# # # # # # # # # # # # # # # # # # # # # @ . . . : # # # # # # # # # # # # # # # # # # # # # # # # # # # # # # # # # # # # # # # # # # # # ",
"# # # # # # # # # # # # # # # # # # # # @ A 5 5 5 L + # # # # # # # # # # # # # # # # # # # # # # # # # # # # # # # # # # # # # # # # # # # ",
"# # # # # # # # # # # # # # # # # # # # . 5 O O O M C @ @ @ @ & # # # # # # # # # # # # # # # # # # # # # # # # # # # # # # # # # # # # # # ",
"# # # # # # # # # # # # # # # # # # # # . 5 O O O O M 4 4 4   = # # # # # # # # # # # # # # # # # # # # # # # # # # # # # # # # # # # # # # ",
"# # # # # # # # # # # # # # # # # # # # . 5 O O O O Y V V V   = # # # # # # # # # # # # # # # # # # # # # # # # # # # # # # # # # # # # # # ",
"# # # # # # # # # # # # # # # # # # # # . 5 O O O O O O j 4 + > # # # # # # # # # # # # # # # # # # # # # # # # # # # # # # # # # # # # # # ",
"# # # # # # # # # # # # # # # # # # # # = C t M Y O O x A @ # # # # # # # # # # # # # # # # # # # # # # # # # # # # # # # # # # # # # # # # ",
"# # # # # # # # # # # # # # # # # # # # # = o L M r r 1.. # # # ; @ @ @ @ @ @ = # # # # # # # # # # # # # # # # # # # # # # # # # # # # # # ",
"# # # # # # # # # # # # # # # # # # # # # # # : ,       9 + + + i - - - - - - - + + > # # # # # # # # # # # # # # # # # # # # # # # # # # # ",
"# # # # # # # # # # # # # # # # # # # # # # # # # .             F $ $ $ $ $ $ 2     + # # # # # # # # # # # # # # # # # # # # # # # # # # # ",
"# # # # # # # # # # # # # # # # # # # # # # # # # .         $ $ $ $ $ $ $ $ $ $ $ $ - 7 # # # # # # +   # # # # # # # # # # # # # # # # # # ",
"# # # # # # # # # # # # # # # # # # # # # # # # # ; ,   k b $ $ $ $ $ $ $ $ $ $ $ $ ) * n # # # Z ; i 4., + # # # # # # # # # # # # # # # # ",
"# # # # # # # # # # # # # # # # # # # # # # # # # # o   - $ G G G m $ $ >.F ) $ $ $ $ v . # # # # @ 4 V t w ; # # # # # # # # # # # # # # # ",
"# # # # # # # # # # # # # # # # # # # # # # # # # # o l ..$ 8 8 q.O.$ 2 g.l * $ m $ $ F - + Z # # = i x O t L + + + > # # # # # # # # # # # ",
"# # # # # # # # # # # # # # # # # # # # # # # # # # o * $ $ 8 8 G $ $   j t * m p.m $ $ 2   & # # # +   O O r       + # # # # # # # # # # # ",
"# # # # # # # # # # # # # # # # # # # # # # # # # # o * $ $ $ $ $ b   O O O r a 8 8 8 O.2   & # # # +   O O O O O O 4 @ # # # # # # # # # # ",
"# # # # # # # # # # # # # # # # # # # # # # # # # # o * $ $ $ $ $ b   } } [ s.,.a.w.m y.$ ) k : # = 9   O O O O O O j A 7 # # # # # # # # # ",
"# # # # # # # # # # # # # # # # # # # # # # # # # # o * $ $ $ $ >.6.:.@.h I I | | 7.9.b o...c & @ w 1   t j O O O O O t o # # # # # # # # # ",
"# # # # # # # # # # # # # # # # # # # # # # # # # # o * $ $ $ $ * D 0 j.<.h | z -.0 ` v 2   & ; c < ^ C   5 S S S S Y r C ; # # # # # # # # ",
"# # # # # # # # # # # # # # # # # # # # # # # # # # o * $ $ $ $ * D 0 z h.<.z z -.0 ` v 2   & . < X X X             j O r . # # # # # # # # ",
"# # # # # # # # # # # # # # # # # # # # # # # # # # o   W o.$ $ * =.O 0 h z z h } J 4 v 2     3 / g 6 .   ; # # # # ,     , # # # # # # # # ",
"# # # # # # # # # # # # # # # # # # # # # # # # # # o     - $ $ * =.O J $.h h $.J _ 4 v 2   6 q 1 u s ; + > # # # # : + + : # # # # # # # # ",
"# # # # # # # # # # # # # # # # # # # # # # # # # # ; N     * * i.x O O [ I I [ O O 4 - * y q 1 c @ = > # # # # # # # # # # # # # # # # # # ",
"# # # # # # # # # # # # # # # # # # # # # # # # # # # ; o o     0.K K K K @.J O _ 8.A p 1 q y X.; # # # # # # # # # # # # # # # # # # # # # ",
"# # # # # # # # # # # # # # # # # # # # # # # # # # # # # #     ~ B B B B B r._ x k y g q 6 , : % % % # % % % # # # # # # # # # # # # # # # ",
"# # # # # # # # # # # # # # # # # # # # # # # # # # # # # #     ] d d ' ' d e.x     l R 6 . & % % % % % % % % % # # # # # # # # # # # # # # ",
"# # # # # # # # # # # # # # # # # # # # # # # # # # # # # #     ] d d f f :.D k         s + Z % % % % % % 8 % % # # # # # # # # # # # # # # ",
"# # # # # # # # # # # # # # # # # # # # # # # # # # # # # #       D f 0 0 f *.#.6 (   o : # # % % % % % % % % % # # # # # # # # # # # # # # ",
"# # # # # # # # # # # # # # # # # # # # # # # # # # # # # #   P o ` f.0 0 ,.' t.g u o ; # # # # % % % % % % % # # # # # # # # # # # # # # # ",
"# # # # # # # # # # # # # # # # # # # # # # # # # # # # > +   { %.l D f f *.] ( 6 s : # # # # # # % % % % % # # # # # # # # # # # # # # # # ",
"# # # # # # # # # # # # # # # # # # # # # # # # # # # # +   . { P   . #.d u.<   . + # # # # # # # # % % % # # # # # # # # # # # # # # # # # ",
"# # # # # # # # # # # # # # # # # # # # # # # # # # # # +   H P   ;.H H +.q < 9 & Z # # # # # # # # # % # # # # # # # # # # # # # # # # # # ",
"# # # # # # # # # # # # # # # # # # # # # # # # # # # # +   H ;.> &.o +.X 1 X.: # # # # # # # # # # # # # # # # # # # # # # # # # # # # # # ",
"# # # # # # # # # # # # # # # # # # # # # # # # # # # # +   %.! &.{   X 1 c ; # # # # # # # # # # # # # # # # # # # # # # # # # # # # # # # ",
"# # # # # # # # # # # # # # # # # # # # # # # # # # # : a *     P d.* X u @ # # # # # # # # # # # # # # # # # # # # # # # # # # # # # # # # ",
"# # # # # # # # # # # # # # # # # # # # # # # # # # # @ W 2        .2 3 s = # # # # # # # # # # # # # # # # # # # # # # # # # # # # # # # # ",
"# # # # # # # # # # # # # # # # # # # # # # # # # # # @   Q         Q   ; > # # # # # # # # # # # # # # # # # # # # # # # # # # # # # # # # ",
"# # # # # # # # # # # # # # # # # # # # # # # # # # # @ W 2     3.5.    + # # # # # N . N # # # # # # # # # # # # # # # # # # # # # # # # # ",
"# # # # # # # # # # # # # # # # # # # # # # # # # # # @ l *      .2.    , ; # # > 7       n > # # # # # # # # # # # # # # # # # # # # # # # ",
"# # # # # # # # # # # # # # # # # # # # # # # # # # # @                   @ # # & .       9 7 @ : # # # # # # # # # # # # # # # # # # # # # ",
"# # # # # # # # # # # # # # # # # # # # # # # # # # & U   -     Q k   u u c & # & .             U & # # # # # # # # # # # # # # # # # # # # ",
"# # # # # # # # # # # # # # # # # # # # # # # # # # o   - $     F b   X X p o # & .               o # # # # # # # # # # # # # # # # # # # # ",
"# # # # # # # # # # # # # # # # # # # # # # # # # .               i X       o +     e 1             . & # # # # # # # # # # # # # # # # # # ",
"# # # # # # # # # # # # # # # # # # # # # # # # # .               9 i   < i o +   < / ^ <       R R . & # # # # # # # # # # # # # # # # # # ",
"# # # # # # # # # # # # # # # # # # # # # # # # # 7 9                 p g y w U   3 X X e     a ~ < . & # # # # # # # # # # # # # # # # # # ",
"# # # # # # # # # # # # # # # # # # # # # # # # # # o                 X X X 6 E   3 X X e   ! < T 1 n > # # # # # # # # # # # # # # # # # # ",
"# # # # # # # # # # # # # # # # # # # # # # # # # # o                 X X X X e   3 X X e   & .   o # # # # # # # # # # # # # # # # # # # # ",
"# # # # # # # # # # # # # # # # # # # # # # # # # # # @         @ # #   3 X X X g u e 1 . # # # # # # # # # # # # # # # # # # # # # # # # # ",
"# # # # # # # # # # # # # # # # # # # # # # # # # # # @         @ # # + s T X X q ^ q 1 . # # # # # # # # # # # # # # # # # # # # # # # # # ",
"# # # # # # # # # # # # # # # # # # # # # # # # # # # @         @ # # # = w y X X X X 1 . # # # # # # # # # # # # # # # # # # # # # # # # # ",
"# # # # # # # # # # # # # # # # # # # # # # # # # # # @         n + # # # @ w T 6 / ~ a . # # # # # # # # # # # # # # # # # # # # # # # # # ",
"# # # # # # # # # # # # # # # # # # # # # # # # # # # = 9         , # # # # = 9   y (   N # # # # # # # # # # # # # # # # # # # # # # # # # ",
"# # # # # # # # # # # # # # # # # # # # # # # # # # # # +         , # # # # # +       7 # # # # # # # # # # # # # # # # # # # # # # # # # # ",
"# # # # # # # # # # # # # # # # # # # # # # # # # # # # +         , # # # # # > + + + & # # # # # # # # # # # # # # # # # # # # # # # # # # ",
"# # # # # # # # # # # # # # # # # # # # # # # # # # # # +         , # # # # # # # # # # # # # # # # # # # # # # # # # # # # # # # # # # # # ",
"# # # # # # # # # # # # # # # # # # # # # # # # # # # # +         9 @ # # # # # # # # # # # # # # # # # # # # # # # # # # # # # # # # # # # ",
"# # # # # # # # # # # # # # # # # # # # # # # # # # # # : .           # # # # # # # # # # # # # # # # # # # # # # # # # # # # # # # # # # # ",
"# # # # # # # # # # # # # # # # # # # # # # # # # # # # # #           # # # # # # # # # # # # # # # # # # # # # # # # # # # # # # # # # # # ",
"# # # # # # # # # # # # # # # # # # # # # # # # # # # # # #           # # # # # # # # # # # # # # # # # # # # # # # # # # # # # # # # # # # ",
"# # # # # # # # # # # # # # # # # # # # # # # # # # # # # #           # # # # # # # # # # # # # # # # # # # # # # # # # # # # # # # # # # # ",
"# # # # # # # # # # # # # # # # # # # # # # # # # # # # # #           7 & # # # # # # # # # # # # # # # # # # # # # # # # # # # # # # # # # ",
"# # # # # # # # # # # # # # # # # # # # # # # # # # # # # #             + # # # # # # # # # # # # # # # # # # # # # # # # # # # # # # # # # ",
"# # # # # # # # # # # # # # # # # # # # # # # # # # # # # #             + # # # # # # # # # # # # # # # # # # # # # # # # # # # # # # # # # ",
"# # # # # # # # # # # # # # # # # # # # # # # # # # # # # #             + # # # # # # # # # # # # # # # # # # # # # # # # # # # # # # # # # ",
"# # # # # # # # # # # # # # # # # # # # # # # # # # # = . .             + # # # # # # # # # # # # # # # # # # # # # # # # # # # # # # # # # ",
"# # # # # # # # # # # # # # # # # # # # # # # # # # @ w < <             + # # # # # # # # # # # # # # # # # # # # # # # # # # # # # # # # # ",
"# # # # # # # # # # # # # # # # # # # # # # # # # # o p X X p l         + # # # # # # # # # # # # # # # # # # # # # # # # # # # # # # # # # ",
"# # # # # # # # # # # # # # # # # # # # # # # # # # o a 3 3 3 E       . : # # # # # # # # # # # # # # # # # # # # # # # # # # # # # # # # # ",
"# # # # # # # # # # # # # # # # # # # # # # # # # # o                 & Z # # # # # # # # # # # # # # # # # # # # # # # # # # # # # # # # # ",
"# # # # # # # # # # # # # # # # # # # # # # # # # # o             ! + # # # # # # # # # # # # # # # # # # # # # # # # # # # # # # # # # # # "
};
