/* XPM */
static char *result[] = {
/* columns rows colors chars-per-pixel */
"70 70 134 2 ",
"   c black",
".  c #1A204A",
"X  c #A5A5A5",
"o  c #090D2A",
"O  c #FFB97A",
"+  c #2A3265",
"@  c #00010A",
"#  c #394280",
"$  c #F7FF00",
"%  c #E63540",
"&  c #313973",
"*  c gray52",
"=  c #636600",
"-  c #292C00",
";  c #2D356A",
":  c #262E5F",
">  c #202754",
",  c #835D36",
"<  c #030418",
"1  c #353E7A",
"2  c #606060",
"3  c #141B3C",
"4  c #C8CE00",
"5  c #2C1A09",
"6  c #9D9D9D",
"7  c #787879",
"8  c white",
"9  c #FE0003",
"0  c #2A2A2D",
"q  c #191A22",
"w  c #939393",
"e  c #680203",
"r  c #4E4E4F",
"t  c #986C43",
"y  c #686868",
"u  c gray8",
"i  c #272940",
"p  c #4C0404",
"a  c #7D8100",
"s  c #AEB400",
"d  c #393236",
"f  c gray24",
"g  c #303241",
"h  c #B48151",
"j  c #F2B074",
"k  c #0A0B07",
"l  c #050201",
"z  c #535353",
"x  c #000004",
"c  c #060A24",
"v  c #E3CECE",
"b  c #320000",
"n  c #FF004C",
"m  c #E10000",
"M  c #141602",
"N  c #2C3367",
"B  c #664528",
"V  c #969B00",
"C  c #BD8856",
"Z  c #FAFF66",
"A  c #F9FF32",
"S  c #FFD6B0",
"D  c #453E3E",
"F  c #FF0079",
"G  c #FF2336",
"H  c #111436",
"J  c #E8A76C",
"K  c #FF0082",
"L  c #0C1131",
"P  c #727373",
"I  c #202100",
"U  c #D79B64",
"Y  c #BCC200",
"T  c #7D0000",
"R  c #FF9761",
"E  c #4D86E8",
"W  c coral",
"Q  c #102D5B",
"!  c #9D0101",
"~  c #3365B2",
"^  c #FF1908",
"/  c #7E7E7E",
"(  c #573F30",
")  c #272921",
"_  c #000107",
"`  c #4B4743",
"'  c #353700",
"]  c #5A5E00",
"[  c #484301",
"{  c #A3A1A1",
"}  c #1F1003",
"|  c #DEE500",
" . c #CE9560",
".. c #846813",
"X. c #FD4A19",
"o. c #FBFF8A",
"O. c #FEFFE6",
"+. c #FF101E",
"@. c #939AAE",
"#. c #AF0000",
"$. c #FF9890",
"%. c #153566",
"&. c #2B589E",
"*. c #4B3119",
"=. c #FF005F",
"-. c #FF125B",
";. c #FF63B4",
":. c #5C3E22",
">. c #8D9100",
",. c #5295FF",
"<. c #636504",
"1. c #606403",
"2. c #897C7C",
"3. c #9B8169",
"4. c #FF896D",
"5. c #FFB275",
"6. c #EEC6AD",
"7. c #9D3E22",
"8. c #F8FF25",
"9. c #EEF500",
"0. c #ED6E44",
"q. c #FAD82C",
"w. c #906868",
"e. c #EC0000",
"r. c #3D5D6B",
"t. c #754400",
"y. c #0A234B",
"u. c #1E437C",
"i. c #D20000",
"p. c #102A55",
"a. c #FFCEE8",
"s. c #FFB5DB",
"d. c #D80000",
"f. c #A0A500",
/* pixels */
"# # # # # # # # # # # # # # # # # # # # # . @ @ @ ; # # # # # # # # # # # # # # # # # # # # # # # # # # # # # # # # # # # # # # # # # # # # ",
"# # # # # # # # # # # # # # # # # # # # . D , , , i + # # # # # # # # # # # # # # # # # # # # # # # # # # # # # # # # # # # # # # # # # # # ",
"# # # # # # # # # # # # # # # # # # # # @ , O O O , d . . . . & # # # # # # # # # # # # # # # # # # # # # # # # # # # # # # # # # # # # # # ",
"# # # # # # # # # # # # # # # # # # # # @ , O O O O , 5 5 5   > # # # # # # # # # # # # # # # # # # # # # # # # # # # # # # # # # # # # # # ",
"# # # # # # # # # # # # # # # # # # # # @ , O O O O j J J J   > # # # # # # # # # # # # # # # # # # # # # # # # # # # # # # # # # # # # # # ",
"# # # # # # # # # # # # # # # # # # # # @ , O O O O O O U 5 + 1 # # # # # # # # # # # # # # # # # # # # # # # # # # # # # # # # # # # # # # ",
"# # # # # # # # # # # # # # # # # # # # > d B , j O O C ( . # # # # # # # # # # # # # # # # # # # # # # # # # # # # # # # # # # # # # # # # ",
"# # # # # # # # # # # # # # # # # # # # # > o 0 t t t :.@ # # # : . . . . . . > # # # # # # # # # # # # # # # # # # # # # # # # # # # # # # ",
"# # # # # # # # # # # # # # # # # # # # # # # ; <       x + + + ) - - - - - - - + + 1 # # # # # # # # # # # # # # # # # # # # # # # # # # # ",
"# # # # # # # # # # # # # # # # # # # # # # # # # @             V $ $ $ $ $ $ 4     + # # # # # # # # # # # # # # # # # # # # # # # # # # # ",
"# # # # # # # # # # # # # # # # # # # # # # # # # @         $ $ $ $ $ $ $ $ $ $ $ $ - 3 # # # # % % %   % % % # # # # # # # # # # # # # # # ",
"# # # # # # # # # # # # # # # # # # # # # # # # # : <   M s $ $ $ $ $ $ $ $ $ $ $ $ Y 1.L # # % % % % % % % % % # # # # # # # # # # # # # # ",
"# # # # # # # # # # # # # # # # # # # # # # # # # # o   - $ Z Z Z A $ $ s V Y $ $ $ $ a @ # # % % % % % % 8 % % # # # # # # # # # # # # # # ",
"# # # # # # # # # # # # # # # # # # # # # # # # # # o l ] $ 8 8 O.o.$ 4 [ l = $ 8.$ $ V - N # % % % % % % % % % + + 1 # # # # # # # # # # # ",
"# # # # # # # # # # # # # # # # # # # # # # # # # # o = $ $ 8 8 Z $ $    .B = A O.A $ $ 4   & # % % % % % % %       + # # # # # # # # # # # ",
"# # # # # # # # # # # # # # # # # # # # # # # # # # o = $ $ $ $ $ s   O O O t 0 8 8 8 o.4   & # # % % % % % O O O O 5 . # # # # # # # # # # ",
"# # # # # # # # # # # # # # # # # # # # # # # # # # o = $ $ $ $ $ s   ^ ^ W 0.d.X.q.A $ 9.Y M ; # > % % % O O O O O U ( 3 # # # # # # # # # ",
"# # # # # # # # # # # # # # # # # # # # # # # # # # o = $ $ $ $ f.t.! $.-.G G n n X...s | ] i & . g r % B U O O O O O B o # # # # # # # # # ",
"# # # # # # # # # # # # # # # # # # # # # # # # # # o = $ $ $ $ = p 9 s.;.-.n K F 9 b a 4   & : i 2 w d   , h h h h j t d : # # # # # # # # ",
"# # # # # # # # # # # # # # # # # # # # # # # # # # o = $ $ $ $ = p 9 K a.;.K K F 9 b a 4   & @ 2 X X X              .O t @ # # # # # # # # ",
"# # # # # # # # # # # # # # # # # # # # # # # # # # o   I | $ $ = *.O 9 =.F F =.^ R 5 a 4     * 6 w 7 @   : # # # # <     < # # # # # # # # ",
"# # # # # # # # # # # # # # # # # # # # # # # # # # o     - $ $ = *.O R +.n n +.R 5.5 a 4   7 6 z u q : + 1 # # # # ; + + ; # # # # # # # # ",
"# # # # # # # # # # # # # # # # # # # # # # # # # # : c     = = ..C O O W G G W O O 5 - <.y 6 z i . > 1 # # # # # # # # # # # # # # # # # # ",
"# # # # # # # # # # # # # # # # # # # # # # # # # # # : o o     3.S S S S $.4.O j h ` f z 6 y 3 : # # # # # # # # # # # # # # # # # # # # # ",
"# # # # # # # # # # # # # # # # # # # # # # # # # # # # # #     2.v v v v v 6.j C } y w 6 7 < ; # # # # # # # # # # # # # # # # # # # # # # ",
"# # # # # # # # # # # # # # # # # # # # # # # # # # # # # #     b e e T T e 7.C       ` 7 @ & # # # # # # # # # # # # # # # # # # # # # # # ",
"# # # # # # # # # # # # # # # # # # # # # # # # # # # # # #     b e e m m ! p }         q N # # # # # # # # # # # # # # # # # # # # # # # # ",
"# # # # # # # # # # # # # # # # # # # # # # # # # # # # # #     l p m 9 9 e.#.e 7 k   o ; # # # # # # # # # # # # # # # # # # # # # # # # # ",
"# # # # # # # # # # # # # # # # # # # # # # # # # # # # # #   Q o b #.9 9 i.T p w u o : # # # # # # # # # # # # # # # # # # # # # # # # # # ",
"# # # # # # # # # # # # # # # # # # # # # # # # # # # # 1 +   ~ %.l p m m ! p k 7 q ; # # # # # # # # # # # # # # # # # # # # # # # # # # # ",
"# # # # # # # # # # # # # # # # # # # # # # # # # # # # +   @ ~ Q   @ e e w.2   @ N # # # # # # # # # # # # # # # # # # # # # # # # # # # # ",
"# # # # # # # # # # # # # # # # # # # # # # # # # # # # +   E p.  3 E E @.{ 2 _ & # # # # # # # # # # # # # # # # # # # # # # # # # # # # # ",
"# # # # # # # # # # # # # # # # # # # # # # # # # # # # +   ,.y.u.&.o @.X z 3 ; # # # # # # # # # # # # # # # # # # # # # # # # # # # # # # ",
"# # # # # # # # # # # # # # # # # # # # # # # # # # # # +   %.< &.~   X z i : # # # # # # # # # # # # # # # # # # # # # # # # # # # # # # # ",
"# # # # # # # # # # # # # # # # # # # # # # # # # # # ; 0 =     Q r.= X u . # # # # # # # # # # # # # # # # # # # # # # # # # # # # # # # # ",
"# # # # # # # # # # # # # # # # # # # # # # # # # # # . I 4       ' 4 * q > # # # # # # # # # # # # # # # # # # # # # # # # # # # # # # # # ",
"# # # # # # # # # # # # # # # # # # # # # # # # # # # .   k         k   : 1 # # # # # # # # # # # # # # # # # # # # # # # # # # # # # # # # ",
"# # # # # # # # # # # # # # # # # # # # # # # # # # # . I 4     a >.    + # # # # # c @ c # # # # # # # # # # # # # # # # # # # # # # # # # ",
"# # # # # # # # # # # # # # # # # # # # # # # # # # # . l =     ' [     < : # # 1 3       L 1 # # # # # # # # # # # # # # # # # # # # # # # ",
"# # # # # # # # # # # # # # # # # # # # # # # # # # # .                   . # # & @       x 3 . ; # # # # # # # # # # # # # # # # # # # # # ",
"# # # # # # # # # # # # # # # # # # # # # # # # # # & H   -     M M   u u i & # & @             H & # # # # # # # # # # # # # # # # # # # # ",
"# # # # # # # # # # # # # # # # # # # # # # # # # # o   - $     V s   X X f o # & @               o # # # # # # # # # # # # # # # # # # # # ",
"# # # # # # # # # # # # # # # # # # # # # # # # # @               0 X       o +     * r             @ & # # # # # # # # # # # # # # # # # # ",
"# # # # # # # # # # # # # # # # # # # # # # # # # @                 0   2 ) o +   2 6 w 2     x f D @ & # # # # # # # # # # # # # # # # # # ",
"# # # # # # # # # # # # # # # # # # # # # # # # # 3 x                 f w y g H   * X X *     0 / 2 @ & # # # # # # # # # # # # # # # # # # ",
"# # # # # # # # # # # # # # # # # # # # # # # # # # o                 X X X 7 q   * X X *   < 2 P r L 1 # # # # # # # # # # # # # # # # # # ",
"# # # # # # # # # # # # # # # # # # # # # # # # # # o                 X X X X *   * X X *   & @   o # # # # # # # # # # # # # # # # # # # # ",
"# # # # # # # # # # # # # # # # # # # # # # # # # # # .         . # #   * X X X w u * r @ # # # # # # # # # # # # # # # # # # # # # # # # # ",
"# # # # # # # # # # # # # # # # # # # # # # # # # # # .         . # # + q P X X { * 6 r @ # # # # # # # # # # # # # # # # # # # # # # # # # ",
"# # # # # # # # # # # # # # # # # # # # # # # # # # # .         . # # # > g y X X X X r @ # # # # # # # # # # # # # # # # # # # # # # # # # ",
"# # # # # # # # # # # # # # # # # # # # # # # # # # # .         L + # # # . g P 7 6 / d @ # # # # # # # # # # # # # # # # # # # # # # # # # ",
"# # # # # # # # # # # # # # # # # # # # # # # # # # # > x         < # # # # > x   y k   c # # # # # # # # # # # # # # # # # # # # # # # # # ",
"# # # # # # # # # # # # # # # # # # # # # # # # # # # # +         < # # # # # N       3 # # # # # # # # # # # # # # # # # # # # # # # # # # ",
"# # # # # # # # # # # # # # # # # # # # # # # # # # # # +         < # # # # # 1 + + + & # # # # # # # # # # # # # # # # # # # # # # # # # # ",
"# # # # # # # # # # # # # # # # # # # # # # # # # # # # +         < # # # # # # # # # # # # # # # # # # # # # # # # # # # # # # # # # # # # ",
"# # # # # # # # # # # # # # # # # # # # # # # # # # # # +         _ . # # # # # # # # # # # # # # # # # # # # # # # # # # # # # # # # # # # ",
"# # # # # # # # # # # # # # # # # # # # # # # # # # # # ; @           # # # # # # # # # # # # # # # # # # # # # # # # # # # # # # # # # # # ",
"# # # # # # # # # # # # # # # # # # # # # # # # # # # # # #           # # # # # # # # # # # # # # # # # # # # # # # # # # # # # # # # # # # ",
"# # # # # # # # # # # # # # # # # # # # # # # # # # # # # #           # # # # # # # # # # # # # # # # # # # # # # # # # # # # # # # # # # # ",
"# # # # # # # # # # # # # # # # # # # # # # # # # # # # # #           # # # # # # # # # # # # # # # # # # # # # # # # # # # # # # # # # # # ",
"# # # # # # # # # # # # # # # # # # # # # # # # # # # # # #           3 & # # # # # # # # # # # # # # # # # # # # # # # # # # # # # # # # # ",
"# # # # # # # # # # # # # # # # # # # # # # # # # # # # # #             + # # # # # # # # # # # # # # # # # # # # # # # # # # # # # # # # # ",
"# # # # # # # # # # # # # # # # # # # # # # # # # # # # # #             + # # # # # # # # # # # # # # # # # # # # # # # # # # # # # # # # # ",
"# # # # # # # # # # # # # # # # # # # # # # # # # # # # # #             + # # # # # # # # # # # # # # # # # # # # # # # # # # # # # # # # # ",
"# # # # # # # # # # # # # # # # # # # # # # # # # # # > @ @             + # # # # # # # # # # # # # # # # # # # # # # # # # # # # # # # # # ",
"# # # # # # # # # # # # # # # # # # # # # # # # # # . g 2 2             + # # # # # # # # # # # # # # # # # # # # # # # # # # # # # # # # # ",
"# # # # # # # # # # # # # # # # # # # # # # # # # # o f X X f l         + # # # # # # # # # # # # # # # # # # # # # # # # # # # # # # # # # ",
"# # # # # # # # # # # # # # # # # # # # # # # # # # o 0 * * * q       @ ; # # # # # # # # # # # # # # # # # # # # # # # # # # # # # # # # # ",
"# # # # # # # # # # # # # # # # # # # # # # # # # # o                 & # # # # # # # # # # # # # # # # # # # # # # # # # # # # # # # # # # ",
"# # # # # # # # # # # # # # # # # # # # # # # # # # o           x @ + # # # # # # # # # # # # # # # # # # # # # # # # # # # # # # # # # # # "
};
