/* XPM */
static char *result[] = {
/* columns rows colors chars-per-pixel */
"70 70 163 2 ",
"   c #000000",
".  c #06070C",
"X  c #0D0D0D",
"o  c #0A0700",
"O  c #1B1C00",
"+  c #141400",
"@  c #0A0B15",
"#  c #0C0E19",
"$  c #0D121F",
"%  c #111111",
"&  c #19191A",
"*  c #140F0A",
"=  c #340000",
"-  c #3F0000",
";  c #291D13",
":  c #1F2117",
">  c #2A2B00",
",  c #232400",
"<  c #323300",
"1  c #3C3D00",
"2  c #332518",
"3  c #313414",
"4  c #121424",
"5  c #16192D",
"6  c #161826",
"7  c #191C32",
"8  c #111E33",
"9  c #1E223D",
"0  c #232323",
"q  c #26272E",
"w  c #332A2C",
"e  c #322D39",
"r  c #333333",
"t  c #3A383B",
"y  c #2D3032",
"u  c #4D0000",
"i  c #530805",
"p  c #5D1A1A",
"a  c #6A0000",
"s  c #780000",
"d  c #4D3724",
"f  c #4B3C3E",
"g  c #4B2121",
"h  c #504E06",
"j  c #734800",
"k  c #5D6007",
"l  c #636600",
"z  c #626514",
"x  c #777A00",
"c  c #5A4332",
"v  c #664930",
"b  c #775638",
"n  c #1E355B",
"m  c #212543",
"M  c #252A4C",
"N  c #2B2F49",
"B  c #2E3143",
"V  c #363846",
"C  c #393644",
"Z  c #2A2F54",
"A  c #2C325A",
"S  c #30365E",
"D  c #2F3560",
"F  c #223B66",
"G  c #323865",
"H  c #353C6B",
"J  c #313763",
"K  c #383F71",
"L  c #394175",
"P  c #3E467E",
"I  c #424242",
"U  c #4C4C4C",
"Y  c #535353",
"T  c #5D5D5D",
"R  c #504C4C",
"E  c #5F5F63",
"W  c #626262",
"Q  c DimGray",
"!  c #757575",
"~  c #777778",
"^  c #7C7C7C",
"/  c #800000",
"(  c #990000",
")  c #A70000",
"_  c #B30000",
"`  c #DF0000",
"'  c #D30505",
"]  c #EA0000",
"[  c #FD0000",
"{  c #FF120C",
"}  c #FF001A",
"|  c #FF2518",
" . c #FF2317",
".. c #FF1D28",
"X. c #FF2C3C",
"o. c #816600",
"O. c #825D3D",
"+. c #9B422B",
"@. c #836B2B",
"#. c #FC520F",
"$. c #FE4833",
"%. c #FF004C",
"&. c #FF0A45",
"*. c #FF0057",
"=. c #FF045F",
"-. c #FF1F5B",
";. c #E43B44",
":. c #FF0073",
">. c #FF007B",
",. c #996E48",
"<. c #946A46",
"1. c #8C6645",
"2. c #A97951",
"3. c #907D72",
"4. c #FF7D52",
"5. c #EB6E48",
"6. c #7C8000",
"7. c #8B8F00",
"8. c #949900",
"9. c #9EA300",
"0. c #ADB300",
"q. c #AEB401",
"w. c #BCC200",
"e. c #C6CC00",
"r. c #DCE300",
"t. c #F7FF00",
"y. c #F7FF0A",
"u. c #F3FA0D",
"i. c #FAD633",
"p. c #F9FF33",
"a. c #F8FF2E",
"s. c #B38054",
"d. c #B88456",
"f. c #BA8659",
"g. c #C28B5B",
"h. c #CC9360",
"j. c #D49964",
"k. c #FF9561",
"l. c #FF876D",
"z. c #E6A56C",
"x. c #F0AC71",
"c. c #FFB778",
"v. c #F8B073",
"b. c #F9FF48",
"n. c #FAFF66",
"m. c #3B67B3",
"M. c #FF0080",
"N. c #FF64B2",
"B. c #508CF3",
"V. c #838383",
"C. c #8B8B8B",
"Z. c #9B9B9B",
"A. c #929292",
"S. c #A3A3A3",
"D. c #FF968E",
"F. c #FBFF88",
"G. c #FFD4AE",
"H. c #EDC4AB",
"J. c #FFB3D9",
"K. c #E1CCCC",
"L. c #FFCCE6",
"P. c #FEFFE4",
"I. c white",
/* pixels */
"P P P P P P P P P P P P P P P P P P P P P P P P P P P P P P P P P P P P P P P P P P P P H # # # M P P P P P P P P P P P P P P P P P P P P P ",
"P P P P P P P P P P P P P P P P P P P P P P P P P P P P P P P P P P P P P P P P P P P G B O.b O.f M P P P P P P P P P P P P P P P P P P P P ",
"P P P P P P P P P P P P P P P P P P P P P P P P P P P P P P P P P P P P P P K M M M M C O.c.c.c.O.# P P P P P P P P P P P P P P P P P P P P ",
"P P P P P P P P P P P P P P P P P P P P P P P P P P P P P P P P P P P P P P Z o 2 2 2 O.c.c.c.c.O.# P P P P P P P P P P P P P P P P P P P P ",
"P P P P P P P P P P P P P P P P P P P P P P P P P P P P P P P P P P P P P P A   z.z.z.x.c.c.c.c.O.# P P P P P P P P P P P P P P P P P P P P ",
"P P P P P P P P P P P P P P P P P P P P P P P P P P P P P P P P P P P P P P K G 0 j.c.c.c.c.c.c.O.# P P P P P P P P P P P P P P P P P P P P ",
"P P P P P P P P P P P P P P P P P P P P P P P P P P P P P P P P P P P P P P P P M f g.c.c.x.O.v f Z P P P P P P P P P P P P P P P P P P P P ",
"P P P P P P P P P P P P P P P P P P P P P P P P P P P P P P Z N M M M M M J P P E @ c ,.,.1.e 7 A P P P P P P P P P P P P P P P P P P P P P ",
"P P P P P P P P P P P P P P P P P P P P P P P P P Y m.L G G 3 < < < < < < r J G G @       4 H P P P P P P P P P P P P P P P P P P P P P P P ",
"P P P P P P P P P P P P P P P P P K P P P P P P P L G G     e.t.t.t.t.t.t.8.            # P P P P P P P P P P P P P P P P P P P P P P P P P ",
"P P P P P P P P P P P P P P P P m.G . G P P P P P P 9 < t.t.t.t.t.t.t.t.t.t.t.t.        # P P P P P P P P P P P P P P P P P P P P P P P P P ",
"P P P P P P P P P P P P P P P P D 4 2.w Z P P P P 9 z w.t.t.t.t.t.t.t.t.t.t.t.t.0.,   4 D P P P P P P P P P P P P P P P P P P P P P P P P P ",
"P P P P P Y P P P P G m.P P P D B v z.2 M P P P P # x y.t.t.t.w.8.0.t.t.b.n.n.n.t.<   7 P P P P P P P P P P P P P P P P P P P P P P P P P P ",
"P P P P P P P P P P L L G G G e b c.f.w Z P P P H 2 8.t.y.p.y.l + d e.t.F.P.I.I.t.k + 7 P P P P P P P P P P P P P P P P P P P P P P P P P P ",
"P P P P P P P P P P P G       ,.c.c.. J P P P K . e.t.t.p.P.p.l v h.  t.t.n.I.I.t.t.l 7 P P P P P P P P P P P P P P K P P P P P P P P P P P ",
"P P P P P P P P P P M 2 c.c.c.c.c.c.. J P P P K . e.F.I.I.I.r ,.c.c.c.  0.t.t.t.t.t.l 7 P P P P P P P P P P P P P P G m.P P P P P P P P P P ",
"P P P P P P P P P 9 c j.c.c.c.c.c.c.  @ Z P G : q.t.u.p.i.$.' 5.4.| |   0.t.t.t.t.t.l 7 P P P P P P P P P P P P P P P P P P P P P P P P P P ",
"P P P P P P P P P 9 v c.c.c.c.c.j.v X U V Z L B k r.q.o.#.&.%.X.-.-.D.( j 9.t.t.t.t.l 7 P P P P P P P P P P P P P P P P P P P P P P P P P P ",
"P P P P P P P P J t <.x.s.s.s.d.b   I C.E e S L . e.6.= } >.M.%.-.N.J.[ u l t.t.t.t.l 7 P P P P P P P P P P P P P P P P P P P P P P P P P P ",
"P P P P P P P P % ,.D.g.            S.S.S.W @ L . e.6.= } >.M.M.N.L.M.[ u l t.t.t.t.l 7 P P P P P P P P P P P P P P P P P P P P P P P P P P ",
"P P P P P P P P 4 @ . 4 P P P P A . & ~ A.Z.V.%   e.6.2 k.| =.>.:.=.{ c.d l t.t.r.<   7 P P P P P P P P P P P P P P P P P P P P P P P P P P ",
"P P P P P P P P H H G H P P P P L G A q 0 Y Z.! * e.6.2 v.k...*.%...k.c.d l t.t.< o   7 P P P P P P P P P P P P P P P P P P P P P P P P P P ",
"P P P P P P P P P P P P P P P P E P L Z M V Y Z.Q z < 2 c.c.4.X.X.k.c.c.d.@.l l   . 5 J P P P P P P P P P P P P P P P P P P P P P P P P P P ",
"P P P P P P P P P P P P P P P P P P K G m.F e Q Z.Y I R 2.v.c.l.l.G.G.G.G.3.    7 8 F E P P P P P P P P P P P P P P P P P P P P P P P P P P ",
"P P P P P P P P P P P P P P P P P P P P P P H 4 ! Z.A.E ; f.x.H.K.K.K.K.K.3.    P P P P P P P P P P P P P P P P P P P P P P P P P P P P P P ",
"P P P P P P P P P P P P P P P P P P P P P P P L # ~ U .     f.+.a s s a a =     P P P P P P P P P P P P P P P P P P P P P P P P P P P P P P ",
"P P P P P P P P P P P P P P P P P P P P P P P P G q #       ; i ( ] ` a a u     P P P P P P P P P P P P P P P P P P P P P P P P P P P P P P ",
"P P P P P P P P P P P P P P P P P P P P P P P P m.H 7   & ^ p ) ] [ [ ` u o     P P P P P P P P P P P P P P P P P P P P P P P P P P P P P P ",
"P P P P P P P P P P P P P P P P P P P P P P P P G L S 7 ; A.g / ' [ [ _ = 8 n   P P P P P P P P P P P P P P P P P P P P P P P P P P P P P P ",
"P P P P P P P P P P P P P P P P P P P P P P P P P P P G q ~ & ;.;.;.` ;.;.;.m.  J L P P P P P P P P P P P P P P P P P P P P P P P P P P P P ",
"P P P P P P P P P P P P P P P P P P P P P P P P P P P P G # ;.;.;.;.;.;.;.;.;.$ o J P P P P P P P P P P P P P P P P P P P P P P P P P P P P ",
"P P P P P P P P P P P P P P P P P P P P P P P P P P P P P K ;.;.I.;.;.;.;.;.;.B.o J P P P P P P P P P P P P P P P P P P P P P P P P P P P P ",
"P P P P P P P P P P P P P P P P P P P P P P P P P P P P P P ;.;.;.;.;.;.;.;.;.B.  G P P P P P P P P P P P P P K Y P P P P P P P P P P P P P ",
"P P P P P P P P P P P P P P P P P P P P P P P P P P P P P P P ;.;.;.;.;.;.;.$ F   G P P P P P P P P P P P P m.H P P P P P P P P P P P P P P ",
"P P P P P P P P P P P P P P P P P P P P P P P P P P P P P P P P ;.;.;.;.;.n .   l e H P P P P P P P P P P P P P P P P P P P P P P P P P P P ",
"P P P P P P P P P P P P P P P P P P P P P P P P P P P P P P P P M ;.;.;.1       e.> M P P P P P P P P P P P P P P P P P P P P P P P P P P P ",
"P P P P P P P P P P P P P P P P P P P P P P P P P P P P P P P P L S ;.O o       O   M P P P P P P P P P P P P P P P P P P P P P P P P P P P ",
"P P P P P P P P P P P P P P P P P P P P P P P P P 5 # 5 P P P P m.J     7.x     e.> M P P P P P P P P P P P P P P P P P P P P P P P P P P P ",
"P P P P P P P P P P P P P P P P P P P P P P m.L 7 .   . m L P P N #     h 1     l + M P P P P P P P P P P P P P P P P P P P P P P P P P P P ",
"P P P P P P P P P Y P P P P P P P P P P L D q m .       # K P P M o                 M P P P P P P P P P P P P P P P P P P P P P P P P P P P ",
"P P P P P P P P P P P P P P P P P P P P H 9             # K P K N 0 6   , O     < o 9 K P P P P P P P P P P P P P P P P P P P P P P P P P P ",
"P P P P P P P P P P P P P P P P P P P P 7 o             # K P 7 f S.S.  0.8.    t.<   7 P P P P P P P P P P P P P P P P P P P P P P P P P P ",
"P P P P P P P P P P P P P P P P P P K #             U V.    J 7       S.r               # P P P P P P P P P P P P P P P P P P P P P P P P P ",
"P P P P P P P P P P P P P P P P P P K # U I       E C.Z.T X G 7 w T   r X               # P P P P P P P P P P P P P P P P P P P P P P P P P ",
"P P P P P P P P P P P P P P P P L G K # W ^ r   . ^ S.S.V.% 9 V Q A.I                 @ m P P P P P P P P P P P P P P P P P P P P P P P P P ",
"P P P P P P P P P P P P P P P P P m.L 7 U ! E 4 . V.S.S.V.% 0 ! S.S.S.                7 P P P P P P P P P P P P P P P P P P P P P P P P P P ",
"P P P P P P P P P P P P P P P P P P P P 7   # K . V.S.S.V.% V.S.S.S.S.                7 P P P P P P P P P P P P P P P P P P P P P P P P P P ",
"P P P P P P P P P P P P P P P P P P P P P P P P E # Y V.0 A.S.S.S.V.  P P M         M P P P P P P P P P P P P P P P P P P P P P P P P P P P ",
"P P P P P P P P P P P P P P P P P P P P P P P P P # Y Z.C.Z.S.S.! q G P P M         M P P P P P P P P P P P P P P P P P P P P P P P P P P P ",
"P P P P P P P P P P P P P P P P P P P P P P P P P # Y S.S.S.S.Q V Z P P P M       . M P P P P P P P P P P P P P P P P P P P P P P P P P P P ",
"P P P P P P P P P P P P P P P P P P P P P P P P P # t ^ Z.! ! V M P P P J 7         M P P P P P P P P P P P P P P P P P P P P P P P P P P P ",
"P P P P P P P P P P P P P P P P P P P P P P P P P 5 . & Q X @ Z P P P P 4         @ A P P P P P P P P P P P P P P P P P P P P P P P P P P P ",
"P P P P P P P P P P P P P P P P P P P P P P P P P P m . . . H P P P P P 4         G m.G P P P P P P P P P P P P P P P P P P P P P P P P P P ",
"P P P P P P P P P P P P P P P P P P P P P P P P P P L G G G L P P P P P 6         G P L P P P P P P P P P P P P P P P P P P P P P P P P P P ",
"P P P P P P P P P P P P P P P P P P P P P P P P P P P P P P P P P P P P 6       o J P P P P P P P P P P P P P P P P P P P P P P P P P P P P ",
"P P P P P P P P P P P P P P P P P P P P P P P P P P P P P P P P P P P M #         S P P P P P P P P P P P P P P P P P P P P P P P P P P P P ",
"P P P P P P P P P P P P P P P P P P P P P P P P P P P P P P P P P P P           $ H P P P P P P P P P P P P P P P P P P P P P P P P P P P P ",
"P P P P P P P P P P P P P P P P P P P P P P P P P P P P P P P P P P P           P P P P P P P P P P P P P P P P P P P P P P P P P P P P P P ",
"P P P P P P P P P P P P P P P P P P P P P P P P P P P P P P P P P P P           P P P P P P P P P P P P P P P P P P P P P P P P P P P P P P ",
"P P P P P P P P P P P P P P P P P P P P P P P P P P P P P P P P P P P           P P P P P P P P P P P P P P P P P P P P P P P P P P P P P P ",
"P P P P P P P P P P P P P P P P P P P P P P P P P P P P P P P P P L 9           P P P P P P P P P P P P P P P P P P P P P P P P P P P P P P ",
"P P P P P P P P P P P P P P P P P P P P P P P P P P P P P P P P P G             P P P P P P P P P P P P P P P P P P P P P P P P P P P P P P ",
"P P P P P P P P P P P P P P P P P P P P P P P P P P P P P P P P P J             P P P P P P P P P P P P P P P P P P P P P P P P P P P P P P ",
"P P P P P P P P P P P P P P P P P P P P P P P P P P P P P P P P P G             P P P P P P P P P P P P P P P P P P P P P P P P P P P P P P ",
"P P P P P P P P P P P P P P P P P P P P P P P P P P P P P P P P P J             # # Z E P P P P P P P P P P P P P P P P P P P P P P P P P P ",
"P P P P P P P P P P P P P P P P P P P P P P P P P P P P P P P P P G             W W M n P P P P P P P P P P P P P P P P P P P P P P P P P P ",
"P P P P P P P P P P P P P P P P P P P P P P P P P P P P P P P P P G         % I S.S.C 7 P P P P P P P P P P P P P P P P P P P P P P P P P P ",
"P P P P P P P P P P P P P P P P P P P P P P P P P P P P P P P P P H #       q V.V.V.r 7 P P P P P P P P P P P P P P P P P P P P P P P P P P ",
"P P P P P P P P P P P P P P P P P P P P P P P P P P P P P P P P P P K       . # % % . 7 E P P P P P P P P P P P P P P P P P P P P P P P P P ",
"P P P P P P P P P P P P P P P P P P P P P P P P P P P P P P P P P P P J 4     .       7 P P P P P P P P P P P P P P P P P P P P P P P P P P "
};
