/* XPM */
static char *_9e982c51ae44d9daa1ba0f5f4b0420bM4wHdo1SpZRFcOQz[] = {
/* columns rows colors chars-per-pixel */
"70 70 221 2 ",
"   c #0F1C15",
".  c #141414",
"X  c #1C1C1C",
"o  c #171818",
"O  c #241B1A",
"+  c #12211A",
"@  c #18271F",
"#  c #27221E",
"$  c #322513",
"%  c #1B1D29",
"&  c #1B1C23",
"*  c #291E29",
"=  c #3C1B24",
"-  c #142B21",
";  c #1B2825",
":  c #173426",
">  c #1A3A29",
",  c #1C2B37",
"<  c #242424",
"1  c #21212B",
"2  c #2C2B2B",
"3  c #262925",
"4  c #34232B",
"5  c #3D2228",
"6  c #302E2E",
"7  c #372527",
"8  c #23382C",
"9  c #222233",
"0  c #23253C",
"q  c #27283C",
"w  c #2A2A36",
"e  c #372A36",
"r  c #343132",
"t  c #3A3737",
"y  c #593809",
"u  c #4C1D2B",
"i  c #471A27",
"p  c #531F2F",
"a  c #45252A",
"s  c #54272F",
"d  c #543E28",
"f  c #552030",
"g  c #592334",
"h  c #56273C",
"j  c #483639",
"k  c #543332",
"l  c #643338",
"z  c #1D422E",
"x  c #224D34",
"c  c #224638",
"v  c #245236",
"b  c #265539",
"n  c #295B3B",
"m  c #2B5737",
"M  c #35502F",
"N  c #2C623F",
"B  c #37612D",
"V  c #5D411B",
"C  c #4A5719",
"Z  c #6B4709",
"A  c #744C07",
"S  c #6D4917",
"D  c #514931",
"F  c #7B5925",
"G  c #654A36",
"H  c #6E4E2C",
"J  c #556F30",
"K  c #6F723C",
"L  c #292B46",
"P  c #292C4A",
"I  c #252946",
"U  c #2C304E",
"Y  c #243246",
"T  c #383748",
"R  c #292E53",
"E  c #2B3554",
"W  c #2D3659",
"Q  c #31355B",
"!  c #363955",
"~  c #302B48",
"^  c #313762",
"/  c #343A65",
"(  c #363D6C",
")  c #3B3D67",
"_  c #383F70",
"`  c #473E48",
"'  c #5A3C42",
"]  c #433C58",
"[  c #523450",
"{  c #73314A",
"}  c #7D3853",
"|  c #6D3451",
" . c #4C3D69",
".. c #2B5346",
"X. c #2D4553",
"o. c #334B53",
"O. c #2D6541",
"+. c #2F6842",
"@. c #316B44",
"#. c #3A6544",
"$. c #347147",
"%. c #37764A",
"&. c #38456A",
"*. c #3B4374",
"=. c #3E467E",
"-. c #454141",
";. c #4C4848",
":. c #4A4646",
">. c #435844",
",. c #494658",
"<. c #5C4B5C",
"1. c #594D4D",
"2. c #644849",
"3. c #785244",
"4. c #634B56",
"5. c #604C58",
"6. c #6A5454",
"7. c #725658",
"8. c #6A5942",
"9. c #546E45",
"0. c #72694B",
"q. c #42436B",
"w. c #4A466A",
"e. c #4C4C6D",
"r. c #404165",
"t. c #565268",
"y. c #424573",
"u. c #414678",
"i. c #464979",
"p. c #5B5777",
"a. c #535069",
"s. c #695874",
"d. c #705A71",
"f. c #735667",
"g. c #6B6C7B",
"h. c #835C0B",
"j. c #885C14",
"k. c #956A0D",
"l. c #9C7411",
"z. c #88593D",
"x. c #8A6927",
"c. c #853C59",
"v. c #8C5D44",
"b. c #815A4D",
"n. c #865C46",
"m. c #845D54",
"M. c #946249",
"N. c #9B664E",
"B. c #9A6A4E",
"V. c #876759",
"C. c #966753",
"Z. c #8D6A48",
"A. c #A46C52",
"S. c #A37253",
"D. c #AC7156",
"F. c #AA7A59",
"G. c #B27D5C",
"H. c #B7785C",
"J. c #924465",
"K. c #967677",
"L. c #887170",
"P. c #AA7C6D",
"I. c #5B8729",
"U. c #66992E",
"Y. c #64972D",
"T. c #6A9D37",
"R. c #6E8F2E",
"E. c #6DA231",
"W. c #73AA32",
"Q. c #7BB536",
"!. c #BD9D22",
"~. c #918752",
"^. c #B5825D",
"/. c #AD8152",
"(. c #B58363",
"). c #BC8563",
"_. c #BB8968",
"`. c #BA9169",
"'. c #BE9779",
"]. c #AD8B6B",
"[. c #9D986E",
"{. c #C7965F",
"}. c #C48564",
"|. c #CA8E6B",
" X c #C78B68",
".X c #CC926D",
"XX c #C79773",
"oX c #D49C74",
"OX c #D69F7A",
"+X c #D1956E",
"@X c #CAA17B",
"#X c #DBA47C",
"$X c #D6A379",
"%X c #E1AA7D",
"&X c #5F6387",
"*X c #757890",
"=X c #747A9C",
"-X c #6F7188",
";X c #787EA9",
":X c #555C8F",
">X c #8A8F9C",
",X c #A19C9F",
"<X c #8E93A7",
"1X c #B1ACA9",
"2X c #D09F80",
"3X c #DDAB84",
"4X c #C2A185",
"5X c #E2AD82",
"6X c #EBBA8D",
"7X c #E7B487",
"8X c #EABC94",
"9X c #EFC195",
"0X c #F3C595",
"qX c #F3C79B",
"wX c #F7CB9D",
"eX c #F8CD9E",
"rX c #F9CFA2",
"tX c #FCD3A5",
"yX c #FDD6A8",
"uX c #FFD9AC",
"iX c #A7B0C5",
/* pixels */
"=.=.=.=.=.=.=.=.=.=.=.=.=.=.=.=.=.=.=.=.=.=.=.=.=.=.=.=.=.=.=.=.=.=.=.=.=.:X_ =.=.=.=.=.=.=.=.=.=.=.=.=.=.=.=.=.=.=.=.=.=.=.=.=.=.=.=.=.=.=.",
"=.=.=.=.=.=.=.=.=.=.=.=.=.=.=.=.=.=.=.=.=.=.=.=.=.=.=.=.=.=.=.=.) T -.-.-.o.Q =.=.=.=.=.=.=.=.=.=.=.=.=.=.=.=.=.=.=.=.=.=.=.=.=.=.=.=.=.=.=.",
"=.=.=.=.=.=.=.=.=.=.=.=.=.=.=.=.=.=.=.=.=.=.=.=.=.=.=.=.=.=.u._ t :.;.;.;.;.e =.=.=.=.=.=.=.=.=.=.=.=.=.=.=.=.=.=.=.=.=.=.=.=.=.=.=.=.=.=.=.",
"=.=.=.=.=.=.=.=.=.=.=.=.=.=.=.=.=.=.=.=.=.=.=.=.=.=.=.=.=.=.=.^ -.;.-.t r t q =.=.=.=.=.=.=.=.=.=.=.=.=.=.=.=.=.=.=.=.=.=.=.=.=.=.=.=.=.=.=.",
"=.=.=.=.=.=.=.=.=.=.=.=.=.=.=.=.=.=.=.=.=.=.=.=.=.=.=.=.=.=._ I -.;.:.>.:.-.w W _ =.=.=.=.=.=.=.=.=.=.=.=.=.=.=.=.=.=.=.=.=.=.=.=.=.=.=.=.=.",
"=.=.=.=.=.=.=.=.=.=.=.=.=.=.=.=.=.=.=.=.=.=.=.=.=.=.=.=.=.=.:XQ D G 1.Z.J 8.# P _ :X=.=.=.=.=.=.=.=.=.=.=.=.=.=.=.=.=.=.=.=.=.=.=.=.=.=.=.=.",
"=.=.=.=.=.=.=.=.=.=.=.=.=.=.=.=.=.=.=.=.=.=.=.=.=.=.=.=.=.=.=.w._.5X@X0X[.@XD 3 T _ =.=.=.=.=.=.=.=.=.=.=.=.=.=.=.=.=.=.=.=.=.=.=.=.=.=.=.=.",
"=.=.=.=.=.=.=.=.=.=.=.=.=.=.=.=.=.=.=.=.=.=.*.G ,.u.=.=.=.=.=.y.V.8X$X6X~.Z.>./ R P =.=.=.=.=.=.=.=.=.=.=.=.=.=.=.=.=.=.=.=.=.=.=.=.=.=.=.=.",
"=.=.=.=.=.=.=.=.=.=.=.=.=.=.=.=.=.=.=.=.=.s.P.h.A ,.=.=.=.*.:Xu.7.@X$X}.A.v.=X&Xp.p.-X*X*X*X*X*X-X=X*X*X*X;X;X:X=.=.=.=.=.=.=.=.=.=.=.=.=.=.",
"=.=.=.=.=.=.=.=.=.=.=.=.=.=.=.=.*.&._ *._.OXOX).k.0.=X-Xp.a.s.g.t.n.v.v.).|.1.q q P R R R R R R R R R R R R R _ =.=.=.=.=.=.=.=.=.=.=.=.=.=.",
"=.=.=.=.=.=.=.=.=.=.=.=.=.=.6.8.p.t.,.a.3.F.(.`.F h.q q q L R R T 3.H.M.|.7X3XK.i.=.=.=.=.=.=.=.=.=.=.=.:X_ =.=.=.=.=.=.=.=.=.=.=.=.=.=.=.=.",
"=.=.=.=.=.=.=.=.=.=.=.=.=.=.x.x., I I 0 3.v.M.).H y =.=.=.=.d.K.).M.D.G.).+XuXwXL.y.=.=.=.=.=.=.=.=.=.=.=.=.=.=.=.=.=.=.=.=.=.=.=.=.=.=.=.=.",
"=.=.=.=.=.=.=.=.=.=.=.=.=.=.&.&.( =.=.y.C.N.H. XG  .=.=._ d.5X3XD.D.M.S.M.S.5X#XG.'.].s.=.=.=.=.=.=.=.=.=.=.=.=.=.=.=.=.=.=.=.=.=.=.=.=.=.=.",
"=.=.=.=.=.=.=.=.=.=.=.=.=.=.=.i.=.=.=.=.<.C.|.(.w.=.=.=.:X_.wXuX8X7XtXuXuXyX%X0XtXtXyXXXy.=.=.=.=.=.=.=.=.=.=.=.=.=.=.=.=.=.=.=.=.=.=.=.=.=.",
"=.=.=.=.=.=.=.=.=.=.=.=.=.=.=.=.=.=.=.=.=.5.3X0Xf.=.=.=.d.G.yXrX6XuXuXuXuXqX}.5XtXuXuX8X4._ =.=.=.=.=.=.=.=.=.=.=.=.=.=.=.=.=.=.=.=.=.=.=.=.",
"=.=.=.=.=.=.=.=.=.=.=.=.=.=.=.=.=.=.=.=.=.u.S.qX3Xi.=.i.V.(.8X3X0XuXuXuXrX+XA.D..X6XrX7X4.:X=.=.=.=.=.=.=.=.=.=.=.=.=.=.=.=.=.=.=.=.=.=.=.=.",
"=.=.=.=.=.=.=.=.=.=.=.=.=.=.=.=.=.=.=.=.=.=.V.6XrXK.i.P.'.3XXXG.qXuXuXyXOXD.N.z.A.OX5XOXL.=.=.=.=.=.=.=.=.=.=.=.=.=.=.=.=.=.=.=.=.=.=.=.=.=.",
"=.=.=.=.=.=.=.=.=.=.=.=.=.=.=.=.=.=.=.=.=.=.5. XyXtX_.8XXXn.v.N.S._.XX(.v.N.+XH.H.rX0X8XOXp.=.=.=.=.=.=.=.=.=.=.=.=.=.=.=.=.=.=.=.=.=.=.=.=.",
"=.=.=.=.=.=.=.=.=.=.=.=.=.=.=.=.=.=.=.=.=.=.q.B.0XuX7X|.A.M.$X].@X'.XX'.).B.%X XA.7XtXrX2Xp.=.=.=.=.=.=.=.=.=.=.=.=.=.=.=.=.=.=.=.=.=.=.=.=.",
"=.=.=.=.=.=.=.=.=.=.=.=.=.=.=.=.=.=.=.=.=.=.=.7.+XtXrX5XA.M.F.B.S.^.{.OX%X^.oX}.M.|.uXrX8Xd.=.=.=.=.=.=.=.=.=.=.=.=.=.=.=.=.=.=.=.=.=.=.=.=.",
"=.=.=.=.=.=.=.=.=.=.=.=.=.=.=.=.=.=.=.=.=.=.=.w.G.5X7X(.D.n.XXXXF.$Xl./.8X%X+XH.m.C.eXwX8XK.=.=.=.=.=.=.=.=.=.=.=.=.=.=.=.=.=.=.=.=.=.=.=.=.",
"=.=.=.=.=.=.=.=.=.=.=.=.=.=.=.=.=.=.=.=.=.=.=.=.<.A.M.3.<.w.(.3Xn.z.L.4X0X.XH.m.u.5.|.#X7X'.=.=.=.=.=.=.=.=.=.=.=.=.=.=.=.=.=.=.=.=.=.=.=.=.",
"=.=.=.=.=.=.=.=.=.=.=.=.=.=.=.=.=.=.=.=.=.=.=.=.=.<.7.y.=.*.F.oXF.].>X1X5XH.m.y.i.q.M.M.7XOXp.=.=.=.=.=.=.=.=.=.=.=.=.=.=.=.=.=.=.=.=.=.=.=.",
"=.=.=.=.=.=.=.=.=.=.=.=.=.=.=.=.=.=.=.=.=.=.=.=.=.=.=.=.*.J ~.`.(.S.[.1X#XN.u.u.&.H 2.A.qXXXd.=.=.=.=.=.=.=.=.=.=.=.=.=.=.=.=.=.=.=.=.=.=.=.",
"=.=.=.=.=.=.=.=.=.=.=.=.=.=.=.=.=.=.=.=.=.=.=.=.=.=.=.=.9.I.U.I.~.~.[.,X Xb.=.=.:.F D H.6X6Xd.=.=.=.=.=.=.=.=.=.=.=.=.=.=.=.=.=.=.=.=.=.=.=.",
"=.=.=.=.=.=.=.=.=.=.=.=.=.=.=.=.=.=.=.=.=.=.=.=.=.=.=.*.I.Y.E.W.U.Q.9.<X0.>.=.=.q.k a A.%X0Xd.=.=.=.=.=.=.=.=.=.=.=.=.=.=.=.=.=.=.=.=.=.=.=.",
"=.=.=.=.=.=.=.=.=.=.=.=.=.=.=.=.=.=.=.=.=.=.=.=.=.=.*.o.I.Y.Y.Q.E.W.E.;XK J =.=.=.R 4 n.+X0Xd.=.=.=.=.=.=.=.=.=.=.=.=.=.=.=.=.=.=.=.=.=.=.=.",
"=.=.=.=.=.=.=.=.=.=.=.=.=.=.=.=.=.=.=.=.=.=.=.=.=.i.Y M U.E.I.Y.W.U.E.[.[.!.0.=.=.*.* l OXwXd.u.=.=.=.=.=.=.=.=.=.=.=.=.=.=.=.=.=.=.=.=.=.=.",
"=.=.=.=.=.=.=.=.=.=.=.=.=.=.=.=.=.=.=.=.=.=.=.=.=.=.c B Y.U.Q.Y.W.I.l.L.0.l.F =.=.=.P a |.qXs._ =.=.=.=.=.=.=.=.=.=.=.=.=.=.=.=.=.=.=.=.=.=.",
"=.=.=.=.=.=.=.=.=.=.=.=.=.=.=.=.=.=.=.=.=.=.=.=.=.X.N z B B E.J E.C A S Z A D =.=.=.( a }.8Xd.:X=.=.=.=.=.=.=.=.=.=.=.=.=.=.=.=.=.=.=.=.=.=.",
"=.=.=.=.=.=.=.=.=.=.=.=.=.=.=.=.=.=.=.=.=.=.=.=.=...+.v O.$.x x m B Z Z S H =.=._ =.y.b.H.5Xf. .=.=.=.=.=.=.=.=.=.=.=.=.=.=.=.=.=.=.=.=.=.=.",
"=.=.=.=.=.=.=.=.=.=.=.=.=.=.=.=.=.=.=.=.=.=.=.=.X.@.v x N %.$.$.+.N M M *XiX[  .:Xu.7.D.S z.S d _ =.=.=.=.=.=.=.=.=.=.=.=.=.=.=.=.=.=.=.=.=.",
"=.=.=.=.=.=.=.=.=.=.=.=.=.=.=.=.=.=.=.=.=.=.=.X.v n : v n %.%.%.b @.t r f.f.c.| =.=.3.z.Z Z Z d &.=.=.=.=.=.=.=.=.=.=.=.=.=.=.=.=.=.=.=.=.=.",
"=.=.=.=.=.=.=.=.=.=.=.=.=.=.=.=.=.=.=.=.=.=.*...@.n x x n @.%.v N n { c.c.J.J.c._ =.=.2.y A V * =.u.=.=.=.=.=.=.=.=.=.=.=.=.=.=.=.=.=.=.=.=.",
"=.=.=.=.=.=.=.=.=.=.=.=.=.=.=.=.=.=.=.=.=.=.&.b @.m b b $.N x v %.>.J.c.{ c.J.c. .=.=.&.y A j 5 ^ =.=.=.=.=.=.=.=.=.=.=.=.=.=.=.=.=.=.=.=.=.",
"=.=.=.=.=.=.=.=.=.=.=.=.=.=.=.=.=.=.=.=.=.=.o.%.@.@.M 7 N %.N %.+.j } } } { j e =.=.=.=.,.] ! j 9 *.=.=.=.=.=.=.=.=.=.=.=.=.=.=.=.=.=.=.=.=.",
"=.=.=.=.=.=.=.=.=.=.=.=.=.=.=.=.=.=.=.=.=.=...%.%.m u = z @.%.%.z 8 #.#.#.>.z > =.=.=.=.=.=.&.T = E =.=.=.=.=.=.=.=.=.=.=.=.=.=.=.=.=.=.=.=.",
"=.=.=.=.=.=.=.=.=.=.=.=.=.=.=.=.=.=.=.=.=.=...%.#.4 u = 3 ; z : : v %.%.$.%.N , =.=.=.=.=.=.=.&.j * =.=.=.=.=.=.=.=.=.=.=.=.=.=.=.=.=.=.=.=.",
"=.=.=.=.=.=.=.=.=.=.=.=.=.=.=.=.=.=.=.=.=.X.%.@.5 = p = < < @ : : n @.%.%.%.$.c =.=.=.=.=.=.=.*.T 5 / u.=.=.=.=.=.=.=.=.=.=.=.=.=.=.=.=.=.=.",
"=.=.=.=.=.=.=.=.=.=.=.=.=.=.=.=.=.=.=.=.=.*.X.! h i f O < ;   : : n @.%.%.%.%...&.=.=.=.=.=.=.=._ j * _ =.=.=.=.=.=.=.=.=.=.=.=.=.=.=.=.=.=.",
"=.=.=.=.=.=.=.=.=.=.=.=.=.=.=.=.=.=.=.=.=.=.=.) g i p O 3 X + : : v %.N $.%.%.@.&.=.=.=.=.=.=.=.=.U a I =.=.=.=.=.=.=.=.=.=.=.=.=.=.=.=.=.=.",
"=.=.=.=.=.=.=.=.=.=.=.=.=.=.=.=.=.=.=.=.=.=.=.[ p p p O < * @ : : z %.%.O.$.%.%...=.=.=.=.=.=.=.=.*.<.a ( =.=.=.=.=.=.=.=.=.=.=.=.=.=.=.=.=.",
"=.=.=.=.=.=.=.=.=.=.=.=.=.=.=.=.=.=.=.=.=.=._ [ u p p # < 3 ; - : z @.%.$.@.+.$...&.=.=.=.=.=.=.=.=.e.<.0 _ =.=.=.=.=.=.=.=.=.=.=.=.=.=.=.=.",
"=.=.=.=.=.=.=.=.=.=.=.=.=.=.=.=.=.=.=.=.=.=.) p p p a 3 < 3 ; @ : : N %.%.%.$.%.%...=.=.=.=.=.=.=.=.u.a.i Q =.=.=.=.=.=.=.=.=.=.=.=.=.=.=.=.",
"=.=.=.=.=.=.=.=.=.=.=.=.=.=.=.=.=.=.=.=.=.=.) g p g i - < 3 - - : : v @.%.%.%.%.%.+.*.=.=.=.=.=.=.=.=.y.4.* u.=.=.=.=.=.=.=.=.=.=.=.=.=.=.=.",
"=.=.=.=.=.=.=.=.=.=.=.=.=.=.=.=.=.=.=.=.=.=.U g g l i @ 3 < @ - : : z O.%.%.%.%.%.%...*.=.=.=.=.=.=.=.=.e.' I u.=.=.=.=.=.=.=.=.=.=.=.=.=.=.",
"=.=.=.=.=.=.=.=.=.=.=.=.=.=.=.=.=.=.=.=.=.=.q g p { 5 @ 2 < o + : : > N %.%.%.%.%.%.$.X.=.=.=.=.=.=.=.=._ a.* / =.=.=.=.=.=.=.=.=.=.=.=.=.=.",
"=.=.=.=.=.=.=.=.=.=.=.=.=.=.=.=.=.=.=.=.=.*.; u u { a 2 < * X + : : : x @.%.%.%.%.%.%.@.&.=.=.=.=.=.=.=.:Xi.' 4 *.=.=.=.=.=.=.=.=.=.=.=.=.=.",
"=.=.=.=.=.=.=.=.=.=.=.=.=.=.=.=.=.=.=.=.=.E : : i a 3 ; < * X + : : : z O.%.%.%.%.%.%.%.O.&.=.=.=.=.=.=.=.=.t.k E =.=.=.=.=.=.=.=.=.=.=.=.=.",
"=.=.=.=.=.=.=.=.=.=.=.=.=.=.=.=.=.=.=.=.*., : : - : : X 2 3 #   - : : : x O.%.%.%.%.%.%.$.c =.=.=.=.=.=.=.=.i.t.= Q =.=.=.=.=.=.=.=.=.=.=.=.",
"=.=.=.=.=.=.=.=.=.=.=.=.=.=.=.=.=.=.=.=.E : : > - : - 3 2 < @   : : : : z n $.$.%.%.$...> - =.=.=.=.=.=.=.=.=.e.2.9 :X=.=.=.=.=.=.=.=.=.=.=.",
"=.=.=.=.=.=.=.=.=.=.=.=.=.=.=.=.=.=.=.=.*.W Y , - - ; 3 6 < .   : : : : : x n O.$.N - - E _ =.=.=.=.=.=.=.=.=.=.e.k I _ =.=.=.=.=.=.=.=.=.=.",
"=.=.=.=.=.=.=.=.=.=.=.=.=.=.=.=.=.=.=.=.=.=.=.=.( Y X r r < O o : : : : : > v x 8 ; o Y =.=.=.=.=.=.=.=.=.=.=.=.y.t.* ( =.=.=.=.=.=.=.=.=.=.",
"=.=.=.=.=.=.=.=.=.=.=.=.=.=.=.=.=.=.=.=.=.=.=.=.=.=.o 3 r X 6 o R E E E R , & r t < # 1 =.=.=.=.=.=.=.=.=.=.=.=.u.q.4.= _ =.=.=.=.=.=.=.=.=.",
"=.=.=.=.=.=.=.=.=.=.=.=.=.=.=.=.=.=.=.=.=.=.=.=.=.^ < 2 3 < * @ I =.=.=.=.( o 3 r 3 3 X L *.=.=.=.=.=.=.=.=.=.=.=.=. .j ~ _ =.=.=.=.=.=.=.=.",
"=.=.=.=.=.=.=.=.=.=.=.=.=.=.=.=.=.=.=.=.=.=.=.=.=.Q 6 2 r 6 . < U =.=.=.=.=.O X 2 6 r X < q =.=.=.=.=.=.=.=.=.=.=.=.:Xe.s ~ =.=.=.=.=.=.=.=.",
"=.=.=.=.=.=.=.=.=.=.=.=.=.=.=.=.=.=.=.=.=.=.=.=.:X*.1 2 6 o & P *.=.=.=.=.=.y $ X 2 r o 3 X =.=.=.=.=.=.=.=.=.=.=.=.=.=.q.] =.=.=.=.=.=.=.=.",
"=.=.=.=.=.=.=.=.=.=.=.=.=.=.=.=.=.=.=.=.=.=.=.=._ u./ . X 2 % =.=.=.=.=.=.=.D $ 3 r < * X U =.=.=.=.=.=.=.=.=.=.=.=.=.=.u.=.=.=.=.=.=.=.=.=.",
"=.=.=.=.=.=.=.=.=.=.=.=.=.=.=.=.=.=.=.=.=.=.=.=.=.=./ . * < 1 =.=.=.=.=.=.=.=.Q < < X < # 0 =.=.=.=.=.=.=.=.=.=.=.=.=.=.=.=.=.=.=.=.=.=.=.=.",
"=.=.=.=.=.=.=.=.=.=.=.=.=.=.=.=.=.=.=.=.=.=.=.=.=.=._ ; 6 t % =.=.=.=.=.=.=.=.=.( % X < ; 0 =.=.=.=.=.=.=.=.=.=.=.=.=.=.=.=.=.=.=.=.=.=.=.=.",
"=.=.=.=.=.=.=.=.=.=.=.=.=.=.=.=.=.=.=.=.=.=.=.=.=.=.=.0 < 2 ; =.=.=.=.=.=.=.=.=.=.P * 2 2 9 =.=.=.=.=.=.=.=.=.=.=._ =.=.=.=.=.=.=.=.=.=.=.=.",
"=.=.=.=.=.=.=.=.=.=.=.=.=.=.=.=.=.=.=.=.=.=.=.=.=.=.=.0 X < 9 =.=.=.=.=.=.=.=.=.=.=.X < 1 o =.=.=.=.=.=.=.=.=.=.=.:X=.=.=.=.=.=.=.=.=.=.=.=.",
"=.=.=.=.=.=.=.=.=.=.=.=.=.=.=.=.=.=.=.=.=.=.=.=.=.=.^ & # < 1 *.=.=.=.=.=.=.=.=.=.=.E < & X ^ =.=.=.=.=.=.=.=.=.=.=.=.=.=.=.=.=.=.=.=.=.=.=.",
"=.=.=.=.=.=.=.=.=.=.=.=.=.=.=.=.=.=.=.=.=.=.=.=./ I % % * 2 ; P =.=.=.=.=.=.=.=.=.=.*.9 < 2 R =.=.=.=.=.=.=.=.=.=.=.=.=.=.=.=.=.=.=.=.=.=.=.",
"=.=.=.=.=.=.=.=.=.=.=.=.=.=.=.=.=.=.=.=.=.=.*.L ; < t t < 3 < P =.=.=.=.=.=.=.=.=.=.=.W o O , =.=.=.=.=.=.=.=.=.=.=.=.=.=.=.=.=.=.=.=.=.=.=.",
"=.=.=.=.=.=.=.=.=.=.=.=.=.=.=.=.=.=.=.=.=.=.I & X * X o % . . R =.=.=.=.=.=.=.=.=.=.=.( * 3 * *.=.=.=.=.=.=.=.=.=.=.=.=.=.=.=.=.=.=.=.=.=.=.",
"=.=.=.=.=.=.=.=.=.=.=.=.=.=.=.=.=.=.=.=.=.=.W % w w 0 W ( R P ( =.=.=.=.=.=.=.=.=.=.=.W < < * R =.=.=.=.=.=.=.=.=.=.=.=.=.=.=.=.=.=.=.=.=.=.",
"=.=.=.=.=.=.=.=.=.=.=.=.=.=.=.=.=.=.=.=.=.=.=.=.=.=.=.=.=.=.=.=.=.=.=.=.=.=.=.=.=.=.*.% 3 t @ % =.=.=.=.=.=.=.=.=.=.=.=.=.=.=.=.=.=.=.=.=.=.",
"=.=.=.=.=.=.=.=.=.=.=.=.=.=.=.=.=.=.=.=.=.=.=.=.=.=.=.=.=.=.=.=.=.=.=.=.=.=.=.=.=.=._ % X < X 0 =.=.=.=.=.=.=.=.=.=.=.=.=.=.=.=.=.=.=.=.=.=.",
"=.=.=.=.=.=.=.=.=.=.=.=.=.=.=.=.=.=.=.=.=.=.=.=.=.=.=.=.=.=.=.=.=.=.=.=.=.=.=.=.=.=.=.=.=.=.=.=.=.=.=.=.=.=.=.=.=.=.=.=.=.=.=.=.=.=.=.=.=.=."
};
